SplineFontDB: 3.2
FontName: sideways
FullName: sideways
FamilyName: sideways
Weight: Regular
Copyright: Copyright (c) 2017, Stewart C. Russell - @scruss\nmodifed to be sideways
UComments: "2017-2-4: Created with FontForge (http://fontforge.org)"
Version: 001.000
ItalicAngle: 0
UnderlinePosition: 0
UnderlineWidth: 0
Ascent: 1024
Descent: 0
InvalidEm: 0
LayerCount: 2
Layer: 0 0 "Back" 1
Layer: 1 0 "Fore" 0
XUID: [1021 318 -1787477875 13535298]
StyleMap: 0x0040
FSType: 0
OS2Version: 0
OS2_WeightWidthSlopeOnly: 0
OS2_UseTypoMetrics: 1
CreationTime: 1486247248
ModificationTime: 1584847950
PfmFamily: 49
TTFWeight: 400
TTFWidth: 5
LineGap: 92
VLineGap: 0
OS2TypoAscent: 0
OS2TypoAOffset: 1
OS2TypoDescent: 0
OS2TypoDOffset: 1
OS2TypoLinegap: 92
OS2WinAscent: 0
OS2WinAOffset: 1
OS2WinDescent: 0
OS2WinDOffset: 1
HheadAscent: 0
HheadAOffset: 1
HheadDescent: 0
HheadDOffset: 1
OS2Vendor: 'PfEd'
MarkAttachClasses: 1
DEI: 91125

StartChar: zero
Encoding: 48 48 4
Width: 667
VWidth: -334
UnlinkRmOvrlpSave: 1
Flags: HW
HStem: 149 167<183.228 250.188 265.969 334.031 349.812 416.772> 238 167<99.228 165.878 434.122 500.772> 328 167<16.228 83.772 516.228 583.772> 505 167<16.228 83.772 516.228 583.772> 595 167<99.228 165.878 434.122 500.772> 684 167<183.228 250.188 265.969 334.031 349.812 416.772>
VStem: 0 100<376.47 480.814 519.186 623.53> 83 100<285 356 644.47 714.438> 167 266<187.456 269.437 730.563 812.544> 417 100<285.562 355.53 644 715> 500 100<376.47 480.814 519.186 623.53>
LayerCount: 2
Fore
SplineSet
50 328 m 0x21
 22 328 0 364 0 411 c 0
 0 458 22 495 50 495 c 0x22
 78 495 100 458 100 411 c 0
 100 398 98 386 95 376 c 1
 104 393 118 405 133 405 c 0x42
 161 405 183 368 183 321 c 0
 183 308 181 297 178 285 c 1
 187 303 201 316 217 316 c 0
 234 316 249 302 258 280 c 1
 267 302 283 316 300 316 c 0
 317 316 333 302 342 280 c 1
 351 302 366 316 383 316 c 0x81
 399 316 413 303 422 285 c 1
 419 297 417 308 417 321 c 0
 417 368 439 405 467 405 c 0x4140
 482 405 496 393 505 376 c 1
 502 386 500 398 500 411 c 0
 500 458 522 495 550 495 c 0
 578 495 600 458 600 411 c 0
 600 364 578 328 550 328 c 0x2020
 535 328 521 339 512 356 c 1
 515 346 517 334 517 321 c 0
 517 274 495 238 467 238 c 0x4040
 451 238 437 252 428 270 c 1
 431 258 433 246 433 233 c 0
 433 186 411 149 383 149 c 0
 366 149 351 164 342 186 c 1
 333 164 317 149 300 149 c 0
 283 149 267 164 258 186 c 1
 249 164 234 149 217 149 c 0x8080
 189 149 167 186 167 233 c 0
 167 246 169 258 172 270 c 1
 163 252 149 238 133 238 c 0x4080
 105 238 83 274 83 321 c 0
 83 334 85 346 88 356 c 1
 79 339 65 328 50 328 c 0x21
50 505 m 0x12
 22 505 0 542 0 589 c 0
 0 636 22 672 50 672 c 0x12
 65 672 79 661 88 644 c 1
 85 654 83 666 83 679 c 0
 83 726 105 762 133 762 c 0x09
 149 762 163 748 172 730 c 1
 169 742 167 754 167 767 c 0
 167 814 189 851 217 851 c 0
 234 851 249 836 258 814 c 1
 267 836 283 851 300 851 c 1
 317 851 333 836 342 814 c 1
 351 836 366 851 383 851 c 0
 411 851 433 814 433 767 c 0x0480
 433 754 431 742 428 730 c 1
 437 748 451 762 467 762 c 1
 495 762 517 726 517 679 c 0x0840
 517 666 515 654 512 644 c 1
 521 661 535 672 550 672 c 1
 578 672 600 636 600 589 c 0
 600 542 578 505 550 505 c 0x1020
 522 505 500 542 500 589 c 0
 500 602 502 614 505 624 c 1
 496 607 482 595 467 595 c 1x0820
 439 595 417 632 417 679 c 0
 417 692 419 703 422 715 c 1
 413 697 399 684 383 684 c 1
 366 684 351 698 342 720 c 1
 333 698 317 684 300 684 c 0
 283 684 267 698 258 720 c 1
 249 698 234 684 217 684 c 1x0440
 201 684 187 697 178 715 c 1
 181 703 183 692 183 679 c 0
 183 632 161 595 133 595 c 0x0940
 118 595 104 607 95 624 c 1
 98 614 100 602 100 589 c 0
 100 542 78 505 50 505 c 0x12
EndSplineSet
EndChar

StartChar: four
Encoding: 52 52 5
Width: 667
VWidth: -334
UnlinkRmOvrlpSave: 1
Flags: HW
HStem: 149 21G<203 231> 238 167<16.228 84.0312 99.8125 166.188 266.094 334.031 349.812 416.614 433.386 500.772> 328 167<183.228 250.772 515.635 583.772> 505 167<183.228 250.772 349.228 415.878> 684 167<183.228 250.772> 742 20G<292.5 314>
VStem: 167 100<163.186 264.531 376.47 480.814 519.186 623.53 735.469 836.814> 250 100<644 710> 333 100<552 624> 417 100<468 537> 500 100<376.47 442.531>
LayerCount: 2
Fore
SplineSet
50 238 m 0xd240
 22 238 0 274 0 321 c 0
 0 368 22 405 50 405 c 0
 67 405 83 390 92 368 c 1
 101 390 116 405 133 405 c 0xd240
 150 405 165 392 174 370 c 1
 170 382 167 396 167 411 c 0
 167 458 189 495 217 495 c 0xb240
 245 495 267 458 267 411 c 0
 267 398 265 386 262 376 c 1
 271 393 285 405 300 405 c 0
 317 405 333 390 342 368 c 1
 351 390 366 405 383 405 c 0
 401 405 416 389 425 366 c 1
 434 389 449 405 467 405 c 0
 482 405 496 393 505 376 c 1
 502 386 500 398 500 411 c 0xd220
 500 423 502 433 504 443 c 1
 495 426 482 416 467 416 c 1
 439 416 417 453 417 500 c 0xd040
 417 513 419 525 422 537 c 1
 413 519 399 505 383 505 c 1
 355 505 333 542 333 589 c 0
 333 602 335 614 338 624 c 1
 329 607 315 595 300 595 c 1
 285 595 271 607 262 624 c 1
 265 614 267 602 267 589 c 0
 267 542 245 505 217 505 c 0
 189 505 167 542 167 589 c 0xd280
 167 636 189 672 217 672 c 0
 232 672 246 661 255 644 c 1
 252 654 250 666 250 679 c 0xd1
 250 691 252 700 254 710 c 1
 245 693 232 684 217 684 c 0
 189 684 167 720 167 767 c 0
 167 814 189 851 217 851 c 0
 245 851 267 814 267 767 c 0xda
 267 755 265 745 263 735 c 1
 272 752 285 762 300 762 c 0
 328 762 350 726 350 679 c 0x95
 350 666 348 654 345 644 c 1
 354 661 368 672 383 672 c 1
 411 672 433 636 433 589 c 0x9480
 433 576 431 564 428 552 c 1
 437 570 451 584 467 584 c 1
 495 584 517 547 517 500 c 0x9440
 517 488 515 478 513 468 c 1
 522 485 535 495 550 495 c 1
 578 495 600 458 600 411 c 0
 600 364 578 328 550 328 c 0xb420
 535 328 521 339 512 356 c 1
 515 346 517 334 517 321 c 0
 517 274 495 238 467 238 c 0
 449 238 434 253 425 276 c 1
 416 253 401 238 383 238 c 0
 366 238 351 253 342 275 c 1
 333 253 317 238 300 238 c 0
 285 238 272 248 263 265 c 1
 265 255 267 245 267 233 c 0
 267 186 245 149 217 149 c 0
 189 149 167 186 167 233 c 0
 167 246 169 258 172 270 c 1
 163 252 149 238 133 238 c 0
 116 238 101 253 92 275 c 1
 83 253 67 238 50 238 c 0xd240
178 285 m 1
 187 303 201 316 217 316 c 0
 232 316 245 307 254 290 c 1
 252 300 250 309 250 321 c 0
 250 334 252 346 255 356 c 1
 246 339 232 328 217 328 c 0xb1
 200 328 185 341 176 363 c 1
 180 351 183 336 183 321 c 0
 183 308 181 297 178 285 c 1
EndSplineSet
EndChar

StartChar: eight
Encoding: 56 56 6
Width: 667
VWidth: -334
UnlinkRmOvrlpSave: 1
Flags: HW
HStem: 149 167<99.228 166.614 183.386 250.772 349.228 416.614 433.386 500.772> 238 167<16.228 83.772 266.228 333.772 516.228 583.772> 416 168<16.228 83.772 266.228 333.772 516.228 583.772> 595 167<16.228 83.772 266.228 333.772 516.228 583.772> 684 167<99.228 166.614 183.386 250.772 349.228 416.614 433.386 500.772>
VStem: 0 100<290.468 390.814 430.186 569.814 609.186 709.532> 83 184<189.173 264.531 735.469 810.827> 250 100<290.468 390.814 430.186 569.814 609.186 709.532> 333 184<189.173 264.531 735.469 810.827> 500 100<290.468 390.814 430.186 569.814 609.186 709.532>
LayerCount: 2
Fore
SplineSet
50 238 m 1x6280
 22 238 0 274 0 321 c 0
 0 368 22 405 50 405 c 0x64
 78 405 100 368 100 321 c 0
 100 309 98 300 96 290 c 1
 105 307 118 316 133 316 c 1
 151 316 166 301 175 278 c 1
 184 301 199 316 217 316 c 1xa4
 232 316 245 307 254 290 c 1
 252 300 250 309 250 321 c 0
 250 368 272 405 300 405 c 0x65
 328 405 350 368 350 321 c 0
 350 309 348 300 346 290 c 1
 355 307 368 316 383 316 c 1
 401 316 416 301 425 278 c 1
 434 301 449 316 467 316 c 0xa5
 482 316 495 307 504 290 c 1
 502 300 500 309 500 321 c 0
 500 368 522 405 550 405 c 0
 578 405 600 368 600 321 c 0
 600 274 578 238 550 238 c 0x6540
 535 238 522 248 513 265 c 1
 515 255 517 245 517 233 c 0
 517 186 495 149 467 149 c 0
 449 149 434 165 425 188 c 1
 416 165 401 149 383 149 c 0xa080
 355 149 333 186 333 233 c 0
 333 245 335 255 337 265 c 1
 328 248 315 238 300 238 c 1x6080
 285 238 272 248 263 265 c 1
 265 255 267 245 267 233 c 0
 267 186 245 149 217 149 c 0
 199 149 184 165 175 188 c 1
 166 165 151 149 133 149 c 1xa280
 105 149 83 186 83 233 c 0
 83 245 85 255 87 265 c 1
 78 248 65 238 50 238 c 1x6280
50 416 m 0
 22 416 0 453 0 500 c 0
 0 547 22 584 50 584 c 0
 78 584 100 547 100 500 c 0
 100 453 78 416 50 416 c 0
50 595 m 0x3540
 22 595 0 632 0 679 c 0
 0 726 22 762 50 762 c 0x3540
 65 762 78 752 87 735 c 1
 85 745 83 755 83 767 c 0
 83 814 105 851 133 851 c 0
 151 851 166 835 175 812 c 1
 184 835 199 851 217 851 c 0x2a
 245 851 267 814 267 767 c 0
 267 755 265 745 263 735 c 1
 272 752 285 762 300 762 c 0x32
 315 762 328 752 337 735 c 1
 335 745 333 755 333 767 c 0
 333 814 355 851 383 851 c 0
 401 851 416 835 425 812 c 1
 434 835 449 851 467 851 c 0
 495 851 517 814 517 767 c 0x2a80
 517 755 515 745 513 735 c 1
 522 752 535 762 550 762 c 0
 578 762 600 726 600 679 c 0
 600 632 578 595 550 595 c 0x3040
 522 595 500 632 500 679 c 0
 500 691 502 700 504 710 c 1
 495 693 482 684 467 684 c 0
 449 684 434 699 425 722 c 1
 416 699 401 684 383 684 c 0x2840
 368 684 355 693 346 710 c 1
 348 700 350 691 350 679 c 0
 350 632 328 595 300 595 c 0x3140
 272 595 250 632 250 679 c 0
 250 691 252 700 254 710 c 1
 245 693 232 684 217 684 c 0
 199 684 184 699 175 722 c 1
 166 699 151 684 133 684 c 0x2940
 118 684 105 693 96 710 c 1
 98 700 100 691 100 679 c 0
 100 632 78 595 50 595 c 0x3540
300 416 m 0
 272 416 250 453 250 500 c 0
 250 547 272 584 300 584 c 0
 328 584 350 547 350 500 c 0
 350 453 328 416 300 416 c 0
550 416 m 0
 522 416 500 453 500 500 c 0
 500 547 522 584 550 584 c 0
 578 584 600 547 600 500 c 0
 600 453 578 416 550 416 c 0
EndSplineSet
EndChar

StartChar: less
Encoding: 60 60 7
Width: 667
VWidth: -334
UnlinkRmOvrlpSave: 1
Flags: HW
HStem: 149 167<16.228 83.772 516.228 583.772> 328 167<99.228 166.772 433.228 500.772> 505 167<183.228 250.772 349.228 416.772> 684 167<266.228 333.772>
VStem: 0 100<163.186 302.131> 83 100<341.869 480.814> 167 100<519.186 658.131> 250 100<697.869 836.814> 333 100<519.186 658.131> 417 100<341.869 480.814> 500 100<163.186 302.131>
LayerCount: 2
Fore
SplineSet
50 149 m 0xf8
 22 149 0 186 0 233 c 0
 0 280 22 316 50 316 c 0
 78 316 100 280 100 233 c 0
 100 186 78 149 50 149 c 0xf8
133 328 m 0
 105 328 83 364 83 411 c 0
 83 458 105 495 133 495 c 0
 161 495 183 458 183 411 c 0xf4
 183 364 161 328 133 328 c 0
217 505 m 0
 189 505 167 542 167 589 c 0
 167 636 189 672 217 672 c 0
 245 672 267 636 267 589 c 0xf2
 267 542 245 505 217 505 c 0
300 684 m 0
 272 684 250 720 250 767 c 0
 250 814 272 851 300 851 c 0
 328 851 350 814 350 767 c 0xf1
 350 720 328 684 300 684 c 0
383 505 m 0
 355 505 333 542 333 589 c 0
 333 636 355 672 383 672 c 0
 411 672 433 636 433 589 c 0xf080
 433 542 411 505 383 505 c 0
467 328 m 0
 439 328 417 364 417 411 c 0
 417 458 439 495 467 495 c 0
 495 495 517 458 517 411 c 0xf040
 517 364 495 328 467 328 c 0
550 149 m 0
 522 149 500 186 500 233 c 0
 500 280 522 316 550 316 c 0
 578 316 600 280 600 233 c 0xf020
 600 186 578 149 550 149 c 0
EndSplineSet
EndChar

StartChar: at
Encoding: 64 64 8
Width: 667
VWidth: -334
UnlinkRmOvrlpSave: 1
Flags: HW
HStem: 149 167<266.228 334.031 349.812 416.614 433.386 500.772> 238 167<16.228 83.772 183.228 250.772 516.228 583.772> 416 168<16.228 83.772 183.228 250.188 265.969 333.772 516.228 583.772> 595 167<16.228 83.772 516.228 583.772> 684 167<99.228 166.614 183.386 250.188 265.969 334.031 349.812 416.614 433.386 500.772>
VStem: 0 100<251.869 390.814 430.186 569.814 609.186 709.532> 167 183<468.949 545.544> 167 100<290.468 390.814> 250 267<189.173 264.531> 333 100<341.869 442.531> 500 100<290.468 390.814 430.186 569.814 609.186 709.532>
LayerCount: 2
Fore
SplineSet
50 238 m 0x64
 22 238 0 274 0 321 c 0
 0 368 22 405 50 405 c 0
 78 405 100 368 100 321 c 0
 100 274 78 238 50 238 c 0x64
50 416 m 0
 22 416 0 453 0 500 c 0
 0 547 22 584 50 584 c 0
 78 584 100 547 100 500 c 0
 100 453 78 416 50 416 c 0
50 595 m 0x3420
 22 595 0 632 0 679 c 0
 0 726 22 762 50 762 c 0x3420
 65 762 78 752 87 735 c 1
 85 745 83 755 83 767 c 0
 83 814 105 851 133 851 c 0
 151 851 166 835 175 812 c 1
 184 835 199 851 217 851 c 0
 234 851 249 836 258 814 c 1
 267 836 283 851 300 851 c 1
 317 851 333 836 342 814 c 1
 351 836 366 851 383 851 c 0
 401 851 416 835 425 812 c 1
 434 835 449 851 467 851 c 0
 495 851 517 814 517 767 c 0x2c80
 517 755 515 745 513 735 c 1
 522 752 535 762 550 762 c 0
 578 762 600 726 600 679 c 0
 600 632 578 595 550 595 c 0x3420
 522 595 500 632 500 679 c 0
 500 691 502 700 504 710 c 1
 495 693 482 684 467 684 c 0
 449 684 434 699 425 722 c 1
 416 699 401 684 383 684 c 0
 366 684 351 698 342 720 c 1
 333 698 317 684 300 684 c 0
 283 684 267 698 258 720 c 1
 249 698 234 684 217 684 c 1
 199 684 184 699 175 722 c 1
 166 699 151 684 133 684 c 0x2c20
 118 684 105 693 96 710 c 1
 98 700 100 691 100 679 c 0
 100 632 78 595 50 595 c 0x3420
217 238 m 1x6480
 189 238 167 274 167 321 c 0
 167 368 189 405 217 405 c 0x65
 245 405 267 368 267 321 c 0
 267 309 265 300 263 290 c 1
 272 307 285 316 300 316 c 1
 317 316 333 302 342 280 c 1
 351 302 366 316 383 316 c 0
 401 316 416 301 425 278 c 1
 434 301 449 316 467 316 c 0xa5
 482 316 495 307 504 290 c 1
 502 300 500 309 500 321 c 0
 500 368 522 405 550 405 c 0
 578 405 600 368 600 321 c 0
 600 274 578 238 550 238 c 0x6520
 535 238 522 248 513 265 c 1
 515 255 517 245 517 233 c 0
 517 186 495 149 467 149 c 0
 449 149 434 165 425 188 c 1
 416 165 401 149 383 149 c 0
 366 149 351 164 342 186 c 1
 333 164 317 149 300 149 c 0xa480
 272 149 250 186 250 233 c 0
 250 245 252 255 254 265 c 1
 245 248 232 238 217 238 c 1x6480
217 416 m 0
 189 416 167 453 167 500 c 0
 167 547 189 584 217 584 c 0
 234 584 249 569 258 547 c 1
 267 569 283 584 300 584 c 1
 328 584 350 547 350 500 c 0x26
 350 488 348 478 346 468 c 1
 355 485 368 495 383 495 c 1
 411 495 433 458 433 411 c 0
 433 364 411 328 383 328 c 0
 355 328 333 364 333 411 c 0x2440
 333 423 335 433 337 443 c 1
 328 426 315 416 300 416 c 1
 283 416 267 431 258 453 c 1
 249 431 234 416 217 416 c 0
550 416 m 0
 522 416 500 453 500 500 c 0
 500 547 522 584 550 584 c 0
 578 584 600 547 600 500 c 0x2420
 600 453 578 416 550 416 c 0
EndSplineSet
EndChar

StartChar: D
Encoding: 68 68 9
Width: 667
VWidth: -334
UnlinkRmOvrlpSave: 1
Flags: HW
HStem: 149 167<99.228 166.614 183.386 250.188 265.969 334.031 349.812 416.614 433.386 500.772> 328 167<16.228 83.772 516.228 583.772> 505 167<16.228 83.772 516.228 583.772> 595 167<99.0941 166.614 183.386 250.188 265.969 334.031 349.812 416.614 433.386 500.906> 684 167<16.228 83.772 516.228 583.772>
VStem: 0 100<341.869 480.814 519.186 623.53 735.469 836.814> 500 100<341.869 480.814 519.186 623.53 735.469 836.814>
LayerCount: 2
Fore
SplineSet
50 328 m 0xc6
 22 328 0 364 0 411 c 0
 0 458 22 495 50 495 c 0
 78 495 100 458 100 411 c 0
 100 364 78 328 50 328 c 0xc6
50 505 m 0xe6
 22 505 0 542 0 589 c 0
 0 636 22 672 50 672 c 0
 65 672 79 661 88 644 c 1
 85 654 83 666 83 679 c 0
 83 691 85 700 87 710 c 1
 78 693 65 684 50 684 c 0
 22 684 0 720 0 767 c 0
 0 814 22 851 50 851 c 0xee
 78 851 100 814 100 767 c 0
 100 755 98 745 96 735 c 1
 105 752 118 762 133 762 c 0
 151 762 166 747 175 724 c 1
 184 747 199 762 217 762 c 0
 234 762 249 747 258 725 c 1
 267 747 283 762 300 762 c 1
 317 762 333 747 342 725 c 1
 351 747 366 762 383 762 c 0
 401 762 416 747 425 724 c 1
 434 747 449 762 467 762 c 0xd6
 482 762 495 752 504 735 c 1
 502 745 500 755 500 767 c 0
 500 814 522 851 550 851 c 0
 578 851 600 814 600 767 c 0
 600 720 578 684 550 684 c 0
 535 684 522 693 513 710 c 1
 515 700 517 691 517 679 c 0
 517 666 515 654 512 644 c 1
 521 661 535 672 550 672 c 1
 578 672 600 636 600 589 c 0
 600 542 578 505 550 505 c 0xee
 522 505 500 542 500 589 c 0
 500 602 502 614 505 624 c 1
 496 607 482 595 467 595 c 1
 449 595 434 611 425 634 c 1
 416 611 401 595 383 595 c 0
 366 595 351 610 342 632 c 1
 333 610 317 595 300 595 c 0
 283 595 267 610 258 632 c 1
 249 610 234 595 217 595 c 1
 199 595 184 611 175 634 c 1
 166 611 151 595 133 595 c 0xd6
 118 595 104 607 95 624 c 1
 98 614 100 602 100 589 c 0
 100 542 78 505 50 505 c 0xe6
133 149 m 1
 105 149 83 186 83 233 c 0
 83 280 105 316 133 316 c 0
 151 316 166 301 175 278 c 1
 184 301 199 316 217 316 c 1
 234 316 249 302 258 280 c 1
 267 302 283 316 300 316 c 0
 317 316 333 302 342 280 c 1
 351 302 366 316 383 316 c 0
 401 316 416 301 425 278 c 1
 434 301 449 316 467 316 c 0
 495 316 517 280 517 233 c 0
 517 186 495 149 467 149 c 0
 449 149 434 165 425 188 c 1
 416 165 401 149 383 149 c 0
 366 149 351 164 342 186 c 1
 333 164 317 149 300 149 c 0
 283 149 267 164 258 186 c 1
 249 164 234 149 217 149 c 0
 199 149 184 165 175 188 c 1
 166 165 151 149 133 149 c 1
550 328 m 0
 522 328 500 364 500 411 c 0
 500 458 522 495 550 495 c 0
 578 495 600 458 600 411 c 0
 600 364 578 328 550 328 c 0
EndSplineSet
EndChar

StartChar: H
Encoding: 72 72 10
Width: 667
VWidth: -334
UnlinkRmOvrlpSave: 1
Flags: HW
HStem: 149 167<16.228 84.0312 99.8125 166.614 183.386 250.188 265.969 334.031 349.812 416.614 433.386 500.188 515.969 583.772> 328 167<266.228 333.772> 505 167<266.228 333.772> 684 167<16.228 84.0312 99.8125 166.614 183.386 250.188 265.969 334.031 349.812 416.614 433.386 500.188 515.969 583.772>
VStem: 250 100<341.869 480.814 519.186 658.131>
LayerCount: 2
Fore
SplineSet
50 149 m 0
 22 149 0 186 0 233 c 0
 0 280 22 316 50 316 c 0
 67 316 83 302 92 280 c 1
 101 302 116 316 133 316 c 0
 151 316 166 301 175 278 c 1
 184 301 199 316 217 316 c 1
 234 316 249 302 258 280 c 1
 267 302 283 316 300 316 c 0
 317 316 333 302 342 280 c 1
 351 302 366 316 383 316 c 0
 401 316 416 301 425 278 c 1
 434 301 449 316 467 316 c 0
 484 316 499 302 508 280 c 1
 517 302 533 316 550 316 c 0
 578 316 600 280 600 233 c 0
 600 186 578 149 550 149 c 0
 533 149 517 164 508 186 c 1
 499 164 484 149 467 149 c 0
 449 149 434 165 425 188 c 1
 416 165 401 149 383 149 c 0
 366 149 351 164 342 186 c 1
 333 164 317 149 300 149 c 0
 283 149 267 164 258 186 c 1
 249 164 234 149 217 149 c 0
 199 149 184 165 175 188 c 1
 166 165 151 149 133 149 c 1
 116 149 101 164 92 186 c 1
 83 164 67 149 50 149 c 0
50 684 m 1
 22 684 0 720 0 767 c 0
 0 814 22 851 50 851 c 0
 67 851 83 836 92 814 c 1
 101 836 116 851 133 851 c 1
 151 851 166 835 175 812 c 1
 184 835 199 851 217 851 c 0
 234 851 249 836 258 814 c 1
 267 836 283 851 300 851 c 1
 317 851 333 836 342 814 c 1
 351 836 366 851 383 851 c 0
 401 851 416 835 425 812 c 1
 434 835 449 851 467 851 c 0
 484 851 499 836 508 814 c 1
 517 836 533 851 550 851 c 0
 578 851 600 814 600 767 c 0
 600 720 578 684 550 684 c 0
 533 684 517 698 508 720 c 1
 499 698 484 684 467 684 c 0
 449 684 434 699 425 722 c 1
 416 699 401 684 383 684 c 0
 366 684 351 698 342 720 c 1
 333 698 317 684 300 684 c 0
 283 684 267 698 258 720 c 1
 249 698 234 684 217 684 c 1
 199 684 184 699 175 722 c 1
 166 699 151 684 133 684 c 0
 116 684 101 698 92 720 c 1
 83 698 67 684 50 684 c 1
300 328 m 0
 272 328 250 364 250 411 c 0
 250 458 272 495 300 495 c 0
 328 495 350 458 350 411 c 0
 350 364 328 328 300 328 c 0
300 505 m 0
 272 505 250 542 250 589 c 0
 250 636 272 672 300 672 c 0
 328 672 350 636 350 589 c 0
 350 542 328 505 300 505 c 0
EndSplineSet
EndChar

StartChar: L
Encoding: 76 76 11
Width: 667
VWidth: -334
UnlinkRmOvrlpSave: 1
Flags: HW
HStem: 149 167<16.228 83.772> 328 167<16.228 83.772> 505 167<16.228 83.772> 684 167<16.228 84.0312 99.8125 166.614 183.386 250.188 265.969 334.031 349.812 416.614 433.386 500.188 515.969 583.772>
VStem: 0 100<163.186 302.131 341.869 480.814 519.186 658.131>
LayerCount: 2
Fore
SplineSet
50 149 m 0
 22 149 0 186 0 233 c 0
 0 280 22 316 50 316 c 0
 78 316 100 280 100 233 c 0
 100 186 78 149 50 149 c 0
50 328 m 0
 22 328 0 364 0 411 c 0
 0 458 22 495 50 495 c 0
 78 495 100 458 100 411 c 0
 100 364 78 328 50 328 c 0
50 505 m 0
 22 505 0 542 0 589 c 0
 0 636 22 672 50 672 c 0
 78 672 100 636 100 589 c 0
 100 542 78 505 50 505 c 0
50 684 m 1
 22 684 0 720 0 767 c 0
 0 814 22 851 50 851 c 0
 67 851 83 836 92 814 c 1
 101 836 116 851 133 851 c 1
 151 851 166 835 175 812 c 1
 184 835 199 851 217 851 c 0
 234 851 249 836 258 814 c 1
 267 836 283 851 300 851 c 1
 317 851 333 836 342 814 c 1
 351 836 366 851 383 851 c 0
 401 851 416 835 425 812 c 1
 434 835 449 851 467 851 c 0
 484 851 499 836 508 814 c 1
 517 836 533 851 550 851 c 0
 578 851 600 814 600 767 c 0
 600 720 578 684 550 684 c 0
 533 684 517 698 508 720 c 1
 499 698 484 684 467 684 c 0
 449 684 434 699 425 722 c 1
 416 699 401 684 383 684 c 0
 366 684 351 698 342 720 c 1
 333 698 317 684 300 684 c 0
 283 684 267 698 258 720 c 1
 249 698 234 684 217 684 c 1
 199 684 184 699 175 722 c 1
 166 699 151 684 133 684 c 0
 116 684 101 698 92 720 c 1
 83 698 67 684 50 684 c 1
EndSplineSet
EndChar

StartChar: P
Encoding: 80 80 12
Width: 667
VWidth: -334
UnlinkRmOvrlpSave: 1
Flags: HW
HStem: 149 167<349.228 416.614 433.386 500.772> 328 167<266.228 333.772 516.228 583.772> 505 167<266.228 333.772 516.228 583.772> 684 167<16.228 84.0312 99.8125 166.614 183.386 250.188 265.969 334.031 349.812 416.614 433.386 500.188 515.969 583.772>
VStem: 250 100<341.869 480.814 519.186 658.131> 333 184<189.173 276.554> 500 100<341.869 480.814 519.186 658.131>
LayerCount: 2
Fore
SplineSet
50 684 m 1xf2
 22 684 0 720 0 767 c 0
 0 814 22 851 50 851 c 0
 67 851 83 836 92 814 c 1
 101 836 116 851 133 851 c 1
 151 851 166 835 175 812 c 1
 184 835 199 851 217 851 c 0
 234 851 249 836 258 814 c 1
 267 836 283 851 300 851 c 1
 317 851 333 836 342 814 c 1
 351 836 366 851 383 851 c 0
 401 851 416 835 425 812 c 1
 434 835 449 851 467 851 c 0
 484 851 499 836 508 814 c 1
 517 836 533 851 550 851 c 0
 578 851 600 814 600 767 c 0
 600 720 578 684 550 684 c 0
 533 684 517 698 508 720 c 1
 499 698 484 684 467 684 c 0
 449 684 434 699 425 722 c 1
 416 699 401 684 383 684 c 0
 366 684 351 698 342 720 c 1
 333 698 317 684 300 684 c 0
 283 684 267 698 258 720 c 1
 249 698 234 684 217 684 c 1
 199 684 184 699 175 722 c 1
 166 699 151 684 133 684 c 0
 116 684 101 698 92 720 c 1
 83 698 67 684 50 684 c 1xf2
300 328 m 0
 272 328 250 364 250 411 c 0
 250 458 272 495 300 495 c 0
 328 495 350 458 350 411 c 0xf8
 350 364 328 328 300 328 c 0
300 505 m 0
 272 505 250 542 250 589 c 0
 250 636 272 672 300 672 c 0
 328 672 350 636 350 589 c 0
 350 542 328 505 300 505 c 0
383 149 m 0
 355 149 333 186 333 233 c 0
 333 280 355 316 383 316 c 0
 401 316 416 301 425 278 c 1
 434 301 449 316 467 316 c 0
 495 316 517 280 517 233 c 0xf4
 517 186 495 149 467 149 c 0
 449 149 434 165 425 188 c 1
 416 165 401 149 383 149 c 0
550 328 m 0
 522 328 500 364 500 411 c 0
 500 458 522 495 550 495 c 0
 578 495 600 458 600 411 c 0xf2
 600 364 578 328 550 328 c 0
550 505 m 0
 522 505 500 542 500 589 c 0
 500 636 522 672 550 672 c 0
 578 672 600 636 600 589 c 0
 600 542 578 505 550 505 c 0
EndSplineSet
EndChar

StartChar: T
Encoding: 84 84 13
Width: 667
VWidth: -334
UnlinkRmOvrlpSave: 1
Flags: HW
HStem: 149 167<516.228 583.772> 328 167<516.228 583.772> 416 168<16.228 84.0312 99.8125 166.614 183.386 250.188 265.969 334.031 349.812 416.614 433.386 501.365> 505 167<516.228 583.772> 684 167<516.228 583.772>
VStem: 500 100<163.186 302.131 341.869 442.531 557.469 658.131 697.869 836.814>
LayerCount: 2
Fore
SplineSet
50 416 m 0xac
 22 416 0 453 0 500 c 0
 0 547 22 584 50 584 c 0
 67 584 83 569 92 547 c 1
 101 569 116 584 133 584 c 1
 151 584 166 568 175 545 c 1
 184 568 199 584 217 584 c 0
 234 584 249 569 258 547 c 1
 267 569 283 584 300 584 c 1
 317 584 333 569 342 547 c 1
 351 569 366 584 383 584 c 0
 401 584 416 568 425 545 c 1
 434 568 449 584 467 584 c 0xac
 482 584 495 574 504 557 c 1
 502 567 500 577 500 589 c 0
 500 636 522 672 550 672 c 0
 578 672 600 636 600 589 c 0
 600 542 578 505 550 505 c 0
 535 505 522 515 513 532 c 1
 515 522 517 512 517 500 c 0
 517 488 515 478 513 468 c 1
 522 485 535 495 550 495 c 1
 578 495 600 458 600 411 c 0
 600 364 578 328 550 328 c 0xdc
 522 328 500 364 500 411 c 0
 500 423 502 433 504 443 c 1
 495 426 482 416 467 416 c 1
 449 416 434 432 425 455 c 1
 416 432 401 416 383 416 c 0
 366 416 351 431 342 453 c 1
 333 431 317 416 300 416 c 0
 283 416 267 431 258 453 c 1
 249 431 234 416 217 416 c 0
 199 416 184 432 175 455 c 1
 166 432 151 416 133 416 c 1
 116 416 101 431 92 453 c 1
 83 431 67 416 50 416 c 0xac
550 149 m 0
 522 149 500 186 500 233 c 0
 500 280 522 316 550 316 c 0
 578 316 600 280 600 233 c 0
 600 186 578 149 550 149 c 0
550 684 m 0
 522 684 500 720 500 767 c 0
 500 814 522 851 550 851 c 0
 578 851 600 814 600 767 c 0
 600 720 578 684 550 684 c 0
EndSplineSet
EndChar

StartChar: X
Encoding: 88 88 14
Width: 667
VWidth: -334
UnlinkRmOvrlpSave: 1
Flags: HW
HStem: 149 167<16.228 83.772 516.228 583.772> 238 167<99.228 167.274 432.726 500.772> 328 167<183.228 250.772 349.228 416.772> 505 167<183.228 250.772 349.228 416.772> 595 167<99.228 167.274 432.726 500.772> 684 167<16.228 83.772 516.228 583.772>
VStem: 0 100<163.186 264.531 735.469 836.814> 83 100<290.468 362.435 637.565 709.532> 167 100<370.564 442.531 557.469 629.436> 250 100<468 532> 333 100<370.564 442.531 557.469 629.436> 417 100<290.468 362.435 637.565 709.532> 500 100<163.186 264.531 735.469 836.814>
LayerCount: 2
Fore
SplineSet
50 149 m 0x82
 22 149 0 186 0 233 c 0x82
 0 280 22 316 50 316 c 0
 65 316 78 307 87 290 c 1
 85 300 83 309 83 321 c 0x81
 83 368 105 405 133 405 c 0
 150 405 165 392 174 370 c 1
 170 382 167 396 167 411 c 0x4080
 167 458 189 495 217 495 c 0
 232 495 245 485 254 468 c 1
 252 478 250 488 250 500 c 0x2040
 250 512 252 522 254 532 c 1
 245 515 232 505 217 505 c 0
 189 505 167 542 167 589 c 0x3080
 167 604 170 618 174 630 c 1
 165 608 150 595 133 595 c 0
 105 595 83 632 83 679 c 0x09
 83 691 85 700 87 710 c 1
 78 693 65 684 50 684 c 0
 22 684 0 720 0 767 c 0
 0 814 22 851 50 851 c 0
 78 851 100 814 100 767 c 0x06
 100 755 98 745 96 735 c 1
 105 752 118 762 133 762 c 0
 161 762 183 726 183 679 c 0x09
 183 664 180 649 176 637 c 1
 185 659 200 672 217 672 c 0
 245 672 267 636 267 589 c 0
 267 577 265 567 263 557 c 1
 272 574 285 584 300 584 c 0
 315 584 328 574 337 557 c 1
 335 567 333 577 333 589 c 0
 333 636 355 672 383 672 c 0x10a0
 400 672 415 659 424 637 c 1
 420 649 417 664 417 679 c 0
 417 726 439 762 467 762 c 0x0810
 482 762 495 752 504 735 c 1
 502 745 500 755 500 767 c 0
 500 814 522 851 550 851 c 0
 578 851 600 814 600 767 c 0x0408
 600 720 578 684 550 684 c 0
 535 684 522 693 513 710 c 1
 515 700 517 691 517 679 c 0x0410
 517 632 495 595 467 595 c 0
 450 595 435 608 426 630 c 1
 430 618 433 604 433 589 c 0x0820
 433 542 411 505 383 505 c 0
 368 505 355 515 346 532 c 1
 348 522 350 512 350 500 c 0x1040
 350 488 348 478 346 468 c 1
 355 485 368 495 383 495 c 1
 411 495 433 458 433 411 c 0x3020
 433 396 430 382 426 370 c 1
 435 392 450 405 467 405 c 1
 495 405 517 368 517 321 c 0x4010
 517 309 515 300 513 290 c 1
 522 307 535 316 550 316 c 1
 578 316 600 280 600 233 c 0
 600 186 578 149 550 149 c 0
 522 149 500 186 500 233 c 0x8008
 500 245 502 255 504 265 c 1
 495 248 482 238 467 238 c 1
 439 238 417 274 417 321 c 0x4010
 417 336 420 351 424 363 c 1
 415 341 400 328 383 328 c 1
 355 328 333 364 333 411 c 0
 333 423 335 433 337 443 c 1
 328 426 315 416 300 416 c 1
 285 416 272 426 263 443 c 1
 265 433 267 423 267 411 c 0
 267 364 245 328 217 328 c 0x20a0
 200 328 185 341 176 363 c 1
 180 351 183 336 183 321 c 0
 183 274 161 238 133 238 c 0x41
 118 238 105 248 96 265 c 1
 98 255 100 245 100 233 c 0
 100 186 78 149 50 149 c 0x82
EndSplineSet
EndChar

StartChar: backslash
Encoding: 92 92 15
Width: 667
VWidth: -334
UnlinkRmOvrlpSave: 1
Flags: HW
HStem: 149 167<16.228 83.772> 238 167<99.228 167.274> 328 167<183.228 250.772> 416 168<266.228 333.772> 505 167<349.228 416.772> 595 167<432.726 500.772> 684 167<516.228 583.772>
VStem: 0 100<163.186 264.531> 83 100<290.468 362.435> 167 100<370.564 442.531> 250 100<468.469 531.531> 333 100<557.469 629.436> 417 100<637.565 709.532> 500 100<735.469 836.814>
LayerCount: 2
Fore
SplineSet
50 149 m 0x81
 22 149 0 186 0 233 c 0
 0 280 22 316 50 316 c 0x81
 65 316 78 307 87 290 c 1
 85 300 83 309 83 321 c 0
 83 368 105 405 133 405 c 0x4080
 150 405 165 392 174 370 c 1
 170 382 167 396 167 411 c 0
 167 458 189 495 217 495 c 0x2040
 232 495 245 485 254 468 c 1
 252 478 250 488 250 500 c 0
 250 547 272 584 300 584 c 0x1020
 315 584 328 574 337 557 c 1
 335 567 333 577 333 589 c 0
 333 636 355 672 383 672 c 0x0810
 400 672 415 659 424 637 c 1
 420 649 417 664 417 679 c 0
 417 726 439 762 467 762 c 0x0408
 482 762 495 752 504 735 c 1
 502 745 500 755 500 767 c 0
 500 814 522 851 550 851 c 0
 578 851 600 814 600 767 c 0
 600 720 578 684 550 684 c 0x0204
 535 684 522 693 513 710 c 1
 515 700 517 691 517 679 c 0
 517 632 495 595 467 595 c 0x0408
 450 595 435 608 426 630 c 1
 430 618 433 604 433 589 c 0
 433 542 411 505 383 505 c 0x0810
 368 505 355 515 346 532 c 1
 348 522 350 512 350 500 c 0
 350 453 328 416 300 416 c 0x1020
 285 416 272 426 263 443 c 1
 265 433 267 423 267 411 c 0
 267 364 245 328 217 328 c 0x2040
 200 328 185 341 176 363 c 1
 180 351 183 336 183 321 c 0
 183 274 161 238 133 238 c 0x4080
 118 238 105 248 96 265 c 1
 98 255 100 245 100 233 c 0
 100 186 78 149 50 149 c 0x81
EndSplineSet
EndChar

StartChar: grave
Encoding: 96 96 16
Width: 667
VWidth: -334
UnlinkRmOvrlpSave: 1
Flags: HW
HStem: 149 167<266.228 334.031 349.812 416.614 433.386 500.772> 238 167<16.228 83.772 183.228 250.772 516.228 583.772> 416 168<16.228 83.772 183.228 250.188 265.969 333.772 516.228 583.772> 595 167<16.228 83.772 516.228 583.772> 684 167<99.228 166.614 183.386 250.188 265.969 334.031 349.812 416.614 433.386 500.772>
VStem: 0 100<251.869 390.814 430.186 569.814 609.186 709.532> 167 183<468.949 545.544> 167 100<290.468 390.814> 250 267<189.173 264.531> 333 100<341.869 442.531> 500 100<290.468 390.814 430.186 569.814 609.186 709.532>
LayerCount: 2
Fore
SplineSet
50 238 m 0x64
 22 238 0 274 0 321 c 0
 0 368 22 405 50 405 c 0
 78 405 100 368 100 321 c 0
 100 274 78 238 50 238 c 0x64
50 416 m 0
 22 416 0 453 0 500 c 0
 0 547 22 584 50 584 c 0
 78 584 100 547 100 500 c 0
 100 453 78 416 50 416 c 0
50 595 m 0x3420
 22 595 0 632 0 679 c 0
 0 726 22 762 50 762 c 0x3420
 65 762 78 752 87 735 c 1
 85 745 83 755 83 767 c 0
 83 814 105 851 133 851 c 0
 151 851 166 835 175 812 c 1
 184 835 199 851 217 851 c 0
 234 851 249 836 258 814 c 1
 267 836 283 851 300 851 c 1
 317 851 333 836 342 814 c 1
 351 836 366 851 383 851 c 0
 401 851 416 835 425 812 c 1
 434 835 449 851 467 851 c 0
 495 851 517 814 517 767 c 0x2c80
 517 755 515 745 513 735 c 1
 522 752 535 762 550 762 c 0
 578 762 600 726 600 679 c 0
 600 632 578 595 550 595 c 0x3420
 522 595 500 632 500 679 c 0
 500 691 502 700 504 710 c 1
 495 693 482 684 467 684 c 0
 449 684 434 699 425 722 c 1
 416 699 401 684 383 684 c 0
 366 684 351 698 342 720 c 1
 333 698 317 684 300 684 c 0
 283 684 267 698 258 720 c 1
 249 698 234 684 217 684 c 1
 199 684 184 699 175 722 c 1
 166 699 151 684 133 684 c 0x2c20
 118 684 105 693 96 710 c 1
 98 700 100 691 100 679 c 0
 100 632 78 595 50 595 c 0x3420
217 238 m 1x6480
 189 238 167 274 167 321 c 0
 167 368 189 405 217 405 c 0x65
 245 405 267 368 267 321 c 0
 267 309 265 300 263 290 c 1
 272 307 285 316 300 316 c 1
 317 316 333 302 342 280 c 1
 351 302 366 316 383 316 c 0
 401 316 416 301 425 278 c 1
 434 301 449 316 467 316 c 0xa5
 482 316 495 307 504 290 c 1
 502 300 500 309 500 321 c 0
 500 368 522 405 550 405 c 0
 578 405 600 368 600 321 c 0
 600 274 578 238 550 238 c 0x6520
 535 238 522 248 513 265 c 1
 515 255 517 245 517 233 c 0
 517 186 495 149 467 149 c 0
 449 149 434 165 425 188 c 1
 416 165 401 149 383 149 c 0
 366 149 351 164 342 186 c 1
 333 164 317 149 300 149 c 0xa480
 272 149 250 186 250 233 c 0
 250 245 252 255 254 265 c 1
 245 248 232 238 217 238 c 1x6480
217 416 m 0
 189 416 167 453 167 500 c 0
 167 547 189 584 217 584 c 0
 234 584 249 569 258 547 c 1
 267 569 283 584 300 584 c 1
 328 584 350 547 350 500 c 0x26
 350 488 348 478 346 468 c 1
 355 485 368 495 383 495 c 1
 411 495 433 458 433 411 c 0
 433 364 411 328 383 328 c 0
 355 328 333 364 333 411 c 0x2440
 333 423 335 433 337 443 c 1
 328 426 315 416 300 416 c 1
 283 416 267 431 258 453 c 1
 249 431 234 416 217 416 c 0
550 416 m 0
 522 416 500 453 500 500 c 0
 500 547 522 584 550 584 c 0
 578 584 600 547 600 500 c 0x2420
 600 453 578 416 550 416 c 0
EndSplineSet
EndChar

StartChar: d
Encoding: 100 100 17
Width: 667
VWidth: -334
UnlinkRmOvrlpSave: 1
Flags: HW
HStem: 149 167<99.228 166.614 183.386 250.188 265.969 334.031 349.812 416.614 433.386 500.772> 328 167<16.228 83.772 516.228 583.772> 505 167<16.228 83.772 516.228 583.772> 595 167<99.0941 166.614 183.386 250.188 265.969 334.031 349.812 416.614 433.386 500.906> 684 167<16.228 83.772 516.228 583.772>
VStem: 0 100<341.869 480.814 519.186 623.53 735.469 836.814> 500 100<341.869 480.814 519.186 623.53 735.469 836.814>
LayerCount: 2
Fore
SplineSet
50 328 m 0xc6
 22 328 0 364 0 411 c 0
 0 458 22 495 50 495 c 0
 78 495 100 458 100 411 c 0
 100 364 78 328 50 328 c 0xc6
50 505 m 0xe6
 22 505 0 542 0 589 c 0
 0 636 22 672 50 672 c 0
 65 672 79 661 88 644 c 1
 85 654 83 666 83 679 c 0
 83 691 85 700 87 710 c 1
 78 693 65 684 50 684 c 0
 22 684 0 720 0 767 c 0
 0 814 22 851 50 851 c 0xee
 78 851 100 814 100 767 c 0
 100 755 98 745 96 735 c 1
 105 752 118 762 133 762 c 0
 151 762 166 747 175 724 c 1
 184 747 199 762 217 762 c 0
 234 762 249 747 258 725 c 1
 267 747 283 762 300 762 c 1
 317 762 333 747 342 725 c 1
 351 747 366 762 383 762 c 0
 401 762 416 747 425 724 c 1
 434 747 449 762 467 762 c 0xd6
 482 762 495 752 504 735 c 1
 502 745 500 755 500 767 c 0
 500 814 522 851 550 851 c 0
 578 851 600 814 600 767 c 0
 600 720 578 684 550 684 c 0
 535 684 522 693 513 710 c 1
 515 700 517 691 517 679 c 0
 517 666 515 654 512 644 c 1
 521 661 535 672 550 672 c 1
 578 672 600 636 600 589 c 0
 600 542 578 505 550 505 c 0xee
 522 505 500 542 500 589 c 0
 500 602 502 614 505 624 c 1
 496 607 482 595 467 595 c 1
 449 595 434 611 425 634 c 1
 416 611 401 595 383 595 c 0
 366 595 351 610 342 632 c 1
 333 610 317 595 300 595 c 0
 283 595 267 610 258 632 c 1
 249 610 234 595 217 595 c 1
 199 595 184 611 175 634 c 1
 166 611 151 595 133 595 c 0xd6
 118 595 104 607 95 624 c 1
 98 614 100 602 100 589 c 0
 100 542 78 505 50 505 c 0xe6
133 149 m 1
 105 149 83 186 83 233 c 0
 83 280 105 316 133 316 c 0
 151 316 166 301 175 278 c 1
 184 301 199 316 217 316 c 1
 234 316 249 302 258 280 c 1
 267 302 283 316 300 316 c 0
 317 316 333 302 342 280 c 1
 351 302 366 316 383 316 c 0
 401 316 416 301 425 278 c 1
 434 301 449 316 467 316 c 0
 495 316 517 280 517 233 c 0
 517 186 495 149 467 149 c 0
 449 149 434 165 425 188 c 1
 416 165 401 149 383 149 c 0
 366 149 351 164 342 186 c 1
 333 164 317 149 300 149 c 0
 283 149 267 164 258 186 c 1
 249 164 234 149 217 149 c 0
 199 149 184 165 175 188 c 1
 166 165 151 149 133 149 c 1
550 328 m 0
 522 328 500 364 500 411 c 0
 500 458 522 495 550 495 c 0
 578 495 600 458 600 411 c 0
 600 364 578 328 550 328 c 0
EndSplineSet
EndChar

StartChar: h
Encoding: 104 104 18
Width: 667
VWidth: -334
UnlinkRmOvrlpSave: 1
Flags: HW
HStem: 149 167<16.228 84.0312 99.8125 166.614 183.386 250.188 265.969 334.031 349.812 416.614 433.386 500.188 515.969 583.772> 328 167<266.228 333.772> 505 167<266.228 333.772> 684 167<16.228 84.0312 99.8125 166.614 183.386 250.188 265.969 334.031 349.812 416.614 433.386 500.188 515.969 583.772>
VStem: 250 100<341.869 480.814 519.186 658.131>
LayerCount: 2
Fore
SplineSet
50 149 m 0
 22 149 0 186 0 233 c 0
 0 280 22 316 50 316 c 0
 67 316 83 302 92 280 c 1
 101 302 116 316 133 316 c 0
 151 316 166 301 175 278 c 1
 184 301 199 316 217 316 c 1
 234 316 249 302 258 280 c 1
 267 302 283 316 300 316 c 0
 317 316 333 302 342 280 c 1
 351 302 366 316 383 316 c 0
 401 316 416 301 425 278 c 1
 434 301 449 316 467 316 c 0
 484 316 499 302 508 280 c 1
 517 302 533 316 550 316 c 0
 578 316 600 280 600 233 c 0
 600 186 578 149 550 149 c 0
 533 149 517 164 508 186 c 1
 499 164 484 149 467 149 c 0
 449 149 434 165 425 188 c 1
 416 165 401 149 383 149 c 0
 366 149 351 164 342 186 c 1
 333 164 317 149 300 149 c 0
 283 149 267 164 258 186 c 1
 249 164 234 149 217 149 c 0
 199 149 184 165 175 188 c 1
 166 165 151 149 133 149 c 1
 116 149 101 164 92 186 c 1
 83 164 67 149 50 149 c 0
50 684 m 1
 22 684 0 720 0 767 c 0
 0 814 22 851 50 851 c 0
 67 851 83 836 92 814 c 1
 101 836 116 851 133 851 c 1
 151 851 166 835 175 812 c 1
 184 835 199 851 217 851 c 0
 234 851 249 836 258 814 c 1
 267 836 283 851 300 851 c 1
 317 851 333 836 342 814 c 1
 351 836 366 851 383 851 c 0
 401 851 416 835 425 812 c 1
 434 835 449 851 467 851 c 0
 484 851 499 836 508 814 c 1
 517 836 533 851 550 851 c 0
 578 851 600 814 600 767 c 0
 600 720 578 684 550 684 c 0
 533 684 517 698 508 720 c 1
 499 698 484 684 467 684 c 0
 449 684 434 699 425 722 c 1
 416 699 401 684 383 684 c 0
 366 684 351 698 342 720 c 1
 333 698 317 684 300 684 c 0
 283 684 267 698 258 720 c 1
 249 698 234 684 217 684 c 1
 199 684 184 699 175 722 c 1
 166 699 151 684 133 684 c 0
 116 684 101 698 92 720 c 1
 83 698 67 684 50 684 c 1
300 328 m 0
 272 328 250 364 250 411 c 0
 250 458 272 495 300 495 c 0
 328 495 350 458 350 411 c 0
 350 364 328 328 300 328 c 0
300 505 m 0
 272 505 250 542 250 589 c 0
 250 636 272 672 300 672 c 0
 328 672 350 636 350 589 c 0
 350 542 328 505 300 505 c 0
EndSplineSet
EndChar

StartChar: l
Encoding: 108 108 19
Width: 667
VWidth: -334
UnlinkRmOvrlpSave: 1
Flags: HW
HStem: 149 167<16.228 83.772> 328 167<16.228 83.772> 505 167<16.228 83.772> 684 167<16.228 84.0312 99.8125 166.614 183.386 250.188 265.969 334.031 349.812 416.614 433.386 500.188 515.969 583.772>
VStem: 0 100<163.186 302.131 341.869 480.814 519.186 658.131>
LayerCount: 2
Fore
SplineSet
50 149 m 0
 22 149 0 186 0 233 c 0
 0 280 22 316 50 316 c 0
 78 316 100 280 100 233 c 0
 100 186 78 149 50 149 c 0
50 328 m 0
 22 328 0 364 0 411 c 0
 0 458 22 495 50 495 c 0
 78 495 100 458 100 411 c 0
 100 364 78 328 50 328 c 0
50 505 m 0
 22 505 0 542 0 589 c 0
 0 636 22 672 50 672 c 0
 78 672 100 636 100 589 c 0
 100 542 78 505 50 505 c 0
50 684 m 1
 22 684 0 720 0 767 c 0
 0 814 22 851 50 851 c 0
 67 851 83 836 92 814 c 1
 101 836 116 851 133 851 c 1
 151 851 166 835 175 812 c 1
 184 835 199 851 217 851 c 0
 234 851 249 836 258 814 c 1
 267 836 283 851 300 851 c 1
 317 851 333 836 342 814 c 1
 351 836 366 851 383 851 c 0
 401 851 416 835 425 812 c 1
 434 835 449 851 467 851 c 0
 484 851 499 836 508 814 c 1
 517 836 533 851 550 851 c 0
 578 851 600 814 600 767 c 0
 600 720 578 684 550 684 c 0
 533 684 517 698 508 720 c 1
 499 698 484 684 467 684 c 0
 449 684 434 699 425 722 c 1
 416 699 401 684 383 684 c 0
 366 684 351 698 342 720 c 1
 333 698 317 684 300 684 c 0
 283 684 267 698 258 720 c 1
 249 698 234 684 217 684 c 1
 199 684 184 699 175 722 c 1
 166 699 151 684 133 684 c 0
 116 684 101 698 92 720 c 1
 83 698 67 684 50 684 c 1
EndSplineSet
EndChar

StartChar: p
Encoding: 112 112 20
Width: 667
VWidth: -334
UnlinkRmOvrlpSave: 1
Flags: HW
HStem: 149 167<349.228 416.614 433.386 500.772> 328 167<266.228 333.772 516.228 583.772> 505 167<266.228 333.772 516.228 583.772> 684 167<16.228 84.0312 99.8125 166.614 183.386 250.188 265.969 334.031 349.812 416.614 433.386 500.188 515.969 583.772>
VStem: 250 100<341.869 480.814 519.186 658.131> 333 184<189.173 276.554> 500 100<341.869 480.814 519.186 658.131>
LayerCount: 2
Fore
SplineSet
50 684 m 1xf2
 22 684 0 720 0 767 c 0
 0 814 22 851 50 851 c 0
 67 851 83 836 92 814 c 1
 101 836 116 851 133 851 c 1
 151 851 166 835 175 812 c 1
 184 835 199 851 217 851 c 0
 234 851 249 836 258 814 c 1
 267 836 283 851 300 851 c 1
 317 851 333 836 342 814 c 1
 351 836 366 851 383 851 c 0
 401 851 416 835 425 812 c 1
 434 835 449 851 467 851 c 0
 484 851 499 836 508 814 c 1
 517 836 533 851 550 851 c 0
 578 851 600 814 600 767 c 0
 600 720 578 684 550 684 c 0
 533 684 517 698 508 720 c 1
 499 698 484 684 467 684 c 0
 449 684 434 699 425 722 c 1
 416 699 401 684 383 684 c 0
 366 684 351 698 342 720 c 1
 333 698 317 684 300 684 c 0
 283 684 267 698 258 720 c 1
 249 698 234 684 217 684 c 1
 199 684 184 699 175 722 c 1
 166 699 151 684 133 684 c 0
 116 684 101 698 92 720 c 1
 83 698 67 684 50 684 c 1xf2
300 328 m 0
 272 328 250 364 250 411 c 0
 250 458 272 495 300 495 c 0
 328 495 350 458 350 411 c 0xf8
 350 364 328 328 300 328 c 0
300 505 m 0
 272 505 250 542 250 589 c 0
 250 636 272 672 300 672 c 0
 328 672 350 636 350 589 c 0
 350 542 328 505 300 505 c 0
383 149 m 0
 355 149 333 186 333 233 c 0
 333 280 355 316 383 316 c 0
 401 316 416 301 425 278 c 1
 434 301 449 316 467 316 c 0
 495 316 517 280 517 233 c 0xf4
 517 186 495 149 467 149 c 0
 449 149 434 165 425 188 c 1
 416 165 401 149 383 149 c 0
550 328 m 0
 522 328 500 364 500 411 c 0
 500 458 522 495 550 495 c 0
 578 495 600 458 600 411 c 0xf2
 600 364 578 328 550 328 c 0
550 505 m 0
 522 505 500 542 500 589 c 0
 500 636 522 672 550 672 c 0
 578 672 600 636 600 589 c 0
 600 542 578 505 550 505 c 0
EndSplineSet
EndChar

StartChar: t
Encoding: 116 116 21
Width: 667
VWidth: -334
UnlinkRmOvrlpSave: 1
Flags: HW
HStem: 149 167<516.228 583.772> 328 167<516.228 583.772> 416 168<16.228 84.0312 99.8125 166.614 183.386 250.188 265.969 334.031 349.812 416.614 433.386 501.365> 505 167<516.228 583.772> 684 167<516.228 583.772>
VStem: 500 100<163.186 302.131 341.869 442.531 557.469 658.131 697.869 836.814>
LayerCount: 2
Fore
SplineSet
50 416 m 0xac
 22 416 0 453 0 500 c 0
 0 547 22 584 50 584 c 0
 67 584 83 569 92 547 c 1
 101 569 116 584 133 584 c 1
 151 584 166 568 175 545 c 1
 184 568 199 584 217 584 c 0
 234 584 249 569 258 547 c 1
 267 569 283 584 300 584 c 1
 317 584 333 569 342 547 c 1
 351 569 366 584 383 584 c 0
 401 584 416 568 425 545 c 1
 434 568 449 584 467 584 c 0xac
 482 584 495 574 504 557 c 1
 502 567 500 577 500 589 c 0
 500 636 522 672 550 672 c 0
 578 672 600 636 600 589 c 0
 600 542 578 505 550 505 c 0
 535 505 522 515 513 532 c 1
 515 522 517 512 517 500 c 0
 517 488 515 478 513 468 c 1
 522 485 535 495 550 495 c 1
 578 495 600 458 600 411 c 0
 600 364 578 328 550 328 c 0xdc
 522 328 500 364 500 411 c 0
 500 423 502 433 504 443 c 1
 495 426 482 416 467 416 c 1
 449 416 434 432 425 455 c 1
 416 432 401 416 383 416 c 0
 366 416 351 431 342 453 c 1
 333 431 317 416 300 416 c 0
 283 416 267 431 258 453 c 1
 249 431 234 416 217 416 c 0
 199 416 184 432 175 455 c 1
 166 432 151 416 133 416 c 1
 116 416 101 431 92 453 c 1
 83 431 67 416 50 416 c 0xac
550 149 m 0
 522 149 500 186 500 233 c 0
 500 280 522 316 550 316 c 0
 578 316 600 280 600 233 c 0
 600 186 578 149 550 149 c 0
550 684 m 0
 522 684 500 720 500 767 c 0
 500 814 522 851 550 851 c 0
 578 851 600 814 600 767 c 0
 600 720 578 684 550 684 c 0
EndSplineSet
EndChar

StartChar: x
Encoding: 120 120 22
Width: 667
VWidth: -334
UnlinkRmOvrlpSave: 1
Flags: HW
HStem: 149 167<16.228 83.772 516.228 583.772> 238 167<99.228 167.274 432.726 500.772> 328 167<183.228 250.772 349.228 416.772> 505 167<183.228 250.772 349.228 416.772> 595 167<99.228 167.274 432.726 500.772> 684 167<16.228 83.772 516.228 583.772>
VStem: 0 100<163.186 264.531 735.469 836.814> 83 100<290.468 362.435 637.565 709.532> 167 100<370.564 442.531 557.469 629.436> 250 100<468 532> 333 100<370.564 442.531 557.469 629.436> 417 100<290.468 362.435 637.565 709.532> 500 100<163.186 264.531 735.469 836.814>
LayerCount: 2
Fore
SplineSet
50 149 m 0x82
 22 149 0 186 0 233 c 0x82
 0 280 22 316 50 316 c 0
 65 316 78 307 87 290 c 1
 85 300 83 309 83 321 c 0x81
 83 368 105 405 133 405 c 0
 150 405 165 392 174 370 c 1
 170 382 167 396 167 411 c 0x4080
 167 458 189 495 217 495 c 0
 232 495 245 485 254 468 c 1
 252 478 250 488 250 500 c 0x2040
 250 512 252 522 254 532 c 1
 245 515 232 505 217 505 c 0
 189 505 167 542 167 589 c 0x3080
 167 604 170 618 174 630 c 1
 165 608 150 595 133 595 c 0
 105 595 83 632 83 679 c 0x09
 83 691 85 700 87 710 c 1
 78 693 65 684 50 684 c 0
 22 684 0 720 0 767 c 0
 0 814 22 851 50 851 c 0
 78 851 100 814 100 767 c 0x06
 100 755 98 745 96 735 c 1
 105 752 118 762 133 762 c 0
 161 762 183 726 183 679 c 0x09
 183 664 180 649 176 637 c 1
 185 659 200 672 217 672 c 0
 245 672 267 636 267 589 c 0
 267 577 265 567 263 557 c 1
 272 574 285 584 300 584 c 0
 315 584 328 574 337 557 c 1
 335 567 333 577 333 589 c 0
 333 636 355 672 383 672 c 0x10a0
 400 672 415 659 424 637 c 1
 420 649 417 664 417 679 c 0
 417 726 439 762 467 762 c 0x0810
 482 762 495 752 504 735 c 1
 502 745 500 755 500 767 c 0
 500 814 522 851 550 851 c 0
 578 851 600 814 600 767 c 0x0408
 600 720 578 684 550 684 c 0
 535 684 522 693 513 710 c 1
 515 700 517 691 517 679 c 0x0410
 517 632 495 595 467 595 c 0
 450 595 435 608 426 630 c 1
 430 618 433 604 433 589 c 0x0820
 433 542 411 505 383 505 c 0
 368 505 355 515 346 532 c 1
 348 522 350 512 350 500 c 0x1040
 350 488 348 478 346 468 c 1
 355 485 368 495 383 495 c 1
 411 495 433 458 433 411 c 0x3020
 433 396 430 382 426 370 c 1
 435 392 450 405 467 405 c 1
 495 405 517 368 517 321 c 0x4010
 517 309 515 300 513 290 c 1
 522 307 535 316 550 316 c 1
 578 316 600 280 600 233 c 0
 600 186 578 149 550 149 c 0
 522 149 500 186 500 233 c 0x8008
 500 245 502 255 504 265 c 1
 495 248 482 238 467 238 c 1
 439 238 417 274 417 321 c 0x4010
 417 336 420 351 424 363 c 1
 415 341 400 328 383 328 c 1
 355 328 333 364 333 411 c 0
 333 423 335 433 337 443 c 1
 328 426 315 416 300 416 c 1
 285 416 272 426 263 443 c 1
 265 433 267 423 267 411 c 0
 267 364 245 328 217 328 c 0x20a0
 200 328 185 341 176 363 c 1
 180 351 183 336 183 321 c 0
 183 274 161 238 133 238 c 0x41
 118 238 105 248 96 265 c 1
 98 255 100 245 100 233 c 0
 100 186 78 149 50 149 c 0x82
EndSplineSet
EndChar

StartChar: bar
Encoding: 124 124 23
Width: 667
VWidth: -334
UnlinkRmOvrlpSave: 1
Flags: HW
HStem: 149 167<16.228 83.772> 238 167<99.228 167.274> 328 167<183.228 250.772> 416 168<266.228 333.772> 505 167<349.228 416.772> 595 167<432.726 500.772> 684 167<516.228 583.772>
VStem: 0 100<163.186 264.531> 83 100<290.468 362.435> 167 100<370.564 442.531> 250 100<468.469 531.531> 333 100<557.469 629.436> 417 100<637.565 709.532> 500 100<735.469 836.814>
LayerCount: 2
Fore
SplineSet
50 149 m 0x81
 22 149 0 186 0 233 c 0
 0 280 22 316 50 316 c 0x81
 65 316 78 307 87 290 c 1
 85 300 83 309 83 321 c 0
 83 368 105 405 133 405 c 0x4080
 150 405 165 392 174 370 c 1
 170 382 167 396 167 411 c 0
 167 458 189 495 217 495 c 0x2040
 232 495 245 485 254 468 c 1
 252 478 250 488 250 500 c 0
 250 547 272 584 300 584 c 0x1020
 315 584 328 574 337 557 c 1
 335 567 333 577 333 589 c 0
 333 636 355 672 383 672 c 0x0810
 400 672 415 659 424 637 c 1
 420 649 417 664 417 679 c 0
 417 726 439 762 467 762 c 0x0408
 482 762 495 752 504 735 c 1
 502 745 500 755 500 767 c 0
 500 814 522 851 550 851 c 0
 578 851 600 814 600 767 c 0
 600 720 578 684 550 684 c 0x0204
 535 684 522 693 513 710 c 1
 515 700 517 691 517 679 c 0
 517 632 495 595 467 595 c 0x0408
 450 595 435 608 426 630 c 1
 430 618 433 604 433 589 c 0
 433 542 411 505 383 505 c 0x0810
 368 505 355 515 346 532 c 1
 348 522 350 512 350 500 c 0
 350 453 328 416 300 416 c 0x1020
 285 416 272 426 263 443 c 1
 265 433 267 423 267 411 c 0
 267 364 245 328 217 328 c 0x2040
 200 328 185 341 176 363 c 1
 180 351 183 336 183 321 c 0
 183 274 161 238 133 238 c 0x4080
 118 238 105 248 96 265 c 1
 98 255 100 245 100 233 c 0
 100 186 78 149 50 149 c 0x81
EndSplineSet
EndChar

StartChar: three
Encoding: 51 51 28
Width: 667
VWidth: -334
UnlinkRmOvrlpSave: 1
Flags: HW
HStem: 149 167<99.228 166.614 183.386 250.772 516.228 583.772> 238 167<16.228 83.772 266.228 333.772 432.726 500.906> 328 167<348.635 416.772 516.228 583.772> 416 168<16.228 83.772 266.228 333.772> 505 167<516.228 583.772> 595 167<16.228 83.772> 684 167<99.228 166.772 516.228 583.772>
VStem: 0 100<290.468 390.814 430.186 569.814 609.186 709.532> 83 184<189.173 264.531> 83 100<735.469 836.814> 250 100<290.468 355.53 468.469 569.814> 333 100<376.47 442.531> 417 100<290.468 355.53> 500 100<163.186 264.531 376.47 480.814 519.186 658.131 697.869 836.814>
LayerCount: 2
Fore
SplineSet
50 238 m 1x4080
 22 238 0 274 0 321 c 0
 0 368 22 405 50 405 c 0x41
 78 405 100 368 100 321 c 0
 100 309 98 300 96 290 c 1
 105 307 118 316 133 316 c 1
 151 316 166 301 175 278 c 1
 184 301 199 316 217 316 c 1
 232 316 245 307 254 290 c 1
 252 300 250 309 250 321 c 0x8120
 250 368 272 405 300 405 c 0
 315 405 329 393 338 376 c 1
 335 386 333 398 333 411 c 0x4010
 333 423 335 433 337 443 c 1
 328 426 315 416 300 416 c 1
 272 416 250 453 250 500 c 0
 250 547 272 584 300 584 c 0x5020
 328 584 350 547 350 500 c 0
 350 488 348 478 346 468 c 1
 355 485 368 495 383 495 c 1x2020
 411 495 433 458 433 411 c 0
 433 396 430 382 426 370 c 1
 435 392 450 405 467 405 c 1x4010
 482 405 496 393 505 376 c 1
 502 386 500 398 500 411 c 0
 500 458 522 495 550 495 c 0
 578 495 600 458 600 411 c 0x2014
 600 364 578 328 550 328 c 0
 535 328 521 339 512 356 c 1
 515 346 517 334 517 321 c 0x2008
 517 309 515 300 513 290 c 1
 522 307 535 316 550 316 c 1
 578 316 600 280 600 233 c 0
 600 186 578 149 550 149 c 0xa004
 522 149 500 186 500 233 c 0
 500 245 502 255 504 265 c 1
 495 248 482 238 467 238 c 1x4004
 439 238 417 274 417 321 c 0
 417 336 420 351 424 363 c 1
 415 341 400 328 383 328 c 1x2008
 368 328 354 339 345 356 c 1
 348 346 350 334 350 321 c 0
 350 274 328 238 300 238 c 0x4028
 285 238 272 248 263 265 c 1
 265 255 267 245 267 233 c 0
 267 186 245 149 217 149 c 0
 199 149 184 165 175 188 c 1
 166 165 151 149 133 149 c 1x8080
 105 149 83 186 83 233 c 0
 83 245 85 255 87 265 c 1
 78 248 65 238 50 238 c 1x4080
50 416 m 0x11
 22 416 0 453 0 500 c 0
 0 547 22 584 50 584 c 0
 78 584 100 547 100 500 c 0
 100 453 78 416 50 416 c 0x11
50 595 m 0x05
 22 595 0 632 0 679 c 0
 0 726 22 762 50 762 c 0x05
 65 762 78 752 87 735 c 1
 85 745 83 755 83 767 c 0
 83 814 105 851 133 851 c 0
 161 851 183 814 183 767 c 0
 183 720 161 684 133 684 c 0x0240
 118 684 105 693 96 710 c 1
 98 700 100 691 100 679 c 0
 100 632 78 595 50 595 c 0x05
550 505 m 0x0804
 522 505 500 542 500 589 c 0
 500 636 522 672 550 672 c 0
 578 672 600 636 600 589 c 0
 600 542 578 505 550 505 c 0x0804
550 684 m 0x0204
 522 684 500 720 500 767 c 0
 500 814 522 851 550 851 c 0
 578 851 600 814 600 767 c 0
 600 720 578 684 550 684 c 0x0204
EndSplineSet
EndChar

StartChar: seven
Encoding: 55 55 29
Width: 667
VWidth: -334
UnlinkRmOvrlpSave: 1
Flags: HW
HStem: 149 167<433.228 500.188 515.969 583.772> 238 21G<369 391> 328 167<266.228 333.772 516.228 583.772> 505 167<99.228 165.878 516.228 583.772> 595 167<16.228 83.772> 684 167<516.228 583.772>
VStem: 0 100<644.47 748.131> 83 100<552 624> 167 100<468 537> 250 100<376 443> 333 100<285 356> 417 183<187.456 269.437> 500 100<341.869 480.814 519.186 658.131 697.869 836.814>
LayerCount: 2
Fore
SplineSet
50 595 m 1x29
 22 595 0 632 0 679 c 0
 0 726 22 762 50 762 c 0
 78 762 100 726 100 679 c 0x2a
 100 666 98 654 95 644 c 1
 104 661 118 672 133 672 c 1
 161 672 183 636 183 589 c 0x31
 183 576 181 564 178 552 c 1
 187 570 201 584 217 584 c 0
 245 584 267 547 267 500 c 0x3080
 267 488 265 478 263 468 c 1
 272 485 285 495 300 495 c 1
 328 495 350 458 350 411 c 0x3040
 350 398 348 386 345 376 c 1
 354 393 368 405 383 405 c 0
 411 405 433 368 433 321 c 0x3020
 433 308 431 297 428 285 c 1
 437 303 451 316 467 316 c 1
 484 316 499 302 508 280 c 1
 517 302 533 316 550 316 c 0
 578 316 600 280 600 233 c 0
 600 186 578 149 550 149 c 0
 533 149 517 164 508 186 c 1
 499 164 484 149 467 149 c 0
 439 149 417 186 417 233 c 0xb010
 417 246 419 258 422 270 c 1
 413 252 399 238 383 238 c 1
 355 238 333 274 333 321 c 0x6020
 333 334 335 346 338 356 c 1
 329 339 315 328 300 328 c 0
 272 328 250 364 250 411 c 0x6040
 250 423 252 433 254 443 c 1
 245 426 232 416 217 416 c 1
 189 416 167 453 167 500 c 0
 167 513 169 525 172 537 c 1
 163 519 149 505 133 505 c 0x7080
 105 505 83 542 83 589 c 0
 83 602 85 614 88 624 c 1
 79 607 65 595 50 595 c 1x29
550 328 m 0
 522 328 500 364 500 411 c 0
 500 458 522 495 550 495 c 0
 578 495 600 458 600 411 c 0x2008
 600 364 578 328 550 328 c 0
550 505 m 0x3008
 522 505 500 542 500 589 c 0
 500 636 522 672 550 672 c 0
 578 672 600 636 600 589 c 0
 600 542 578 505 550 505 c 0x3008
550 684 m 0x2408
 522 684 500 720 500 767 c 0
 500 814 522 851 550 851 c 0
 578 851 600 814 600 767 c 0
 600 720 578 684 550 684 c 0x2408
EndSplineSet
EndChar

StartChar: semicolon
Encoding: 59 59 30
Width: 667
VWidth: -334
UnlinkRmOvrlpSave: 1
Flags: HW
HStem: 328 167<184.122 250.188 265.969 333.772 433.228 500.772> 416 168<99.228 166.43 515.635 583.772> 505 167<16.228 83.772 184.122 250.188 265.969 333.772 433.228 500.772>
VStem: 0 100<557.469 658.131> 83 100<463 532> 167 183<365.75 447.437 552.563 634.25> 417 100<341.869 442.531 557.469 658.131> 500 100<468.469 531.531>
LayerCount: 2
Fore
SplineSet
50 505 m 0x28
 22 505 0 542 0 589 c 0
 0 636 22 672 50 672 c 0x30
 78 672 100 636 100 589 c 0
 100 577 98 567 96 557 c 1
 105 574 118 584 133 584 c 0x50
 149 584 163 570 172 552 c 1
 169 564 167 576 167 589 c 0
 167 636 189 672 217 672 c 0
 234 672 249 657 258 635 c 1
 267 657 283 672 300 672 c 1
 328 672 350 636 350 589 c 0x34
 350 542 328 505 300 505 c 0
 283 505 267 520 258 542 c 1
 249 520 234 505 217 505 c 1
 201 505 187 519 178 537 c 1
 181 525 183 513 183 500 c 0x28
 183 487 181 475 178 463 c 1
 187 481 201 495 217 495 c 0
 234 495 249 480 258 458 c 1
 267 480 283 495 300 495 c 0
 328 495 350 458 350 411 c 0
 350 364 328 328 300 328 c 0
 283 328 267 343 258 365 c 1
 249 343 234 328 217 328 c 0xa4
 189 328 167 364 167 411 c 0
 167 424 169 436 172 448 c 1
 163 430 149 416 133 416 c 0x44
 105 416 83 453 83 500 c 0
 83 512 85 522 87 532 c 1
 78 515 65 505 50 505 c 0x28
467 328 m 0x82
 439 328 417 364 417 411 c 0x82
 417 458 439 495 467 495 c 0
 482 495 495 485 504 468 c 1
 502 478 500 488 500 500 c 0x81
 500 512 502 522 504 532 c 1
 495 515 482 505 467 505 c 0
 439 505 417 542 417 589 c 0
 417 636 439 672 467 672 c 0
 495 672 517 636 517 589 c 0xa2
 517 577 515 567 513 557 c 1
 522 574 535 584 550 584 c 0
 578 584 600 547 600 500 c 0
 600 453 578 416 550 416 c 0x41
 535 416 522 426 513 443 c 1
 515 433 517 423 517 411 c 0
 517 364 495 328 467 328 c 0x82
EndSplineSet
EndChar

StartChar: question
Encoding: 63 63 31
Width: 667
VWidth: -334
UnlinkRmOvrlpSave: 1
Flags: HW
HStem: 149 21G<453 481> 238 167<349.228 415.878 516.228 583.772> 416 168<16.228 83.772 183.228 250.188 265.969 334.031 349.812 416.772 516.228 583.772> 595 167<516.228 583.772> 684 167<433.228 500.772>
VStem: 0 100<430.186 569.814> 333 100<285.562 390.814> 417 100<163.186 264.531 735.469 836.814> 500 100<290.468 390.814 430.186 569.814 609.186 709.532>
LayerCount: 2
Fore
SplineSet
50 416 m 0xe4
 22 416 0 453 0 500 c 0
 0 547 22 584 50 584 c 0
 78 584 100 547 100 500 c 0
 100 453 78 416 50 416 c 0xe4
217 416 m 0
 189 416 167 453 167 500 c 0
 167 547 189 584 217 584 c 0
 234 584 249 569 258 547 c 1
 267 569 283 584 300 584 c 1
 317 584 333 569 342 547 c 1
 351 569 366 584 383 584 c 0
 411 584 433 547 433 500 c 0xe6
 433 453 411 416 383 416 c 0
 366 416 351 431 342 453 c 1
 333 431 317 416 300 416 c 0
 283 416 267 431 258 453 c 1
 249 431 234 416 217 416 c 0
383 238 m 1
 355 238 333 274 333 321 c 0
 333 368 355 405 383 405 c 0
 411 405 433 368 433 321 c 0
 433 308 431 297 428 285 c 1
 437 303 451 316 467 316 c 1
 482 316 495 307 504 290 c 1
 502 300 500 309 500 321 c 0
 500 368 522 405 550 405 c 0
 578 405 600 368 600 321 c 0xe680
 600 274 578 238 550 238 c 0
 535 238 522 248 513 265 c 1
 515 255 517 245 517 233 c 0
 517 186 495 149 467 149 c 0
 439 149 417 186 417 233 c 0xe5
 417 246 419 258 422 270 c 1
 413 252 399 238 383 238 c 1
467 684 m 0xec80
 439 684 417 720 417 767 c 0
 417 814 439 851 467 851 c 0
 495 851 517 814 517 767 c 0xed
 517 755 515 745 513 735 c 1
 522 752 535 762 550 762 c 0
 578 762 600 726 600 679 c 0
 600 632 578 595 550 595 c 0xf480
 522 595 500 632 500 679 c 0
 500 691 502 700 504 710 c 1
 495 693 482 684 467 684 c 0xec80
550 416 m 0
 522 416 500 453 500 500 c 0
 500 547 522 584 550 584 c 0
 578 584 600 547 600 500 c 0xe480
 600 453 578 416 550 416 c 0
EndSplineSet
EndChar

StartChar: C
Encoding: 67 67 32
Width: 667
VWidth: -334
UnlinkRmOvrlpSave: 1
Flags: HW
HStem: 149 167<99.228 166.772 433.228 500.772> 238 167<16.228 83.772 516.228 583.772> 416 168<16.228 83.772 516.228 583.772> 595 167<16.228 83.772 516.228 583.772> 684 167<99.228 166.614 183.386 250.188 265.969 334.031 349.812 416.614 433.386 500.772>
VStem: 0 100<290.468 390.814 430.186 569.814 609.186 709.532> 83 100<163.186 264.531> 417 100<163.186 264.531> 500 100<290.468 390.814 430.186 569.814 609.186 709.532>
LayerCount: 2
Fore
SplineSet
50 238 m 1x62
 22 238 0 274 0 321 c 0
 0 368 22 405 50 405 c 0
 78 405 100 368 100 321 c 0x64
 100 309 98 300 96 290 c 1
 105 307 118 316 133 316 c 1
 161 316 183 280 183 233 c 0
 183 186 161 149 133 149 c 0xa2
 105 149 83 186 83 233 c 0
 83 245 85 255 87 265 c 1
 78 248 65 238 50 238 c 1x62
50 416 m 0
 22 416 0 453 0 500 c 0
 0 547 22 584 50 584 c 0
 78 584 100 547 100 500 c 0
 100 453 78 416 50 416 c 0
50 595 m 0x3480
 22 595 0 632 0 679 c 0
 0 726 22 762 50 762 c 0x3480
 65 762 78 752 87 735 c 1
 85 745 83 755 83 767 c 0
 83 814 105 851 133 851 c 0
 151 851 166 835 175 812 c 1
 184 835 199 851 217 851 c 0
 234 851 249 836 258 814 c 1
 267 836 283 851 300 851 c 1
 317 851 333 836 342 814 c 1
 351 836 366 851 383 851 c 0
 401 851 416 835 425 812 c 1
 434 835 449 851 467 851 c 0
 495 851 517 814 517 767 c 0x2b
 517 755 515 745 513 735 c 1
 522 752 535 762 550 762 c 0
 578 762 600 726 600 679 c 0
 600 632 578 595 550 595 c 0x3080
 522 595 500 632 500 679 c 0
 500 691 502 700 504 710 c 1
 495 693 482 684 467 684 c 0
 449 684 434 699 425 722 c 1
 416 699 401 684 383 684 c 0
 366 684 351 698 342 720 c 1
 333 698 317 684 300 684 c 0
 283 684 267 698 258 720 c 1
 249 698 234 684 217 684 c 1
 199 684 184 699 175 722 c 1
 166 699 151 684 133 684 c 0x2880
 118 684 105 693 96 710 c 1
 98 700 100 691 100 679 c 0
 100 632 78 595 50 595 c 0x3480
467 149 m 0xa1
 439 149 417 186 417 233 c 0
 417 280 439 316 467 316 c 0xa1
 482 316 495 307 504 290 c 1
 502 300 500 309 500 321 c 0
 500 368 522 405 550 405 c 0
 578 405 600 368 600 321 c 0
 600 274 578 238 550 238 c 0x6080
 535 238 522 248 513 265 c 1
 515 255 517 245 517 233 c 0
 517 186 495 149 467 149 c 0xa1
550 416 m 0
 522 416 500 453 500 500 c 0
 500 547 522 584 550 584 c 0
 578 584 600 547 600 500 c 0x2080
 600 453 578 416 550 416 c 0
EndSplineSet
EndChar

StartChar: G
Encoding: 71 71 33
Width: 667
VWidth: -334
UnlinkRmOvrlpSave: 1
Flags: HW
HStem: 149 167<99.228 166.614 183.386 250.188 265.969 333.772 433.228 500.772> 238 167<16.228 83.772 516.228 583.772> 416 168<16.228 83.772 516.228 583.772> 595 167<16.228 83.772 516.228 583.772> 684 167<99.228 166.614 183.386 250.188 265.969 334.031 349.812 416.614 433.386 500.772>
VStem: 0 100<290.468 390.814 430.186 569.814 609.186 709.532> 83 267<189.173 263.912> 250 100<341.869 480.814> 417 100<163.186 264.531> 500 100<290.468 390.814 430.186 569.814 609.186 709.532>
LayerCount: 2
Fore
SplineSet
50 238 m 1x62
 22 238 0 274 0 321 c 0
 0 368 22 405 50 405 c 0
 78 405 100 368 100 321 c 0x64
 100 309 98 300 96 290 c 1
 105 307 118 316 133 316 c 1
 151 316 166 301 175 278 c 1
 184 301 199 316 217 316 c 1
 234 316 249 302 258 280 c 1
 267 302 283 316 300 316 c 0
 328 316 350 280 350 233 c 0
 350 186 328 149 300 149 c 0
 283 149 267 164 258 186 c 1
 249 164 234 149 217 149 c 0
 199 149 184 165 175 188 c 1
 166 165 151 149 133 149 c 1xa2
 105 149 83 186 83 233 c 0
 83 245 85 255 87 265 c 1
 78 248 65 238 50 238 c 1x62
50 416 m 0
 22 416 0 453 0 500 c 0
 0 547 22 584 50 584 c 0
 78 584 100 547 100 500 c 0
 100 453 78 416 50 416 c 0
50 595 m 0x3440
 22 595 0 632 0 679 c 0
 0 726 22 762 50 762 c 0x3440
 65 762 78 752 87 735 c 1
 85 745 83 755 83 767 c 0
 83 814 105 851 133 851 c 0
 151 851 166 835 175 812 c 1
 184 835 199 851 217 851 c 0
 234 851 249 836 258 814 c 1
 267 836 283 851 300 851 c 1
 317 851 333 836 342 814 c 1
 351 836 366 851 383 851 c 0
 401 851 416 835 425 812 c 1
 434 835 449 851 467 851 c 0
 495 851 517 814 517 767 c 0x2a80
 517 755 515 745 513 735 c 1
 522 752 535 762 550 762 c 0
 578 762 600 726 600 679 c 0
 600 632 578 595 550 595 c 0x3040
 522 595 500 632 500 679 c 0
 500 691 502 700 504 710 c 1
 495 693 482 684 467 684 c 0
 449 684 434 699 425 722 c 1
 416 699 401 684 383 684 c 0
 366 684 351 698 342 720 c 1
 333 698 317 684 300 684 c 0
 283 684 267 698 258 720 c 1
 249 698 234 684 217 684 c 1
 199 684 184 699 175 722 c 1
 166 699 151 684 133 684 c 0x2840
 118 684 105 693 96 710 c 1
 98 700 100 691 100 679 c 0
 100 632 78 595 50 595 c 0x3440
300 328 m 0
 272 328 250 364 250 411 c 0
 250 458 272 495 300 495 c 0
 328 495 350 458 350 411 c 0x21
 350 364 328 328 300 328 c 0
467 149 m 0xa080
 439 149 417 186 417 233 c 0
 417 280 439 316 467 316 c 0xa080
 482 316 495 307 504 290 c 1
 502 300 500 309 500 321 c 0
 500 368 522 405 550 405 c 0
 578 405 600 368 600 321 c 0
 600 274 578 238 550 238 c 0x6040
 535 238 522 248 513 265 c 1
 515 255 517 245 517 233 c 0
 517 186 495 149 467 149 c 0xa080
550 416 m 0
 522 416 500 453 500 500 c 0
 500 547 522 584 550 584 c 0
 578 584 600 547 600 500 c 0x2040
 600 453 578 416 550 416 c 0
EndSplineSet
EndChar

StartChar: K
Encoding: 75 75 34
Width: 667
VWidth: -334
UnlinkRmOvrlpSave: 1
Flags: HW
HStem: 149 167<16.228 83.772 516.228 583.772> 238 21G<125.5 147> 328 167<183.228 250.772 433.228 500.772> 505 167<349.228 416.772> 684 167<16.228 84.0312 99.8125 166.614 183.386 250.188 265.969 334.031 349.812 416.614 433.386 500.188 515.969 583.772>
VStem: 0 100<163.186 264.531> 83 100<290.468 362.435> 167 100<370.564 442.531> 250 100<468.469 531.531> 333 100<557.469 658.131> 417 100<341.869 480.814> 500 100<163.186 302.131>
LayerCount: 2
Fore
SplineSet
50 149 m 0xbc
 22 149 0 186 0 233 c 0xbc
 0 280 22 316 50 316 c 0
 65 316 78 307 87 290 c 1
 85 300 83 309 83 321 c 0xba
 83 368 105 405 133 405 c 0
 150 405 165 392 174 370 c 1
 170 382 167 396 167 411 c 0xb9
 167 458 189 495 217 495 c 0
 232 495 245 485 254 468 c 1
 252 478 250 488 250 500 c 0xb880
 250 547 272 584 300 584 c 0
 315 584 328 574 337 557 c 1
 335 567 333 577 333 589 c 0
 333 636 355 672 383 672 c 0
 411 672 433 636 433 589 c 0xb840
 433 542 411 505 383 505 c 0
 368 505 355 515 346 532 c 1
 348 522 350 512 350 500 c 0xb880
 350 453 328 416 300 416 c 0
 285 416 272 426 263 443 c 1
 265 433 267 423 267 411 c 0xb9
 267 364 245 328 217 328 c 0
 200 328 185 341 176 363 c 1
 180 351 183 336 183 321 c 0
 183 274 161 238 133 238 c 0x7a
 118 238 105 248 96 265 c 1
 98 255 100 245 100 233 c 0
 100 186 78 149 50 149 c 0xbc
50 684 m 1
 22 684 0 720 0 767 c 0
 0 814 22 851 50 851 c 0
 67 851 83 836 92 814 c 1
 101 836 116 851 133 851 c 1
 151 851 166 835 175 812 c 1
 184 835 199 851 217 851 c 0
 234 851 249 836 258 814 c 1
 267 836 283 851 300 851 c 1
 317 851 333 836 342 814 c 1
 351 836 366 851 383 851 c 0
 401 851 416 835 425 812 c 1
 434 835 449 851 467 851 c 0
 484 851 499 836 508 814 c 1
 517 836 533 851 550 851 c 0
 578 851 600 814 600 767 c 0x3c10
 600 720 578 684 550 684 c 0
 533 684 517 698 508 720 c 1
 499 698 484 684 467 684 c 0
 449 684 434 699 425 722 c 1
 416 699 401 684 383 684 c 0
 366 684 351 698 342 720 c 1
 333 698 317 684 300 684 c 0
 283 684 267 698 258 720 c 1
 249 698 234 684 217 684 c 1
 199 684 184 699 175 722 c 1
 166 699 151 684 133 684 c 0
 116 684 101 698 92 720 c 1
 83 698 67 684 50 684 c 1
467 328 m 0
 439 328 417 364 417 411 c 0
 417 458 439 495 467 495 c 0
 495 495 517 458 517 411 c 0x3820
 517 364 495 328 467 328 c 0
550 149 m 0xb810
 522 149 500 186 500 233 c 0
 500 280 522 316 550 316 c 0
 578 316 600 280 600 233 c 0
 600 186 578 149 550 149 c 0xb810
EndSplineSet
EndChar

StartChar: O
Encoding: 79 79 35
Width: 667
VWidth: -343
UnlinkRmOvrlpSave: 1
Flags: HW
HStem: 153 170<101.378 169.856 188.144 256.031 272.125 341.875 357.969 425.856 444.144 512.622> 243 172<17.2854 84.7146 529.285 596.715> 427 170<16.378 85.622 528.378 597.622> 609 172<17.2854 84.7146 529.285 596.715> 701 170<101.378 169.856 188.144 256.031 272.125 341.875 357.969 425.856 444.144 512.622>
VStem: 0 102<297.468 400.129 441.238 582.762 623.871 726.532> 512 102<297.468 400.129 441.238 582.762 623.871 726.532>
LayerCount: 2
Fore
SplineSet
51 243 m 1x66
 22 243 0 280 0 328 c 0
 0 376 22 415 51 415 c 0x66
 80 415 102 376 102 328 c 0
 102 316 100 307 98 297 c 1
 107 314 121 323 136 323 c 1
 154 323 170 308 179 285 c 1
 188 308 204 323 222 323 c 1
 239 323 255 309 264 287 c 1
 273 309 290 323 307 323 c 0
 324 323 341 309 350 287 c 1
 359 309 375 323 392 323 c 0
 410 323 426 308 435 285 c 1
 444 308 460 323 478 323 c 0xa6
 493 323 507 314 516 297 c 1
 514 307 512 316 512 328 c 0
 512 376 534 415 563 415 c 0
 592 415 614 376 614 328 c 0
 614 280 592 243 563 243 c 0x66
 548 243 534 255 525 272 c 1
 527 262 529 250 529 238 c 0
 529 190 507 153 478 153 c 0
 460 153 444 170 435 193 c 1
 426 170 410 153 392 153 c 0
 375 153 359 168 350 190 c 1
 341 168 324 153 307 153 c 0
 290 153 273 168 264 190 c 1
 255 168 239 153 222 153 c 0
 204 153 188 170 179 193 c 1
 170 170 154 153 136 153 c 1xa6
 107 153 85 190 85 238 c 0
 85 250 87 262 89 272 c 1
 80 255 66 243 51 243 c 1x66
51 427 m 0
 22 427 0 464 0 512 c 0
 0 560 22 597 51 597 c 0
 80 597 102 560 102 512 c 0
 102 464 80 427 51 427 c 0
51 609 m 0x36
 22 609 0 648 0 696 c 0
 0 744 22 781 51 781 c 0x36
 66 781 80 769 89 752 c 1
 87 762 85 774 85 786 c 0
 85 834 107 871 136 871 c 0
 154 871 170 854 179 831 c 1
 188 854 204 871 222 871 c 0
 239 871 255 856 264 834 c 1
 273 856 290 871 307 871 c 1
 324 871 341 856 350 834 c 1
 359 856 375 871 392 871 c 0
 410 871 426 854 435 831 c 1
 444 854 460 871 478 871 c 0x2e
 507 871 529 834 529 786 c 0
 529 774 527 762 525 752 c 1
 534 769 548 781 563 781 c 0
 592 781 614 744 614 696 c 0
 614 648 592 609 563 609 c 0x36
 534 609 512 648 512 696 c 0
 512 708 514 717 516 727 c 1
 507 710 493 701 478 701 c 0
 460 701 444 716 435 739 c 1
 426 716 410 701 392 701 c 0
 375 701 359 715 350 737 c 1
 341 715 324 701 307 701 c 0
 290 701 273 715 264 737 c 1
 255 715 239 701 222 701 c 1
 204 701 188 716 179 739 c 1
 170 716 154 701 136 701 c 0x2e
 121 701 107 710 98 727 c 1
 100 717 102 708 102 696 c 0
 102 648 80 609 51 609 c 0x36
563 427 m 0
 534 427 512 464 512 512 c 0
 512 560 534 597 563 597 c 0
 592 597 614 560 614 512 c 0
 614 464 592 427 563 427 c 0
EndSplineSet
EndChar

StartChar: S
Encoding: 83 83 36
Width: 667
VWidth: -334
UnlinkRmOvrlpSave: 1
Flags: HW
HStem: 149 167<99.228 166.614 183.386 250.772 433.228 500.772> 238 167<16.228 83.772 266.228 333.772 516.228 583.772> 416 168<16.228 83.772 266.228 333.772 516.228 583.772> 595 167<16.228 83.772 266.228 333.772 516.228 583.772> 684 167<99.228 166.772 349.228 416.614 433.386 500.772>
VStem: 0 100<290.468 390.814 430.186 569.814 609.186 709.532> 83 184<189.173 264.531> 83 100<735.469 836.814> 250 100<290.468 390.814 430.186 569.814 609.186 709.532> 333 184<735.469 810.827> 417 100<163.186 264.531> 500 100<290.468 390.814 430.186 569.814 609.186 709.532>
LayerCount: 2
Fore
SplineSet
50 238 m 1x62
 22 238 0 274 0 321 c 0
 0 368 22 405 50 405 c 0x64
 78 405 100 368 100 321 c 0
 100 309 98 300 96 290 c 1
 105 307 118 316 133 316 c 1
 151 316 166 301 175 278 c 1
 184 301 199 316 217 316 c 1xa4
 232 316 245 307 254 290 c 1
 252 300 250 309 250 321 c 0
 250 368 272 405 300 405 c 0
 328 405 350 368 350 321 c 0
 350 274 328 238 300 238 c 0x6480
 285 238 272 248 263 265 c 1
 265 255 267 245 267 233 c 0
 267 186 245 149 217 149 c 0
 199 149 184 165 175 188 c 1
 166 165 151 149 133 149 c 1xa2
 105 149 83 186 83 233 c 0
 83 245 85 255 87 265 c 1
 78 248 65 238 50 238 c 1x62
50 416 m 0
 22 416 0 453 0 500 c 0
 0 547 22 584 50 584 c 0
 78 584 100 547 100 500 c 0
 100 453 78 416 50 416 c 0
50 595 m 0x34
 22 595 0 632 0 679 c 0
 0 726 22 762 50 762 c 0x34
 65 762 78 752 87 735 c 1
 85 745 83 755 83 767 c 0
 83 814 105 851 133 851 c 0
 161 851 183 814 183 767 c 0
 183 720 161 684 133 684 c 0x29
 118 684 105 693 96 710 c 1
 98 700 100 691 100 679 c 0
 100 632 78 595 50 595 c 0x34
300 416 m 0
 272 416 250 453 250 500 c 0
 250 547 272 584 300 584 c 0
 328 584 350 547 350 500 c 0x2080
 350 453 328 416 300 416 c 0
300 595 m 0x3090
 272 595 250 632 250 679 c 0
 250 726 272 762 300 762 c 0x3090
 315 762 328 752 337 735 c 1
 335 745 333 755 333 767 c 0
 333 814 355 851 383 851 c 0
 401 851 416 835 425 812 c 1
 434 835 449 851 467 851 c 0
 495 851 517 814 517 767 c 0x2840
 517 755 515 745 513 735 c 1
 522 752 535 762 550 762 c 0
 578 762 600 726 600 679 c 0
 600 632 578 595 550 595 c 0x3010
 522 595 500 632 500 679 c 0
 500 691 502 700 504 710 c 1
 495 693 482 684 467 684 c 0
 449 684 434 699 425 722 c 1
 416 699 401 684 383 684 c 0x2810
 368 684 355 693 346 710 c 1
 348 700 350 691 350 679 c 0
 350 632 328 595 300 595 c 0x3090
467 149 m 0xa020
 439 149 417 186 417 233 c 0
 417 280 439 316 467 316 c 0xa020
 482 316 495 307 504 290 c 1
 502 300 500 309 500 321 c 0
 500 368 522 405 550 405 c 0
 578 405 600 368 600 321 c 0
 600 274 578 238 550 238 c 0x6010
 535 238 522 248 513 265 c 1
 515 255 517 245 517 233 c 0
 517 186 495 149 467 149 c 0xa020
550 416 m 0
 522 416 500 453 500 500 c 0
 500 547 522 584 550 584 c 0
 578 584 600 547 600 500 c 0x2010
 600 453 578 416 550 416 c 0
EndSplineSet
EndChar

StartChar: W
Encoding: 87 87 37
Width: 667
VWidth: -334
UnlinkRmOvrlpSave: 1
Flags: HW
HStem: 149 167<99.228 166.614 183.386 250.188 265.969 334.031 349.812 416.614 433.386 500.188 515.969 583.772> 238 167<16.228 83.9059> 328 167<99.228 165.878> 416 168<183.57 250.188 265.969 333.772> 505 167<99.228 165.878> 595 167<16.228 83.9059> 684 167<99.228 166.614 183.386 250.188 265.969 334.031 349.812 416.614 433.386 500.188 515.969 583.772>
VStem: 0 100<290.468 355.53 644.47 709.532> 83 100<376.47 447.437 552 624>
LayerCount: 2
Fore
SplineSet
50 238 m 1x4080
 22 238 0 274 0 321 c 0
 0 368 22 405 50 405 c 0x41
 65 405 79 393 88 376 c 1
 85 386 83 398 83 411 c 0
 83 458 105 495 133 495 c 0
 149 495 163 481 172 463 c 1
 169 475 167 487 167 500 c 0
 167 513 169 525 172 537 c 1
 163 519 149 505 133 505 c 0
 105 505 83 542 83 589 c 0x2880
 83 602 85 614 88 624 c 1
 79 607 65 595 50 595 c 1
 22 595 0 632 0 679 c 0x05
 0 726 22 762 50 762 c 0
 65 762 78 752 87 735 c 1
 85 745 83 755 83 767 c 0x0480
 83 814 105 851 133 851 c 0
 151 851 166 835 175 812 c 1
 184 835 199 851 217 851 c 0
 234 851 249 836 258 814 c 1
 267 836 283 851 300 851 c 1
 317 851 333 836 342 814 c 1
 351 836 366 851 383 851 c 0
 401 851 416 835 425 812 c 1
 434 835 449 851 467 851 c 0
 484 851 499 836 508 814 c 1
 517 836 533 851 550 851 c 0
 578 851 600 814 600 767 c 0
 600 720 578 684 550 684 c 0
 533 684 517 698 508 720 c 1
 499 698 484 684 467 684 c 0
 449 684 434 699 425 722 c 1
 416 699 401 684 383 684 c 0
 366 684 351 698 342 720 c 1
 333 698 317 684 300 684 c 0
 283 684 267 698 258 720 c 1
 249 698 234 684 217 684 c 1
 199 684 184 699 175 722 c 1
 166 699 151 684 133 684 c 0
 118 684 105 693 96 710 c 1
 98 700 100 691 100 679 c 0
 100 666 98 654 95 644 c 1
 104 661 118 672 133 672 c 1x0b
 161 672 183 636 183 589 c 0
 183 576 181 564 178 552 c 1
 187 570 201 584 217 584 c 0
 234 584 249 569 258 547 c 1
 267 569 283 584 300 584 c 1
 328 584 350 547 350 500 c 0
 350 453 328 416 300 416 c 0
 283 416 267 431 258 453 c 1
 249 431 234 416 217 416 c 0
 201 416 187 430 178 448 c 1
 181 436 183 424 183 411 c 0x1080
 183 364 161 328 133 328 c 0
 118 328 104 339 95 356 c 1
 98 346 100 334 100 321 c 0
 100 309 98 300 96 290 c 1
 105 307 118 316 133 316 c 1
 151 316 166 301 175 278 c 1
 184 301 199 316 217 316 c 1
 234 316 249 302 258 280 c 1
 267 302 283 316 300 316 c 0
 317 316 333 302 342 280 c 1
 351 302 366 316 383 316 c 0
 401 316 416 301 425 278 c 1
 434 301 449 316 467 316 c 0
 484 316 499 302 508 280 c 1
 517 302 533 316 550 316 c 0
 578 316 600 280 600 233 c 0
 600 186 578 149 550 149 c 0
 533 149 517 164 508 186 c 1
 499 164 484 149 467 149 c 0
 449 149 434 165 425 188 c 1
 416 165 401 149 383 149 c 0
 366 149 351 164 342 186 c 1
 333 164 317 149 300 149 c 0
 283 149 267 164 258 186 c 1
 249 164 234 149 217 149 c 0
 199 149 184 165 175 188 c 1
 166 165 151 149 133 149 c 1xa1
 105 149 83 186 83 233 c 0
 83 245 85 255 87 265 c 1
 78 248 65 238 50 238 c 1x4080
EndSplineSet
EndChar

StartChar: bracketleft
Encoding: 91 91 38
Width: 667
VWidth: -334
UnlinkRmOvrlpSave: 1
Flags: HW
HStem: 238 167<16.228 83.772 516.228 583.772> 416 168<16.228 83.772 516.228 583.772> 595 167<16.228 84.0312 99.8125 166.614 183.386 250.188 265.969 334.031 349.812 416.614 433.386 500.188 515.969 583.772>
VStem: 0 100<251.869 390.814 430.186 569.814> 500 100<251.869 390.814 430.186 569.814>
CounterMasks: 1 e0
LayerCount: 2
Fore
SplineSet
50 238 m 0
 22 238 0 274 0 321 c 0
 0 368 22 405 50 405 c 0
 78 405 100 368 100 321 c 0
 100 274 78 238 50 238 c 0
50 416 m 0
 22 416 0 453 0 500 c 0
 0 547 22 584 50 584 c 0
 78 584 100 547 100 500 c 0
 100 453 78 416 50 416 c 0
50 595 m 1
 22 595 0 632 0 679 c 0
 0 726 22 762 50 762 c 0
 67 762 83 747 92 725 c 1
 101 747 116 762 133 762 c 1
 151 762 166 747 175 724 c 1
 184 747 199 762 217 762 c 0
 234 762 249 747 258 725 c 1
 267 747 283 762 300 762 c 1
 317 762 333 747 342 725 c 1
 351 747 366 762 383 762 c 0
 401 762 416 747 425 724 c 1
 434 747 449 762 467 762 c 0
 484 762 499 747 508 725 c 1
 517 747 533 762 550 762 c 0
 578 762 600 726 600 679 c 0
 600 632 578 595 550 595 c 0
 533 595 517 610 508 632 c 1
 499 610 484 595 467 595 c 0
 449 595 434 611 425 634 c 1
 416 611 401 595 383 595 c 0
 366 595 351 610 342 632 c 1
 333 610 317 595 300 595 c 0
 283 595 267 610 258 632 c 1
 249 610 234 595 217 595 c 1
 199 595 184 611 175 634 c 1
 166 611 151 595 133 595 c 0
 116 595 101 610 92 632 c 1
 83 610 67 595 50 595 c 1
550 238 m 0
 522 238 500 274 500 321 c 0
 500 368 522 405 550 405 c 0
 578 405 600 368 600 321 c 0
 600 274 578 238 550 238 c 0
550 416 m 0
 522 416 500 453 500 500 c 0
 500 547 522 584 550 584 c 0
 578 584 600 547 600 500 c 0
 600 453 578 416 550 416 c 0
EndSplineSet
EndChar

StartChar: underscore
Encoding: 95 95 39
Width: 667
VWidth: -334
UnlinkRmOvrlpSave: 1
Flags: HW
HStem: 555 167<106.228 161.672 438.328 493.772> 695 167<171.328 226.772 373.228 428.672>
VStem: 90 100<569.186 703.291> 143 100<715.279 848.131> 250 100<12.8691 152.287 153.71 290.29 291.71 429.289 430.712 569.288 570.711 708.29 709.71 846.29 847.713 987.131> 357 100<715.279 848.131> 410 100<569.186 703.291>
LayerCount: 2
Fore
SplineSet
350 82 m 0x08
 350 35 328 -1 300 -1 c 0
 272 -1 250 35 250 82 c 0
 250 110 259 138 272 153 c 1
 259 168 250 193 250 221 c 1
 250 251 259 276 273 291 c 1
 259 306 250 331 250 361 c 0
 250 389 259 415 272 430 c 1
 259 445 250 472 250 500 c 1
 250 528 259 555 272 570 c 1
 259 585 250 611 250 639 c 0
 250 669 259 694 273 709 c 1
 259 724 250 749 250 779 c 0
 250 807 259 832 272 847 c 1
 259 862 250 890 250 918 c 0
 250 965 272 1001 300 1001 c 0
 328 1001 350 965 350 918 c 0
 350 890 341 862 328 847 c 1
 341 832 350 807 350 779 c 0
 350 749 341 724 327 709 c 1
 341 694 350 669 350 639 c 0
 350 611 341 585 328 570 c 1
 341 555 350 528 350 500 c 0
 350 472 341 445 328 430 c 1
 341 415 350 389 350 361 c 0
 350 331 341 306 327 291 c 1
 341 276 350 251 350 221 c 1
 350 193 341 168 328 153 c 1
 341 138 350 110 350 82 c 0x08
510 639 m 0x8a
 510 592 488 555 460 555 c 0
 432 555 410 592 410 639 c 0x8a
 410 666 418 689 429 704 c 1
 422 699 415 695 407 695 c 0
 379 695 357 732 357 779 c 0
 357 826 379 862 407 862 c 0
 435 862 457 826 457 779 c 0x4c
 457 752 449 729 438 714 c 1
 445 719 452 722 460 722 c 0
 488 722 510 686 510 639 c 0x8a
190 639 m 1x68
 190 592 168 555 140 555 c 0
 112 555 90 592 90 639 c 0
 90 686 112 722 140 722 c 0xa8
 148 722 155 719 162 714 c 1
 151 729 143 752 143 779 c 1
 143 826 165 862 193 862 c 0
 221 862 243 826 243 779 c 0x58
 243 732 221 695 193 695 c 0
 185 695 178 699 171 704 c 1
 182 689 190 666 190 639 c 1x68
EndSplineSet
EndChar

StartChar: c
Encoding: 99 99 40
Width: 667
VWidth: -334
UnlinkRmOvrlpSave: 1
Flags: HW
HStem: 149 167<99.228 166.772 433.228 500.772> 238 167<16.228 83.772 516.228 583.772> 416 168<16.228 83.772 516.228 583.772> 595 167<16.228 83.772 516.228 583.772> 684 167<99.228 166.614 183.386 250.188 265.969 334.031 349.812 416.614 433.386 500.772>
VStem: 0 100<290.468 390.814 430.186 569.814 609.186 709.532> 83 100<163.186 264.531> 417 100<163.186 264.531> 500 100<290.468 390.814 430.186 569.814 609.186 709.532>
LayerCount: 2
Fore
SplineSet
50 238 m 1x62
 22 238 0 274 0 321 c 0
 0 368 22 405 50 405 c 0
 78 405 100 368 100 321 c 0x64
 100 309 98 300 96 290 c 1
 105 307 118 316 133 316 c 1
 161 316 183 280 183 233 c 0
 183 186 161 149 133 149 c 0xa2
 105 149 83 186 83 233 c 0
 83 245 85 255 87 265 c 1
 78 248 65 238 50 238 c 1x62
50 416 m 0
 22 416 0 453 0 500 c 0
 0 547 22 584 50 584 c 0
 78 584 100 547 100 500 c 0
 100 453 78 416 50 416 c 0
50 595 m 0x3480
 22 595 0 632 0 679 c 0
 0 726 22 762 50 762 c 0x3480
 65 762 78 752 87 735 c 1
 85 745 83 755 83 767 c 0
 83 814 105 851 133 851 c 0
 151 851 166 835 175 812 c 1
 184 835 199 851 217 851 c 0
 234 851 249 836 258 814 c 1
 267 836 283 851 300 851 c 1
 317 851 333 836 342 814 c 1
 351 836 366 851 383 851 c 0
 401 851 416 835 425 812 c 1
 434 835 449 851 467 851 c 0
 495 851 517 814 517 767 c 0x2b
 517 755 515 745 513 735 c 1
 522 752 535 762 550 762 c 0
 578 762 600 726 600 679 c 0
 600 632 578 595 550 595 c 0x3080
 522 595 500 632 500 679 c 0
 500 691 502 700 504 710 c 1
 495 693 482 684 467 684 c 0
 449 684 434 699 425 722 c 1
 416 699 401 684 383 684 c 0
 366 684 351 698 342 720 c 1
 333 698 317 684 300 684 c 0
 283 684 267 698 258 720 c 1
 249 698 234 684 217 684 c 1
 199 684 184 699 175 722 c 1
 166 699 151 684 133 684 c 0x2880
 118 684 105 693 96 710 c 1
 98 700 100 691 100 679 c 0
 100 632 78 595 50 595 c 0x3480
467 149 m 0xa1
 439 149 417 186 417 233 c 0
 417 280 439 316 467 316 c 0xa1
 482 316 495 307 504 290 c 1
 502 300 500 309 500 321 c 0
 500 368 522 405 550 405 c 0
 578 405 600 368 600 321 c 0
 600 274 578 238 550 238 c 0x6080
 535 238 522 248 513 265 c 1
 515 255 517 245 517 233 c 0
 517 186 495 149 467 149 c 0xa1
550 416 m 0
 522 416 500 453 500 500 c 0
 500 547 522 584 550 584 c 0
 578 584 600 547 600 500 c 0x2080
 600 453 578 416 550 416 c 0
EndSplineSet
EndChar

StartChar: g
Encoding: 103 103 41
Width: 667
VWidth: -334
UnlinkRmOvrlpSave: 1
Flags: HW
HStem: 149 167<99.228 166.614 183.386 250.188 265.969 333.772 433.228 500.772> 238 167<16.228 83.772 516.228 583.772> 416 168<16.228 83.772 516.228 583.772> 595 167<16.228 83.772 516.228 583.772> 684 167<99.228 166.614 183.386 250.188 265.969 334.031 349.812 416.614 433.386 500.772>
VStem: 0 100<290.468 390.814 430.186 569.814 609.186 709.532> 83 267<189.173 263.912> 250 100<341.869 480.814> 417 100<163.186 264.531> 500 100<290.468 390.814 430.186 569.814 609.186 709.532>
LayerCount: 2
Fore
SplineSet
50 238 m 1x62
 22 238 0 274 0 321 c 0
 0 368 22 405 50 405 c 0
 78 405 100 368 100 321 c 0x64
 100 309 98 300 96 290 c 1
 105 307 118 316 133 316 c 1
 151 316 166 301 175 278 c 1
 184 301 199 316 217 316 c 1
 234 316 249 302 258 280 c 1
 267 302 283 316 300 316 c 0
 328 316 350 280 350 233 c 0
 350 186 328 149 300 149 c 0
 283 149 267 164 258 186 c 1
 249 164 234 149 217 149 c 0
 199 149 184 165 175 188 c 1
 166 165 151 149 133 149 c 1xa2
 105 149 83 186 83 233 c 0
 83 245 85 255 87 265 c 1
 78 248 65 238 50 238 c 1x62
50 416 m 0
 22 416 0 453 0 500 c 0
 0 547 22 584 50 584 c 0
 78 584 100 547 100 500 c 0
 100 453 78 416 50 416 c 0
50 595 m 0x3440
 22 595 0 632 0 679 c 0
 0 726 22 762 50 762 c 0x3440
 65 762 78 752 87 735 c 1
 85 745 83 755 83 767 c 0
 83 814 105 851 133 851 c 0
 151 851 166 835 175 812 c 1
 184 835 199 851 217 851 c 0
 234 851 249 836 258 814 c 1
 267 836 283 851 300 851 c 1
 317 851 333 836 342 814 c 1
 351 836 366 851 383 851 c 0
 401 851 416 835 425 812 c 1
 434 835 449 851 467 851 c 0
 495 851 517 814 517 767 c 0x2a80
 517 755 515 745 513 735 c 1
 522 752 535 762 550 762 c 0
 578 762 600 726 600 679 c 0
 600 632 578 595 550 595 c 0x3040
 522 595 500 632 500 679 c 0
 500 691 502 700 504 710 c 1
 495 693 482 684 467 684 c 0
 449 684 434 699 425 722 c 1
 416 699 401 684 383 684 c 0
 366 684 351 698 342 720 c 1
 333 698 317 684 300 684 c 0
 283 684 267 698 258 720 c 1
 249 698 234 684 217 684 c 1
 199 684 184 699 175 722 c 1
 166 699 151 684 133 684 c 0x2840
 118 684 105 693 96 710 c 1
 98 700 100 691 100 679 c 0
 100 632 78 595 50 595 c 0x3440
300 328 m 0
 272 328 250 364 250 411 c 0
 250 458 272 495 300 495 c 0
 328 495 350 458 350 411 c 0x21
 350 364 328 328 300 328 c 0
467 149 m 0xa080
 439 149 417 186 417 233 c 0
 417 280 439 316 467 316 c 0xa080
 482 316 495 307 504 290 c 1
 502 300 500 309 500 321 c 0
 500 368 522 405 550 405 c 0
 578 405 600 368 600 321 c 0
 600 274 578 238 550 238 c 0x6040
 535 238 522 248 513 265 c 1
 515 255 517 245 517 233 c 0
 517 186 495 149 467 149 c 0xa080
550 416 m 0
 522 416 500 453 500 500 c 0
 500 547 522 584 550 584 c 0
 578 584 600 547 600 500 c 0x2040
 600 453 578 416 550 416 c 0
EndSplineSet
EndChar

StartChar: k
Encoding: 107 107 42
Width: 667
VWidth: -334
UnlinkRmOvrlpSave: 1
Flags: HW
HStem: 149 167<16.228 83.772 516.228 583.772> 238 21G<125.5 147> 328 167<183.228 250.772 433.228 500.772> 505 167<349.228 416.772> 684 167<16.228 84.0312 99.8125 166.614 183.386 250.188 265.969 334.031 349.812 416.614 433.386 500.188 515.969 583.772>
VStem: 0 100<163.186 264.531> 83 100<290.468 362.435> 167 100<370.564 442.531> 250 100<468.469 531.531> 333 100<557.469 658.131> 417 100<341.869 480.814> 500 100<163.186 302.131>
LayerCount: 2
Fore
SplineSet
50 149 m 0xbc
 22 149 0 186 0 233 c 0xbc
 0 280 22 316 50 316 c 0
 65 316 78 307 87 290 c 1
 85 300 83 309 83 321 c 0xba
 83 368 105 405 133 405 c 0
 150 405 165 392 174 370 c 1
 170 382 167 396 167 411 c 0xb9
 167 458 189 495 217 495 c 0
 232 495 245 485 254 468 c 1
 252 478 250 488 250 500 c 0xb880
 250 547 272 584 300 584 c 0
 315 584 328 574 337 557 c 1
 335 567 333 577 333 589 c 0
 333 636 355 672 383 672 c 0
 411 672 433 636 433 589 c 0xb840
 433 542 411 505 383 505 c 0
 368 505 355 515 346 532 c 1
 348 522 350 512 350 500 c 0xb880
 350 453 328 416 300 416 c 0
 285 416 272 426 263 443 c 1
 265 433 267 423 267 411 c 0xb9
 267 364 245 328 217 328 c 0
 200 328 185 341 176 363 c 1
 180 351 183 336 183 321 c 0
 183 274 161 238 133 238 c 0x7a
 118 238 105 248 96 265 c 1
 98 255 100 245 100 233 c 0
 100 186 78 149 50 149 c 0xbc
50 684 m 1
 22 684 0 720 0 767 c 0
 0 814 22 851 50 851 c 0
 67 851 83 836 92 814 c 1
 101 836 116 851 133 851 c 1
 151 851 166 835 175 812 c 1
 184 835 199 851 217 851 c 0
 234 851 249 836 258 814 c 1
 267 836 283 851 300 851 c 1
 317 851 333 836 342 814 c 1
 351 836 366 851 383 851 c 0
 401 851 416 835 425 812 c 1
 434 835 449 851 467 851 c 0
 484 851 499 836 508 814 c 1
 517 836 533 851 550 851 c 0
 578 851 600 814 600 767 c 0x3c10
 600 720 578 684 550 684 c 0
 533 684 517 698 508 720 c 1
 499 698 484 684 467 684 c 0
 449 684 434 699 425 722 c 1
 416 699 401 684 383 684 c 0
 366 684 351 698 342 720 c 1
 333 698 317 684 300 684 c 0
 283 684 267 698 258 720 c 1
 249 698 234 684 217 684 c 1
 199 684 184 699 175 722 c 1
 166 699 151 684 133 684 c 0
 116 684 101 698 92 720 c 1
 83 698 67 684 50 684 c 1
467 328 m 0
 439 328 417 364 417 411 c 0
 417 458 439 495 467 495 c 0
 495 495 517 458 517 411 c 0x3820
 517 364 495 328 467 328 c 0
550 149 m 0xb810
 522 149 500 186 500 233 c 0
 500 280 522 316 550 316 c 0
 578 316 600 280 600 233 c 0
 600 186 578 149 550 149 c 0xb810
EndSplineSet
EndChar

StartChar: o
Encoding: 111 111 43
Width: 667
VWidth: -334
UnlinkRmOvrlpSave: 1
Flags: HW
HStem: 149 167<99.228 166.614 183.386 250.188 265.969 334.031 349.812 416.614 433.386 500.772> 238 167<16.228 83.772 516.228 583.772> 416 168<16.228 83.772 516.228 583.772> 595 167<16.228 83.772 516.228 583.772> 684 167<99.228 166.614 183.386 250.188 265.969 334.031 349.812 416.614 433.386 500.772>
VStem: 0 100<290.468 390.814 430.186 569.814 609.186 709.532> 500 100<290.468 390.814 430.186 569.814 609.186 709.532>
LayerCount: 2
Fore
SplineSet
50 238 m 1x66
 22 238 0 274 0 321 c 0
 0 368 22 405 50 405 c 0x66
 78 405 100 368 100 321 c 0
 100 309 98 300 96 290 c 1
 105 307 118 316 133 316 c 1
 151 316 166 301 175 278 c 1
 184 301 199 316 217 316 c 1
 234 316 249 302 258 280 c 1
 267 302 283 316 300 316 c 0
 317 316 333 302 342 280 c 1
 351 302 366 316 383 316 c 0
 401 316 416 301 425 278 c 1
 434 301 449 316 467 316 c 0xa6
 482 316 495 307 504 290 c 1
 502 300 500 309 500 321 c 0
 500 368 522 405 550 405 c 0
 578 405 600 368 600 321 c 0
 600 274 578 238 550 238 c 0x66
 535 238 522 248 513 265 c 1
 515 255 517 245 517 233 c 0
 517 186 495 149 467 149 c 0
 449 149 434 165 425 188 c 1
 416 165 401 149 383 149 c 0
 366 149 351 164 342 186 c 1
 333 164 317 149 300 149 c 0
 283 149 267 164 258 186 c 1
 249 164 234 149 217 149 c 0
 199 149 184 165 175 188 c 1
 166 165 151 149 133 149 c 1xa6
 105 149 83 186 83 233 c 0
 83 245 85 255 87 265 c 1
 78 248 65 238 50 238 c 1x66
50 416 m 0
 22 416 0 453 0 500 c 0
 0 547 22 584 50 584 c 0
 78 584 100 547 100 500 c 0
 100 453 78 416 50 416 c 0
50 595 m 0x36
 22 595 0 632 0 679 c 0
 0 726 22 762 50 762 c 0x36
 65 762 78 752 87 735 c 1
 85 745 83 755 83 767 c 0
 83 814 105 851 133 851 c 0
 151 851 166 835 175 812 c 1
 184 835 199 851 217 851 c 0
 234 851 249 836 258 814 c 1
 267 836 283 851 300 851 c 1
 317 851 333 836 342 814 c 1
 351 836 366 851 383 851 c 0
 401 851 416 835 425 812 c 1
 434 835 449 851 467 851 c 0x2e
 495 851 517 814 517 767 c 0
 517 755 515 745 513 735 c 1
 522 752 535 762 550 762 c 0
 578 762 600 726 600 679 c 0
 600 632 578 595 550 595 c 0x36
 522 595 500 632 500 679 c 0
 500 691 502 700 504 710 c 1
 495 693 482 684 467 684 c 0
 449 684 434 699 425 722 c 1
 416 699 401 684 383 684 c 0
 366 684 351 698 342 720 c 1
 333 698 317 684 300 684 c 0
 283 684 267 698 258 720 c 1
 249 698 234 684 217 684 c 1
 199 684 184 699 175 722 c 1
 166 699 151 684 133 684 c 0x2e
 118 684 105 693 96 710 c 1
 98 700 100 691 100 679 c 0
 100 632 78 595 50 595 c 0x36
550 416 m 0
 522 416 500 453 500 500 c 0
 500 547 522 584 550 584 c 0
 578 584 600 547 600 500 c 0
 600 453 578 416 550 416 c 0
EndSplineSet
EndChar

StartChar: s
Encoding: 115 115 44
Width: 667
VWidth: -334
UnlinkRmOvrlpSave: 1
Flags: HW
HStem: 149 167<99.228 166.614 183.386 250.772 433.228 500.772> 238 167<16.228 83.772 266.228 333.772 516.228 583.772> 416 168<16.228 83.772 266.228 333.772 516.228 583.772> 595 167<16.228 83.772 266.228 333.772 516.228 583.772> 684 167<99.228 166.772 349.228 416.614 433.386 500.772>
VStem: 0 100<290.468 390.814 430.186 569.814 609.186 709.532> 83 184<189.173 264.531> 83 100<735.469 836.814> 250 100<290.468 390.814 430.186 569.814 609.186 709.532> 333 184<735.469 810.827> 417 100<163.186 264.531> 500 100<290.468 390.814 430.186 569.814 609.186 709.532>
LayerCount: 2
Fore
SplineSet
50 238 m 1x62
 22 238 0 274 0 321 c 0
 0 368 22 405 50 405 c 0x64
 78 405 100 368 100 321 c 0
 100 309 98 300 96 290 c 1
 105 307 118 316 133 316 c 1
 151 316 166 301 175 278 c 1
 184 301 199 316 217 316 c 1xa4
 232 316 245 307 254 290 c 1
 252 300 250 309 250 321 c 0
 250 368 272 405 300 405 c 0
 328 405 350 368 350 321 c 0
 350 274 328 238 300 238 c 0x6480
 285 238 272 248 263 265 c 1
 265 255 267 245 267 233 c 0
 267 186 245 149 217 149 c 0
 199 149 184 165 175 188 c 1
 166 165 151 149 133 149 c 1xa2
 105 149 83 186 83 233 c 0
 83 245 85 255 87 265 c 1
 78 248 65 238 50 238 c 1x62
50 416 m 0
 22 416 0 453 0 500 c 0
 0 547 22 584 50 584 c 0
 78 584 100 547 100 500 c 0
 100 453 78 416 50 416 c 0
50 595 m 0x34
 22 595 0 632 0 679 c 0
 0 726 22 762 50 762 c 0x34
 65 762 78 752 87 735 c 1
 85 745 83 755 83 767 c 0
 83 814 105 851 133 851 c 0
 161 851 183 814 183 767 c 0
 183 720 161 684 133 684 c 0x29
 118 684 105 693 96 710 c 1
 98 700 100 691 100 679 c 0
 100 632 78 595 50 595 c 0x34
300 416 m 0
 272 416 250 453 250 500 c 0
 250 547 272 584 300 584 c 0
 328 584 350 547 350 500 c 0x2080
 350 453 328 416 300 416 c 0
300 595 m 0x3090
 272 595 250 632 250 679 c 0
 250 726 272 762 300 762 c 0x3090
 315 762 328 752 337 735 c 1
 335 745 333 755 333 767 c 0
 333 814 355 851 383 851 c 0
 401 851 416 835 425 812 c 1
 434 835 449 851 467 851 c 0
 495 851 517 814 517 767 c 0x2840
 517 755 515 745 513 735 c 1
 522 752 535 762 550 762 c 0
 578 762 600 726 600 679 c 0
 600 632 578 595 550 595 c 0x3010
 522 595 500 632 500 679 c 0
 500 691 502 700 504 710 c 1
 495 693 482 684 467 684 c 0
 449 684 434 699 425 722 c 1
 416 699 401 684 383 684 c 0x2810
 368 684 355 693 346 710 c 1
 348 700 350 691 350 679 c 0
 350 632 328 595 300 595 c 0x3090
467 149 m 0xa020
 439 149 417 186 417 233 c 0
 417 280 439 316 467 316 c 0xa020
 482 316 495 307 504 290 c 1
 502 300 500 309 500 321 c 0
 500 368 522 405 550 405 c 0
 578 405 600 368 600 321 c 0
 600 274 578 238 550 238 c 0x6010
 535 238 522 248 513 265 c 1
 515 255 517 245 517 233 c 0
 517 186 495 149 467 149 c 0xa020
550 416 m 0
 522 416 500 453 500 500 c 0
 500 547 522 584 550 584 c 0
 578 584 600 547 600 500 c 0x2010
 600 453 578 416 550 416 c 0
EndSplineSet
EndChar

StartChar: w
Encoding: 119 119 45
Width: 667
VWidth: -334
UnlinkRmOvrlpSave: 1
Flags: HW
HStem: 149 167<99.228 166.614 183.386 250.188 265.969 334.031 349.812 416.614 433.386 500.188 515.969 583.772> 238 167<16.228 83.9059> 328 167<99.228 165.878> 416 168<183.57 250.188 265.969 333.772> 505 167<99.228 165.878> 595 167<16.228 83.9059> 684 167<99.228 166.614 183.386 250.188 265.969 334.031 349.812 416.614 433.386 500.188 515.969 583.772>
VStem: 0 100<290.468 355.53 644.47 709.532> 83 100<376.47 447.437 552 624>
LayerCount: 2
Fore
SplineSet
50 238 m 1x4080
 22 238 0 274 0 321 c 0
 0 368 22 405 50 405 c 0x41
 65 405 79 393 88 376 c 1
 85 386 83 398 83 411 c 0
 83 458 105 495 133 495 c 0
 149 495 163 481 172 463 c 1
 169 475 167 487 167 500 c 0
 167 513 169 525 172 537 c 1
 163 519 149 505 133 505 c 0
 105 505 83 542 83 589 c 0x2880
 83 602 85 614 88 624 c 1
 79 607 65 595 50 595 c 1
 22 595 0 632 0 679 c 0x05
 0 726 22 762 50 762 c 0
 65 762 78 752 87 735 c 1
 85 745 83 755 83 767 c 0x0480
 83 814 105 851 133 851 c 0
 151 851 166 835 175 812 c 1
 184 835 199 851 217 851 c 0
 234 851 249 836 258 814 c 1
 267 836 283 851 300 851 c 1
 317 851 333 836 342 814 c 1
 351 836 366 851 383 851 c 0
 401 851 416 835 425 812 c 1
 434 835 449 851 467 851 c 0
 484 851 499 836 508 814 c 1
 517 836 533 851 550 851 c 0
 578 851 600 814 600 767 c 0
 600 720 578 684 550 684 c 0
 533 684 517 698 508 720 c 1
 499 698 484 684 467 684 c 0
 449 684 434 699 425 722 c 1
 416 699 401 684 383 684 c 0
 366 684 351 698 342 720 c 1
 333 698 317 684 300 684 c 0
 283 684 267 698 258 720 c 1
 249 698 234 684 217 684 c 1
 199 684 184 699 175 722 c 1
 166 699 151 684 133 684 c 0
 118 684 105 693 96 710 c 1
 98 700 100 691 100 679 c 0
 100 666 98 654 95 644 c 1
 104 661 118 672 133 672 c 1x0b
 161 672 183 636 183 589 c 0
 183 576 181 564 178 552 c 1
 187 570 201 584 217 584 c 0
 234 584 249 569 258 547 c 1
 267 569 283 584 300 584 c 1
 328 584 350 547 350 500 c 0
 350 453 328 416 300 416 c 0
 283 416 267 431 258 453 c 1
 249 431 234 416 217 416 c 0
 201 416 187 430 178 448 c 1
 181 436 183 424 183 411 c 0x1080
 183 364 161 328 133 328 c 0
 118 328 104 339 95 356 c 1
 98 346 100 334 100 321 c 0
 100 309 98 300 96 290 c 1
 105 307 118 316 133 316 c 1
 151 316 166 301 175 278 c 1
 184 301 199 316 217 316 c 1
 234 316 249 302 258 280 c 1
 267 302 283 316 300 316 c 0
 317 316 333 302 342 280 c 1
 351 302 366 316 383 316 c 0
 401 316 416 301 425 278 c 1
 434 301 449 316 467 316 c 0
 484 316 499 302 508 280 c 1
 517 302 533 316 550 316 c 0
 578 316 600 280 600 233 c 0
 600 186 578 149 550 149 c 0
 533 149 517 164 508 186 c 1
 499 164 484 149 467 149 c 0
 449 149 434 165 425 188 c 1
 416 165 401 149 383 149 c 0
 366 149 351 164 342 186 c 1
 333 164 317 149 300 149 c 0
 283 149 267 164 258 186 c 1
 249 164 234 149 217 149 c 0
 199 149 184 165 175 188 c 1
 166 165 151 149 133 149 c 1xa1
 105 149 83 186 83 233 c 0
 83 245 85 255 87 265 c 1
 78 248 65 238 50 238 c 1x4080
EndSplineSet
EndChar

StartChar: braceleft
Encoding: 123 123 46
Width: 667
VWidth: -334
UnlinkRmOvrlpSave: 1
Flags: HW
HStem: 238 167<16.228 83.772 516.228 583.772> 416 168<16.228 83.772 516.228 583.772> 595 167<16.228 84.0312 99.8125 166.614 183.386 250.188 265.969 334.031 349.812 416.614 433.386 500.188 515.969 583.772>
VStem: 0 100<251.869 390.814 430.186 569.814> 500 100<251.869 390.814 430.186 569.814>
CounterMasks: 1 e0
LayerCount: 2
Fore
SplineSet
50 238 m 0
 22 238 0 274 0 321 c 0
 0 368 22 405 50 405 c 0
 78 405 100 368 100 321 c 0
 100 274 78 238 50 238 c 0
50 416 m 0
 22 416 0 453 0 500 c 0
 0 547 22 584 50 584 c 0
 78 584 100 547 100 500 c 0
 100 453 78 416 50 416 c 0
50 595 m 1
 22 595 0 632 0 679 c 0
 0 726 22 762 50 762 c 0
 67 762 83 747 92 725 c 1
 101 747 116 762 133 762 c 1
 151 762 166 747 175 724 c 1
 184 747 199 762 217 762 c 0
 234 762 249 747 258 725 c 1
 267 747 283 762 300 762 c 1
 317 762 333 747 342 725 c 1
 351 747 366 762 383 762 c 0
 401 762 416 747 425 724 c 1
 434 747 449 762 467 762 c 0
 484 762 499 747 508 725 c 1
 517 747 533 762 550 762 c 0
 578 762 600 726 600 679 c 0
 600 632 578 595 550 595 c 0
 533 595 517 610 508 632 c 1
 499 610 484 595 467 595 c 0
 449 595 434 611 425 634 c 1
 416 611 401 595 383 595 c 0
 366 595 351 610 342 632 c 1
 333 610 317 595 300 595 c 0
 283 595 267 610 258 632 c 1
 249 610 234 595 217 595 c 1
 199 595 184 611 175 634 c 1
 166 611 151 595 133 595 c 0
 116 595 101 610 92 632 c 1
 83 610 67 595 50 595 c 1
550 238 m 0
 522 238 500 274 500 321 c 0
 500 368 522 405 550 405 c 0
 578 405 600 368 600 321 c 0
 600 274 578 238 550 238 c 0
550 416 m 0
 522 416 500 453 500 500 c 0
 500 547 522 584 550 584 c 0
 578 584 600 547 600 500 c 0
 600 453 578 416 550 416 c 0
EndSplineSet
EndChar

StartChar: two
Encoding: 50 50 51
Width: 667
VWidth: -334
UnlinkRmOvrlpSave: 1
Flags: HW
HStem: 149 167<16.228 83.772 349.228 416.614 433.386 500.772> 238 167<266.228 333.772 516.228 583.772> 328 167<16.228 83.772> 416 168<183.228 250.772 516.228 583.772> 505 167<16.228 83.772> 595 167<99.0941 166.772 516.228 583.772> 684 167<16.228 83.772 433.228 500.772>
VStem: 0 100<163.186 302.131 341.869 480.814 519.186 623.53 735.469 836.814> 83 100<644.47 709.532> 167 100<430.186 569.814> 250 100<290.468 390.814> 333 184<189.173 264.531> 417 100<735.469 836.814> 500 100<290.468 390.814 430.186 569.814 609.186 709.532>
LayerCount: 2
Fore
SplineSet
50 149 m 0x81
 22 149 0 186 0 233 c 0
 0 280 22 316 50 316 c 0
 78 316 100 280 100 233 c 0
 100 186 78 149 50 149 c 0x81
50 328 m 0x21
 22 328 0 364 0 411 c 0
 0 458 22 495 50 495 c 0
 78 495 100 458 100 411 c 0
 100 364 78 328 50 328 c 0x21
50 505 m 0x09
 22 505 0 542 0 589 c 0x09
 0 636 22 672 50 672 c 0
 65 672 79 661 88 644 c 1
 85 654 83 666 83 679 c 0x0880
 83 691 85 700 87 710 c 1
 78 693 65 684 50 684 c 0
 22 684 0 720 0 767 c 0
 0 814 22 851 50 851 c 0
 78 851 100 814 100 767 c 0x0b
 100 755 98 745 96 735 c 1
 105 752 118 762 133 762 c 0
 161 762 183 726 183 679 c 0
 183 632 161 595 133 595 c 0x0480
 118 595 104 607 95 624 c 1
 98 614 100 602 100 589 c 0
 100 542 78 505 50 505 c 0x09
217 416 m 0x1040
 189 416 167 453 167 500 c 0
 167 547 189 584 217 584 c 0
 245 584 267 547 267 500 c 0
 267 453 245 416 217 416 c 0x1040
300 238 m 1x4010
 272 238 250 274 250 321 c 0
 250 368 272 405 300 405 c 0x4020
 328 405 350 368 350 321 c 0
 350 309 348 300 346 290 c 1
 355 307 368 316 383 316 c 1
 401 316 416 301 425 278 c 1
 434 301 449 316 467 316 c 0x8020
 482 316 495 307 504 290 c 1
 502 300 500 309 500 321 c 0
 500 368 522 405 550 405 c 0
 578 405 600 368 600 321 c 0
 600 274 578 238 550 238 c 0x4024
 535 238 522 248 513 265 c 1
 515 255 517 245 517 233 c 0
 517 186 495 149 467 149 c 0
 449 149 434 165 425 188 c 1
 416 165 401 149 383 149 c 0x8010
 355 149 333 186 333 233 c 0
 333 245 335 255 337 265 c 1
 328 248 315 238 300 238 c 1x4010
467 684 m 0x0204
 439 684 417 720 417 767 c 0
 417 814 439 851 467 851 c 0
 495 851 517 814 517 767 c 0x0208
 517 755 515 745 513 735 c 1
 522 752 535 762 550 762 c 0
 578 762 600 726 600 679 c 0
 600 632 578 595 550 595 c 0x0404
 522 595 500 632 500 679 c 0
 500 691 502 700 504 710 c 1
 495 693 482 684 467 684 c 0x0204
550 416 m 0x1004
 522 416 500 453 500 500 c 0
 500 547 522 584 550 584 c 0
 578 584 600 547 600 500 c 0
 600 453 578 416 550 416 c 0x1004
EndSplineSet
EndChar

StartChar: six
Encoding: 54 54 52
Width: 667
VWidth: -334
UnlinkRmOvrlpSave: 1
Flags: HW
HStem: 149 167<99.228 166.614 183.386 250.772> 238 167<16.228 83.772 266.228 333.772> 328 167<516.228 583.772> 416 168<16.228 83.772 266.228 333.772 434.122 500.772> 595 167<16.228 83.772 266.228 333.772> 684 167<99.228 166.614 183.386 250.772>
VStem: 0 100<290.468 390.814 430.186 569.814 609.186 709.532> 83 184<189.173 264.531 735.469 810.827> 250 100<290.468 390.814 430.186 531.531 644 710> 333 100<552 624> 417 100<468 537> 500 100<341.869 442.531>
LayerCount: 2
Fore
SplineSet
50 238 m 1x41
 22 238 0 274 0 321 c 0
 0 368 22 405 50 405 c 0x42
 78 405 100 368 100 321 c 0
 100 309 98 300 96 290 c 1
 105 307 118 316 133 316 c 1
 151 316 166 301 175 278 c 1
 184 301 199 316 217 316 c 1x82
 232 316 245 307 254 290 c 1
 252 300 250 309 250 321 c 0
 250 368 272 405 300 405 c 0
 328 405 350 368 350 321 c 0
 350 274 328 238 300 238 c 0x4280
 285 238 272 248 263 265 c 1
 265 255 267 245 267 233 c 0
 267 186 245 149 217 149 c 0
 199 149 184 165 175 188 c 1
 166 165 151 149 133 149 c 1x81
 105 149 83 186 83 233 c 0
 83 245 85 255 87 265 c 1
 78 248 65 238 50 238 c 1x41
50 416 m 0x12
 22 416 0 453 0 500 c 0
 0 547 22 584 50 584 c 0
 78 584 100 547 100 500 c 0
 100 453 78 416 50 416 c 0x12
50 595 m 0x0a80
 22 595 0 632 0 679 c 0
 0 726 22 762 50 762 c 0x0a80
 65 762 78 752 87 735 c 1
 85 745 83 755 83 767 c 0
 83 814 105 851 133 851 c 0
 151 851 166 835 175 812 c 1
 184 835 199 851 217 851 c 0
 245 851 267 814 267 767 c 0x05
 267 755 265 745 263 735 c 1
 272 752 285 762 300 762 c 0
 328 762 350 726 350 679 c 0x0880
 350 666 348 654 345 644 c 1
 354 661 368 672 383 672 c 1
 411 672 433 636 433 589 c 0x0840
 433 576 431 564 428 552 c 1
 437 570 451 584 467 584 c 1
 495 584 517 547 517 500 c 0x1820
 517 488 515 478 513 468 c 1
 522 485 535 495 550 495 c 1
 578 495 600 458 600 411 c 0
 600 364 578 328 550 328 c 0
 522 328 500 364 500 411 c 0x2010
 500 423 502 433 504 443 c 1
 495 426 482 416 467 416 c 1
 439 416 417 453 417 500 c 0
 417 513 419 525 422 537 c 1
 413 519 399 505 383 505 c 1
 368 505 355 515 346 532 c 1
 348 522 350 512 350 500 c 0
 350 453 328 416 300 416 c 0
 272 416 250 453 250 500 c 0x10a0
 250 547 272 584 300 584 c 0
 315 584 328 574 337 557 c 1
 335 567 333 577 333 589 c 0
 333 602 335 614 338 624 c 1
 329 607 315 595 300 595 c 1x1840
 272 595 250 632 250 679 c 0
 250 691 252 700 254 710 c 1
 245 693 232 684 217 684 c 0
 199 684 184 699 175 722 c 1
 166 699 151 684 133 684 c 0x0480
 118 684 105 693 96 710 c 1
 98 700 100 691 100 679 c 0
 100 632 78 595 50 595 c 0x0a80
EndSplineSet
EndChar

StartChar: colon
Encoding: 58 58 53
Width: 667
VWidth: -334
UnlinkRmOvrlpSave: 1
Flags: HW
HStem: 328 167<99.228 165.878 434.122 500.772> 416 168<16.228 84.3649 183.57 250.772 349.228 416.43 515.635 583.772> 505 167<99.228 165.878 434.122 500.772>
VStem: 0 100<468.469 531.531> 83 100<341.869 442.531 557.469 658.131> 167 100<463.563 536.437> 333 100<463.563 536.437> 417 100<341.869 442.531 557.469 658.131> 500 100<468.469 531.531>
LayerCount: 2
Fore
SplineSet
50 416 m 1x48
 22 416 0 453 0 500 c 0
 0 547 22 584 50 584 c 0x50
 65 584 78 574 87 557 c 1
 85 567 83 577 83 589 c 0
 83 636 105 672 133 672 c 0
 161 672 183 636 183 589 c 0x28
 183 576 181 564 178 552 c 1
 187 570 201 584 217 584 c 0
 245 584 267 547 267 500 c 0
 267 453 245 416 217 416 c 0x44
 201 416 187 430 178 448 c 1
 181 436 183 424 183 411 c 0
 183 364 161 328 133 328 c 0x88
 105 328 83 364 83 411 c 0
 83 423 85 433 87 443 c 1
 78 426 65 416 50 416 c 1x48
383 416 m 1
 355 416 333 453 333 500 c 0
 333 547 355 584 383 584 c 0x42
 399 584 413 570 422 552 c 1
 419 564 417 576 417 589 c 0
 417 636 439 672 467 672 c 0
 495 672 517 636 517 589 c 0x21
 517 577 515 567 513 557 c 1
 522 574 535 584 550 584 c 0
 578 584 600 547 600 500 c 0
 600 453 578 416 550 416 c 0x4080
 535 416 522 426 513 443 c 1
 515 433 517 423 517 411 c 0
 517 364 495 328 467 328 c 0
 439 328 417 364 417 411 c 0x81
 417 424 419 436 422 448 c 1
 413 430 399 416 383 416 c 1
96 468 m 1
 105 485 118 495 133 495 c 1
 149 495 163 481 172 463 c 1
 169 475 167 487 167 500 c 0
 167 513 169 525 172 537 c 1
 163 519 149 505 133 505 c 0
 118 505 105 515 96 532 c 1
 98 522 100 512 100 500 c 0xb4
 100 488 98 478 96 468 c 1
428 463 m 1
 437 481 451 495 467 495 c 1
 482 495 495 485 504 468 c 1
 502 478 500 488 500 500 c 0
 500 512 502 522 504 532 c 1
 495 515 482 505 467 505 c 0
 451 505 437 519 428 537 c 1
 431 525 433 513 433 500 c 0xa280
 433 487 431 475 428 463 c 1
EndSplineSet
EndChar

StartChar: greater
Encoding: 62 62 54
Width: 667
VWidth: -334
UnlinkRmOvrlpSave: 1
Flags: HW
HStem: 149 167<266.228 333.772> 328 167<183.228 250.772 349.228 416.772> 505 167<99.228 166.772 433.228 500.772> 684 167<16.228 83.772 516.228 583.772>
VStem: 0 100<697.869 836.814> 83 100<519.186 658.131> 167 100<341.869 480.814> 250 100<163.186 302.131> 333 100<341.869 480.814> 417 100<519.186 658.131> 500 100<697.869 836.814>
LayerCount: 2
Fore
SplineSet
50 684 m 0xf8
 22 684 0 720 0 767 c 0
 0 814 22 851 50 851 c 0
 78 851 100 814 100 767 c 0
 100 720 78 684 50 684 c 0xf8
133 505 m 0
 105 505 83 542 83 589 c 0
 83 636 105 672 133 672 c 0
 161 672 183 636 183 589 c 0xf4
 183 542 161 505 133 505 c 0
217 328 m 0
 189 328 167 364 167 411 c 0
 167 458 189 495 217 495 c 0
 245 495 267 458 267 411 c 0xf2
 267 364 245 328 217 328 c 0
300 149 m 0
 272 149 250 186 250 233 c 0
 250 280 272 316 300 316 c 0
 328 316 350 280 350 233 c 0xf1
 350 186 328 149 300 149 c 0
383 328 m 0
 355 328 333 364 333 411 c 0
 333 458 355 495 383 495 c 0
 411 495 433 458 433 411 c 0xf080
 433 364 411 328 383 328 c 0
467 505 m 0
 439 505 417 542 417 589 c 0
 417 636 439 672 467 672 c 0
 495 672 517 636 517 589 c 0xf040
 517 542 495 505 467 505 c 0
550 684 m 0
 522 684 500 720 500 767 c 0
 500 814 522 851 550 851 c 0
 578 851 600 814 600 767 c 0xf020
 600 720 578 684 550 684 c 0
EndSplineSet
EndChar

StartChar: B
Encoding: 66 66 55
Width: 667
VWidth: -334
UnlinkRmOvrlpSave: 1
Flags: HW
HStem: 149 167<99.228 166.614 183.386 250.772 349.228 416.614 433.386 500.772> 238 21G<292.5 307.5> 328 167<16.228 83.772 516.228 583.772> 505 167<16.228 83.772 516.228 583.772> 595 167<99.0941 166.614 183.386 250.188 265.969 334.031 349.812 416.614 433.386 500.906> 684 167<16.228 83.772 516.228 583.772>
VStem: 0 100<341.869 480.814 519.186 623.53 735.469 836.814> 83 184<189.173 263.912> 250 100<290.468 390.814 430.186 569.814> 333 184<189.173 263.912> 500 100<341.869 480.814 519.186 623.53 735.469 836.814>
LayerCount: 2
Fore
SplineSet
50 328 m 0x22
 22 328 0 364 0 411 c 0
 0 458 22 495 50 495 c 0
 78 495 100 458 100 411 c 0
 100 364 78 328 50 328 c 0x22
50 505 m 0x3220
 22 505 0 542 0 589 c 0x3220
 0 636 22 672 50 672 c 0
 65 672 79 661 88 644 c 1
 85 654 83 666 83 679 c 0x31
 83 691 85 700 87 710 c 1
 78 693 65 684 50 684 c 0
 22 684 0 720 0 767 c 0
 0 814 22 851 50 851 c 0x36
 78 851 100 814 100 767 c 0
 100 755 98 745 96 735 c 1
 105 752 118 762 133 762 c 0
 151 762 166 747 175 724 c 1
 184 747 199 762 217 762 c 0
 234 762 249 747 258 725 c 1
 267 747 283 762 300 762 c 1
 317 762 333 747 342 725 c 1
 351 747 366 762 383 762 c 0
 401 762 416 747 425 724 c 1
 434 747 449 762 467 762 c 0x2a
 482 762 495 752 504 735 c 1
 502 745 500 755 500 767 c 0
 500 814 522 851 550 851 c 0
 578 851 600 814 600 767 c 0x2620
 600 720 578 684 550 684 c 0
 535 684 522 693 513 710 c 1
 515 700 517 691 517 679 c 0x2440
 517 666 515 654 512 644 c 1
 521 661 535 672 550 672 c 1
 578 672 600 636 600 589 c 0
 600 542 578 505 550 505 c 0x3420
 522 505 500 542 500 589 c 0
 500 602 502 614 505 624 c 1
 496 607 482 595 467 595 c 1
 449 595 434 611 425 634 c 1
 416 611 401 595 383 595 c 0
 366 595 351 610 342 632 c 1
 333 610 317 595 300 595 c 0
 283 595 267 610 258 632 c 1
 249 610 234 595 217 595 c 1
 199 595 184 611 175 634 c 1
 166 611 151 595 133 595 c 0x2820
 118 595 104 607 95 624 c 1
 98 614 100 602 100 589 c 0
 100 542 78 505 50 505 c 0x3220
133 149 m 1xa140
 105 149 83 186 83 233 c 0xa140
 83 280 105 316 133 316 c 0
 151 316 166 301 175 278 c 1
 184 301 199 316 217 316 c 1
 232 316 245 307 254 290 c 1
 252 300 250 309 250 321 c 0
 250 368 272 405 300 405 c 0
 328 405 350 368 350 321 c 0xa080
 350 309 348 300 346 290 c 1
 355 307 368 316 383 316 c 1
 401 316 416 301 425 278 c 1
 434 301 449 316 467 316 c 0
 495 316 517 280 517 233 c 0
 517 186 495 149 467 149 c 0
 449 149 434 165 425 188 c 1
 416 165 401 149 383 149 c 0xa040
 355 149 333 186 333 233 c 0
 333 245 335 255 337 265 c 1
 328 248 315 238 300 238 c 1x6040
 285 238 272 248 263 265 c 1
 265 255 267 245 267 233 c 0
 267 186 245 149 217 149 c 0
 199 149 184 165 175 188 c 1
 166 165 151 149 133 149 c 1xa140
300 416 m 0
 272 416 250 453 250 500 c 0
 250 547 272 584 300 584 c 0
 328 584 350 547 350 500 c 0x2080
 350 453 328 416 300 416 c 0
550 328 m 0
 522 328 500 364 500 411 c 0
 500 458 522 495 550 495 c 0
 578 495 600 458 600 411 c 0x2020
 600 364 578 328 550 328 c 0
EndSplineSet
EndChar

StartChar: F
Encoding: 70 70 56
Width: 667
VWidth: -334
UnlinkRmOvrlpSave: 1
Flags: HW
HStem: 149 167<516.228 583.772> 328 167<266.228 333.772 516.228 583.772> 505 167<266.228 333.772 516.228 583.772> 684 167<16.228 84.0312 99.8125 166.614 183.386 250.188 265.969 334.031 349.812 416.614 433.386 500.188 515.969 583.772>
VStem: 250 100<341.869 480.814 519.186 658.131> 500 100<163.186 302.131 341.869 480.814 519.186 658.131>
LayerCount: 2
Fore
SplineSet
50 684 m 1
 22 684 0 720 0 767 c 0
 0 814 22 851 50 851 c 0
 67 851 83 836 92 814 c 1
 101 836 116 851 133 851 c 1
 151 851 166 835 175 812 c 1
 184 835 199 851 217 851 c 0
 234 851 249 836 258 814 c 1
 267 836 283 851 300 851 c 1
 317 851 333 836 342 814 c 1
 351 836 366 851 383 851 c 0
 401 851 416 835 425 812 c 1
 434 835 449 851 467 851 c 0
 484 851 499 836 508 814 c 1
 517 836 533 851 550 851 c 0
 578 851 600 814 600 767 c 0
 600 720 578 684 550 684 c 0
 533 684 517 698 508 720 c 1
 499 698 484 684 467 684 c 0
 449 684 434 699 425 722 c 1
 416 699 401 684 383 684 c 0
 366 684 351 698 342 720 c 1
 333 698 317 684 300 684 c 0
 283 684 267 698 258 720 c 1
 249 698 234 684 217 684 c 1
 199 684 184 699 175 722 c 1
 166 699 151 684 133 684 c 0
 116 684 101 698 92 720 c 1
 83 698 67 684 50 684 c 1
300 328 m 0
 272 328 250 364 250 411 c 0
 250 458 272 495 300 495 c 0
 328 495 350 458 350 411 c 0
 350 364 328 328 300 328 c 0
300 505 m 0
 272 505 250 542 250 589 c 0
 250 636 272 672 300 672 c 0
 328 672 350 636 350 589 c 0
 350 542 328 505 300 505 c 0
550 149 m 0
 522 149 500 186 500 233 c 0
 500 280 522 316 550 316 c 0
 578 316 600 280 600 233 c 0
 600 186 578 149 550 149 c 0
550 328 m 0
 522 328 500 364 500 411 c 0
 500 458 522 495 550 495 c 0
 578 495 600 458 600 411 c 0
 600 364 578 328 550 328 c 0
550 505 m 0
 522 505 500 542 500 589 c 0
 500 636 522 672 550 672 c 0
 578 672 600 636 600 589 c 0
 600 542 578 505 550 505 c 0
EndSplineSet
EndChar

StartChar: J
Encoding: 74 74 57
Width: 667
VWidth: -334
UnlinkRmOvrlpSave: 1
Flags: HW
HStem: 149 167<99.228 166.614 183.386 250.188 265.969 334.031 349.812 416.614 433.386 500.188 515.969 583.772> 238 167<16.228 83.772> 416 168<16.228 83.772> 595 167<16.228 83.772> 684 167<99.228 166.772>
VStem: 0 100<290.468 390.814 430.186 569.814 609.186 709.532> 83 100<735.469 836.814>
LayerCount: 2
Fore
SplineSet
50 238 m 1x62
 22 238 0 274 0 321 c 0
 0 368 22 405 50 405 c 0x64
 78 405 100 368 100 321 c 0
 100 309 98 300 96 290 c 1
 105 307 118 316 133 316 c 1
 151 316 166 301 175 278 c 1
 184 301 199 316 217 316 c 1
 234 316 249 302 258 280 c 1
 267 302 283 316 300 316 c 0
 317 316 333 302 342 280 c 1
 351 302 366 316 383 316 c 0
 401 316 416 301 425 278 c 1
 434 301 449 316 467 316 c 0
 484 316 499 302 508 280 c 1
 517 302 533 316 550 316 c 0
 578 316 600 280 600 233 c 0
 600 186 578 149 550 149 c 0
 533 149 517 164 508 186 c 1
 499 164 484 149 467 149 c 0
 449 149 434 165 425 188 c 1
 416 165 401 149 383 149 c 0
 366 149 351 164 342 186 c 1
 333 164 317 149 300 149 c 0
 283 149 267 164 258 186 c 1
 249 164 234 149 217 149 c 0
 199 149 184 165 175 188 c 1
 166 165 151 149 133 149 c 1xa4
 105 149 83 186 83 233 c 0
 83 245 85 255 87 265 c 1
 78 248 65 238 50 238 c 1x62
50 416 m 0
 22 416 0 453 0 500 c 0
 0 547 22 584 50 584 c 0
 78 584 100 547 100 500 c 0
 100 453 78 416 50 416 c 0
50 595 m 0x34
 22 595 0 632 0 679 c 0
 0 726 22 762 50 762 c 0x34
 65 762 78 752 87 735 c 1
 85 745 83 755 83 767 c 0
 83 814 105 851 133 851 c 0
 161 851 183 814 183 767 c 0
 183 720 161 684 133 684 c 0x2a
 118 684 105 693 96 710 c 1
 98 700 100 691 100 679 c 0
 100 632 78 595 50 595 c 0x34
EndSplineSet
EndChar

StartChar: N
Encoding: 78 78 58
Width: 667
VWidth: -334
UnlinkRmOvrlpSave: 1
Flags: HW
HStem: 149 167<16.228 83.772 183.228 250.188 265.969 334.031 349.812 416.614 433.386 500.188 515.969 583.772> 238 21G<125.5 141> 328 167<183.228 250.772> 416 168<266.228 333.772> 505 167<349.228 416.772> 684 167<16.228 84.0312 99.8125 166.614 183.386 250.188 265.969 334.031 349.812 416.772 516.228 583.772> 742 20G<459 474.5>
VStem: 0 100<163.186 264.531> 83 100<290.468 362.435> 167 100<370.564 442.531> 250 100<468.469 531.531> 333 100<557.469 629.436> 417 100<637.565 709.532> 500 100<735.469 836.814>
LayerCount: 2
Fore
SplineSet
50 149 m 0x8144
 22 149 0 186 0 233 c 0x8144
 0 280 22 316 50 316 c 0
 65 316 78 307 87 290 c 1
 85 300 83 309 83 321 c 0x8080
 83 368 105 405 133 405 c 0
 150 405 165 392 174 370 c 1
 170 382 167 396 167 411 c 0x8040
 167 458 189 495 217 495 c 0
 232 495 245 485 254 468 c 1
 252 478 250 488 250 500 c 0xa020
 250 547 272 584 300 584 c 0
 315 584 328 574 337 557 c 1
 335 567 333 577 333 589 c 0x1010
 333 636 355 672 383 672 c 0
 400 672 415 659 424 637 c 1
 420 649 417 664 417 679 c 0
 417 692 419 703 422 715 c 1
 413 697 399 684 383 684 c 1
 366 684 351 698 342 720 c 1
 333 698 317 684 300 684 c 0
 283 684 267 698 258 720 c 1
 249 698 234 684 217 684 c 1
 199 684 184 699 175 722 c 1
 166 699 151 684 133 684 c 0
 116 684 101 698 92 720 c 1
 83 698 67 684 50 684 c 1
 22 684 0 720 0 767 c 0
 0 814 22 851 50 851 c 0
 67 851 83 836 92 814 c 1
 101 836 116 851 133 851 c 1
 151 851 166 835 175 812 c 1
 184 835 199 851 217 851 c 0
 234 851 249 836 258 814 c 1
 267 836 283 851 300 851 c 1
 317 851 333 836 342 814 c 1
 351 836 366 851 383 851 c 0x0d08
 411 851 433 814 433 767 c 0
 433 754 431 742 428 730 c 1
 437 748 451 762 467 762 c 1x0310
 482 762 495 752 504 735 c 1
 502 745 500 755 500 767 c 0
 500 814 522 851 550 851 c 0
 578 851 600 814 600 767 c 0x0514
 600 720 578 684 550 684 c 0
 535 684 522 693 513 710 c 1
 515 700 517 691 517 679 c 0x0408
 517 632 495 595 467 595 c 0
 450 595 435 608 426 630 c 1
 430 618 433 604 433 589 c 0x0410
 433 542 411 505 383 505 c 0
 368 505 355 515 346 532 c 1
 348 522 350 512 350 500 c 0x0c20
 350 453 328 416 300 416 c 0
 285 416 272 426 263 443 c 1
 265 433 267 423 267 411 c 0x1040
 267 364 245 328 217 328 c 0
 200 328 185 341 176 363 c 1
 180 351 183 336 183 321 c 0
 183 308 181 297 178 285 c 1
 187 303 201 316 217 316 c 0
 234 316 249 302 258 280 c 1
 267 302 283 316 300 316 c 0
 317 316 333 302 342 280 c 1
 351 302 366 316 383 316 c 0
 401 316 416 301 425 278 c 1
 434 301 449 316 467 316 c 0
 484 316 499 302 508 280 c 1
 517 302 533 316 550 316 c 0
 578 316 600 280 600 233 c 0
 600 186 578 149 550 149 c 0
 533 149 517 164 508 186 c 1
 499 164 484 149 467 149 c 0
 449 149 434 165 425 188 c 1
 416 165 401 149 383 149 c 0
 366 149 351 164 342 186 c 1
 333 164 317 149 300 149 c 0
 283 149 267 164 258 186 c 1
 249 164 234 149 217 149 c 0xa084
 189 149 167 186 167 233 c 0
 167 246 169 258 172 270 c 1
 163 252 149 238 133 238 c 0x4044
 118 238 105 248 96 265 c 1
 98 255 100 245 100 233 c 0
 100 186 78 149 50 149 c 0x8144
EndSplineSet
EndChar

StartChar: R
Encoding: 82 82 59
Width: 667
VWidth: -334
UnlinkRmOvrlpSave: 1
Flags: HW
HStem: 149 167<16.228 83.772 349.228 416.614 433.386 500.772> 238 21G<125.5 147> 328 167<183.228 250.188 265.969 333.772 516.228 583.772> 505 167<266.228 333.772 516.228 583.772> 684 167<16.228 84.0312 99.8125 166.614 183.386 250.188 265.969 334.031 349.812 416.614 433.386 500.188 515.969 583.772>
VStem: 0 100<163.186 264.531> 83 100<290.468 362.435> 167 183<370.923 456.544> 250 100<519.186 658.131> 333 184<189.173 276.554> 500 100<341.869 480.814 519.186 658.131>
LayerCount: 2
Fore
SplineSet
50 149 m 0xbc
 22 149 0 186 0 233 c 0xbc
 0 280 22 316 50 316 c 0
 65 316 78 307 87 290 c 1
 85 300 83 309 83 321 c 0xba
 83 368 105 405 133 405 c 0
 150 405 165 392 174 370 c 1
 170 382 167 396 167 411 c 0
 167 458 189 495 217 495 c 0
 234 495 249 480 258 458 c 1
 267 480 283 495 300 495 c 0
 328 495 350 458 350 411 c 0xb9
 350 364 328 328 300 328 c 0
 283 328 267 343 258 365 c 1
 249 343 234 328 217 328 c 0
 200 328 185 341 176 363 c 1
 180 351 183 336 183 321 c 0
 183 274 161 238 133 238 c 0x7a
 118 238 105 248 96 265 c 1
 98 255 100 245 100 233 c 0
 100 186 78 149 50 149 c 0xbc
50 684 m 1
 22 684 0 720 0 767 c 0
 0 814 22 851 50 851 c 0
 67 851 83 836 92 814 c 1
 101 836 116 851 133 851 c 1
 151 851 166 835 175 812 c 1
 184 835 199 851 217 851 c 0
 234 851 249 836 258 814 c 1
 267 836 283 851 300 851 c 1
 317 851 333 836 342 814 c 1
 351 836 366 851 383 851 c 0
 401 851 416 835 425 812 c 1
 434 835 449 851 467 851 c 0
 484 851 499 836 508 814 c 1
 517 836 533 851 550 851 c 0
 578 851 600 814 600 767 c 0x3c20
 600 720 578 684 550 684 c 0
 533 684 517 698 508 720 c 1
 499 698 484 684 467 684 c 0
 449 684 434 699 425 722 c 1
 416 699 401 684 383 684 c 0
 366 684 351 698 342 720 c 1
 333 698 317 684 300 684 c 0
 283 684 267 698 258 720 c 1
 249 698 234 684 217 684 c 1
 199 684 184 699 175 722 c 1
 166 699 151 684 133 684 c 0
 116 684 101 698 92 720 c 1
 83 698 67 684 50 684 c 1
300 505 m 0
 272 505 250 542 250 589 c 0
 250 636 272 672 300 672 c 0
 328 672 350 636 350 589 c 0x3880
 350 542 328 505 300 505 c 0
383 149 m 0xb840
 355 149 333 186 333 233 c 0
 333 280 355 316 383 316 c 0
 401 316 416 301 425 278 c 1
 434 301 449 316 467 316 c 0
 495 316 517 280 517 233 c 0
 517 186 495 149 467 149 c 0
 449 149 434 165 425 188 c 1
 416 165 401 149 383 149 c 0xb840
550 328 m 0
 522 328 500 364 500 411 c 0
 500 458 522 495 550 495 c 0
 578 495 600 458 600 411 c 0x3820
 600 364 578 328 550 328 c 0
550 505 m 0
 522 505 500 542 500 589 c 0
 500 636 522 672 550 672 c 0
 578 672 600 636 600 589 c 0
 600 542 578 505 550 505 c 0
EndSplineSet
EndChar

StartChar: V
Encoding: 86 86 60
Width: 667
VWidth: -334
UnlinkRmOvrlpSave: 1
Flags: HW
HStem: 149 167<266.228 334.031 349.812 416.614 433.386 500.188 515.969 583.772> 238 167<182.726 250.772> 328 167<99.228 166.772> 416 168<16.228 84.3649> 505 167<99.228 166.772> 595 167<182.726 250.772> 684 167<266.228 334.031 349.812 416.614 433.386 500.188 515.969 583.772>
VStem: 0 100<468.469 531.531> 83 100<370.564 442.531 557.469 629.436> 167 100<290.468 362.435 637.565 709.532>
LayerCount: 2
Fore
SplineSet
50 416 m 1x1080
 22 416 0 453 0 500 c 0
 0 547 22 584 50 584 c 0x11
 65 584 78 574 87 557 c 1
 85 567 83 577 83 589 c 0
 83 636 105 672 133 672 c 0x0880
 150 672 165 659 174 637 c 1
 170 649 167 664 167 679 c 0
 167 726 189 762 217 762 c 0x0440
 232 762 245 752 254 735 c 1
 252 745 250 755 250 767 c 0
 250 814 272 851 300 851 c 0
 317 851 333 836 342 814 c 1
 351 836 366 851 383 851 c 0
 401 851 416 835 425 812 c 1
 434 835 449 851 467 851 c 0
 484 851 499 836 508 814 c 1
 517 836 533 851 550 851 c 0
 578 851 600 814 600 767 c 0
 600 720 578 684 550 684 c 0
 533 684 517 698 508 720 c 1
 499 698 484 684 467 684 c 0
 449 684 434 699 425 722 c 1
 416 699 401 684 383 684 c 0
 366 684 351 698 342 720 c 1
 333 698 317 684 300 684 c 0
 285 684 272 693 263 710 c 1
 265 700 267 691 267 679 c 0x0240
 267 632 245 595 217 595 c 0
 200 595 185 608 176 630 c 1
 180 618 183 604 183 589 c 0x0480
 183 542 161 505 133 505 c 0
 118 505 105 515 96 532 c 1
 98 522 100 512 100 500 c 0
 100 488 98 478 96 468 c 1
 105 485 118 495 133 495 c 1x29
 161 495 183 458 183 411 c 0
 183 396 180 382 176 370 c 1
 185 392 200 405 217 405 c 1x4080
 245 405 267 368 267 321 c 0
 267 309 265 300 263 290 c 1
 272 307 285 316 300 316 c 1
 317 316 333 302 342 280 c 1
 351 302 366 316 383 316 c 0
 401 316 416 301 425 278 c 1
 434 301 449 316 467 316 c 0
 484 316 499 302 508 280 c 1
 517 302 533 316 550 316 c 0
 578 316 600 280 600 233 c 0
 600 186 578 149 550 149 c 0
 533 149 517 164 508 186 c 1
 499 164 484 149 467 149 c 0
 449 149 434 165 425 188 c 1
 416 165 401 149 383 149 c 0
 366 149 351 164 342 186 c 1
 333 164 317 149 300 149 c 0x8040
 272 149 250 186 250 233 c 0
 250 245 252 255 254 265 c 1
 245 248 232 238 217 238 c 1x4040
 189 238 167 274 167 321 c 0
 167 336 170 351 174 363 c 1
 165 341 150 328 133 328 c 1x2040
 105 328 83 364 83 411 c 0
 83 423 85 433 87 443 c 1
 78 426 65 416 50 416 c 1x1080
EndSplineSet
EndChar

StartChar: Z
Encoding: 90 90 61
Width: 667
VWidth: -334
UnlinkRmOvrlpSave: 1
Flags: HW
HStem: 149 167<16.228 83.772 516.228 583.772> 238 21G<453 474.5> 328 167<16.228 83.772 349.228 416.772 516.228 583.772> 505 167<16.228 83.772 183.228 250.772 516.228 583.772> 684 167<16.228 83.772 516.228 583.772> 742 20G<125.5 147>
VStem: 0 100<163.186 302.131 341.869 480.814 519.186 623.53 735.469 836.814> 83 100<644.47 709.532> 167 100<557.469 629.436> 250 100<468 532> 333 100<370.564 442.531> 417 100<290.468 355.53> 500 100<163.186 264.531 376.47 480.814 519.186 658.131 697.869 836.814>
LayerCount: 2
Fore
SplineSet
50 149 m 0xb2
 22 149 0 186 0 233 c 0
 0 280 22 316 50 316 c 0
 78 316 100 280 100 233 c 0
 100 186 78 149 50 149 c 0xb2
50 328 m 0
 22 328 0 364 0 411 c 0
 0 458 22 495 50 495 c 0
 78 495 100 458 100 411 c 0
 100 364 78 328 50 328 c 0
50 505 m 0
 22 505 0 542 0 589 c 0x7280
 0 636 22 672 50 672 c 0
 65 672 79 661 88 644 c 1
 85 654 83 666 83 679 c 0x71
 83 691 85 700 87 710 c 1
 78 693 65 684 50 684 c 0
 22 684 0 720 0 767 c 0
 0 814 22 851 50 851 c 0
 78 851 100 814 100 767 c 0x7a
 100 755 98 745 96 735 c 1
 105 752 118 762 133 762 c 0
 161 762 183 726 183 679 c 0x35
 183 664 180 649 176 637 c 1
 185 659 200 672 217 672 c 0
 245 672 267 636 267 589 c 0x3480
 267 577 265 567 263 557 c 1
 272 574 285 584 300 584 c 0
 328 584 350 547 350 500 c 0x3440
 350 488 348 478 346 468 c 1
 355 485 368 495 383 495 c 1
 411 495 433 458 433 411 c 0
 433 396 430 382 426 370 c 1
 435 392 450 405 467 405 c 1
 482 405 496 393 505 376 c 1
 502 386 500 398 500 411 c 0
 500 458 522 495 550 495 c 0
 578 495 600 458 600 411 c 0x3428
 600 364 578 328 550 328 c 0
 535 328 521 339 512 356 c 1
 515 346 517 334 517 321 c 0x3410
 517 309 515 300 513 290 c 1
 522 307 535 316 550 316 c 1
 578 316 600 280 600 233 c 0
 600 186 578 149 550 149 c 0
 522 149 500 186 500 233 c 0xb408
 500 245 502 255 504 265 c 1
 495 248 482 238 467 238 c 1
 439 238 417 274 417 321 c 0x7010
 417 336 420 351 424 363 c 1
 415 341 400 328 383 328 c 1
 355 328 333 364 333 411 c 0x7020
 333 423 335 433 337 443 c 1
 328 426 315 416 300 416 c 1
 272 416 250 453 250 500 c 0x7040
 250 512 252 522 254 532 c 1
 245 515 232 505 217 505 c 0
 189 505 167 542 167 589 c 0x7080
 167 604 170 618 174 630 c 1
 165 608 150 595 133 595 c 0
 118 595 104 607 95 624 c 1
 98 614 100 602 100 589 c 0
 100 542 78 505 50 505 c 0
550 505 m 0
 522 505 500 542 500 589 c 0
 500 636 522 672 550 672 c 0
 578 672 600 636 600 589 c 0x3008
 600 542 578 505 550 505 c 0
550 684 m 0x3808
 522 684 500 720 500 767 c 0
 500 814 522 851 550 851 c 0
 578 851 600 814 600 767 c 0
 600 720 578 684 550 684 c 0x3808
EndSplineSet
EndChar

StartChar: asciicircum
Encoding: 94 94 62
Width: 667
VWidth: -334
UnlinkRmOvrlpSave: 1
Flags: HW
HStem: 138 167<319.228 377.004> 416 168<106.228 173.772 213.228 280.772 319.228 373.718 441.281 493.772> 695 167<319.228 377.004>
VStem: 90 100<430.186 569.814> 197 100<430.186 569.814> 303 100<151.869 289.289 437.709 562.291 710.711 848.131> 357 100<294.148 422.292 577.708 705.852> 410 100<438.974 561.026>
CounterMasks: 1 e0
LayerCount: 2
Fore
SplineSet
403 221 m 1xfc
 403 174 381 138 353 138 c 0
 325 138 303 174 303 221 c 0xfc
 303 268 325 305 353 305 c 0
 362 305 371 300 378 293 c 1
 365 308 357 333 357 361 c 1xfa
 357 386 364 410 374 425 c 1
 368 420 361 416 353 416 c 0
 325 416 303 453 303 500 c 0xfc
 303 547 325 584 353 584 c 0
 361 584 368 580 374 575 c 1
 364 590 357 614 357 639 c 0xfa
 357 667 365 692 378 707 c 1
 371 700 362 695 353 695 c 0
 325 695 303 732 303 779 c 0
 303 826 325 862 353 862 c 0
 381 862 403 826 403 779 c 0xfc
 403 751 395 725 382 710 c 1
 389 717 398 722 407 722 c 0
 435 722 457 686 457 639 c 0xfa
 457 614 451 592 441 577 c 1
 447 580 453 584 460 584 c 0
 488 584 510 547 510 500 c 0xf9
 510 453 488 416 460 416 c 0
 453 416 447 420 441 423 c 1
 451 408 457 386 457 361 c 1xfa
 457 314 435 278 407 278 c 0
 398 278 389 283 382 290 c 1
 395 275 403 249 403 221 c 1xfc
297 500 m 0
 297 453 275 416 247 416 c 0
 219 416 197 453 197 500 c 0
 197 547 219 584 247 584 c 0
 275 584 297 547 297 500 c 0
190 500 m 0
 190 453 168 416 140 416 c 0
 112 416 90 453 90 500 c 0
 90 547 112 584 140 584 c 0
 168 584 190 547 190 500 c 0
426 438 m 1
 416 453 410 475 410 500 c 1xfd
 410 525 416 547 426 562 c 1
 420 559 414 555 407 555 c 0
 399 555 392 558 386 563 c 1
 396 548 403 525 403 500 c 0
 403 475 396 452 386 437 c 1
 392 442 399 445 407 445 c 0
 414 445 420 441 426 438 c 1
EndSplineSet
EndChar

StartChar: b
Encoding: 98 98 63
Width: 667
VWidth: -334
UnlinkRmOvrlpSave: 1
Flags: HW
HStem: 149 167<99.228 166.614 183.386 250.772 349.228 416.614 433.386 500.772> 238 21G<292.5 307.5> 328 167<16.228 83.772 516.228 583.772> 505 167<16.228 83.772 516.228 583.772> 595 167<99.0941 166.614 183.386 250.188 265.969 334.031 349.812 416.614 433.386 500.906> 684 167<16.228 83.772 516.228 583.772>
VStem: 0 100<341.869 480.814 519.186 623.53 735.469 836.814> 83 184<189.173 263.912> 250 100<290.468 390.814 430.186 569.814> 333 184<189.173 263.912> 500 100<341.869 480.814 519.186 623.53 735.469 836.814>
LayerCount: 2
Fore
SplineSet
50 328 m 0x22
 22 328 0 364 0 411 c 0
 0 458 22 495 50 495 c 0
 78 495 100 458 100 411 c 0
 100 364 78 328 50 328 c 0x22
50 505 m 0x3220
 22 505 0 542 0 589 c 0x3220
 0 636 22 672 50 672 c 0
 65 672 79 661 88 644 c 1
 85 654 83 666 83 679 c 0x31
 83 691 85 700 87 710 c 1
 78 693 65 684 50 684 c 0
 22 684 0 720 0 767 c 0
 0 814 22 851 50 851 c 0x36
 78 851 100 814 100 767 c 0
 100 755 98 745 96 735 c 1
 105 752 118 762 133 762 c 0
 151 762 166 747 175 724 c 1
 184 747 199 762 217 762 c 0
 234 762 249 747 258 725 c 1
 267 747 283 762 300 762 c 1
 317 762 333 747 342 725 c 1
 351 747 366 762 383 762 c 0
 401 762 416 747 425 724 c 1
 434 747 449 762 467 762 c 0x2a
 482 762 495 752 504 735 c 1
 502 745 500 755 500 767 c 0
 500 814 522 851 550 851 c 0
 578 851 600 814 600 767 c 0x2620
 600 720 578 684 550 684 c 0
 535 684 522 693 513 710 c 1
 515 700 517 691 517 679 c 0x2440
 517 666 515 654 512 644 c 1
 521 661 535 672 550 672 c 1
 578 672 600 636 600 589 c 0
 600 542 578 505 550 505 c 0x3420
 522 505 500 542 500 589 c 0
 500 602 502 614 505 624 c 1
 496 607 482 595 467 595 c 1
 449 595 434 611 425 634 c 1
 416 611 401 595 383 595 c 0
 366 595 351 610 342 632 c 1
 333 610 317 595 300 595 c 0
 283 595 267 610 258 632 c 1
 249 610 234 595 217 595 c 1
 199 595 184 611 175 634 c 1
 166 611 151 595 133 595 c 0x2820
 118 595 104 607 95 624 c 1
 98 614 100 602 100 589 c 0
 100 542 78 505 50 505 c 0x3220
133 149 m 1xa140
 105 149 83 186 83 233 c 0xa140
 83 280 105 316 133 316 c 0
 151 316 166 301 175 278 c 1
 184 301 199 316 217 316 c 1
 232 316 245 307 254 290 c 1
 252 300 250 309 250 321 c 0
 250 368 272 405 300 405 c 0
 328 405 350 368 350 321 c 0xa080
 350 309 348 300 346 290 c 1
 355 307 368 316 383 316 c 1
 401 316 416 301 425 278 c 1
 434 301 449 316 467 316 c 0
 495 316 517 280 517 233 c 0
 517 186 495 149 467 149 c 0
 449 149 434 165 425 188 c 1
 416 165 401 149 383 149 c 0xa040
 355 149 333 186 333 233 c 0
 333 245 335 255 337 265 c 1
 328 248 315 238 300 238 c 1x6040
 285 238 272 248 263 265 c 1
 265 255 267 245 267 233 c 0
 267 186 245 149 217 149 c 0
 199 149 184 165 175 188 c 1
 166 165 151 149 133 149 c 1xa140
300 416 m 0
 272 416 250 453 250 500 c 0
 250 547 272 584 300 584 c 0
 328 584 350 547 350 500 c 0x2080
 350 453 328 416 300 416 c 0
550 328 m 0
 522 328 500 364 500 411 c 0
 500 458 522 495 550 495 c 0
 578 495 600 458 600 411 c 0x2020
 600 364 578 328 550 328 c 0
EndSplineSet
EndChar

StartChar: f
Encoding: 102 102 64
Width: 667
VWidth: -334
UnlinkRmOvrlpSave: 1
Flags: HW
HStem: 149 167<516.228 583.772> 328 167<266.228 333.772 516.228 583.772> 505 167<266.228 333.772 516.228 583.772> 684 167<16.228 84.0312 99.8125 166.614 183.386 250.188 265.969 334.031 349.812 416.614 433.386 500.188 515.969 583.772>
VStem: 250 100<341.869 480.814 519.186 658.131> 500 100<163.186 302.131 341.869 480.814 519.186 658.131>
LayerCount: 2
Fore
SplineSet
50 684 m 1
 22 684 0 720 0 767 c 0
 0 814 22 851 50 851 c 0
 67 851 83 836 92 814 c 1
 101 836 116 851 133 851 c 1
 151 851 166 835 175 812 c 1
 184 835 199 851 217 851 c 0
 234 851 249 836 258 814 c 1
 267 836 283 851 300 851 c 1
 317 851 333 836 342 814 c 1
 351 836 366 851 383 851 c 0
 401 851 416 835 425 812 c 1
 434 835 449 851 467 851 c 0
 484 851 499 836 508 814 c 1
 517 836 533 851 550 851 c 0
 578 851 600 814 600 767 c 0
 600 720 578 684 550 684 c 0
 533 684 517 698 508 720 c 1
 499 698 484 684 467 684 c 0
 449 684 434 699 425 722 c 1
 416 699 401 684 383 684 c 0
 366 684 351 698 342 720 c 1
 333 698 317 684 300 684 c 0
 283 684 267 698 258 720 c 1
 249 698 234 684 217 684 c 1
 199 684 184 699 175 722 c 1
 166 699 151 684 133 684 c 0
 116 684 101 698 92 720 c 1
 83 698 67 684 50 684 c 1
300 328 m 0
 272 328 250 364 250 411 c 0
 250 458 272 495 300 495 c 0
 328 495 350 458 350 411 c 0
 350 364 328 328 300 328 c 0
300 505 m 0
 272 505 250 542 250 589 c 0
 250 636 272 672 300 672 c 0
 328 672 350 636 350 589 c 0
 350 542 328 505 300 505 c 0
550 149 m 0
 522 149 500 186 500 233 c 0
 500 280 522 316 550 316 c 0
 578 316 600 280 600 233 c 0
 600 186 578 149 550 149 c 0
550 328 m 0
 522 328 500 364 500 411 c 0
 500 458 522 495 550 495 c 0
 578 495 600 458 600 411 c 0
 600 364 578 328 550 328 c 0
550 505 m 0
 522 505 500 542 500 589 c 0
 500 636 522 672 550 672 c 0
 578 672 600 636 600 589 c 0
 600 542 578 505 550 505 c 0
EndSplineSet
EndChar

StartChar: j
Encoding: 106 106 65
Width: 667
VWidth: -334
UnlinkRmOvrlpSave: 1
Flags: HW
HStem: 149 167<99.228 166.614 183.386 250.188 265.969 334.031 349.812 416.614 433.386 500.188 515.969 583.772> 238 167<16.228 83.772> 416 168<16.228 83.772> 595 167<16.228 83.772> 684 167<99.228 166.772>
VStem: 0 100<290.468 390.814 430.186 569.814 609.186 709.532> 83 100<735.469 836.814>
LayerCount: 2
Fore
SplineSet
50 238 m 1x62
 22 238 0 274 0 321 c 0
 0 368 22 405 50 405 c 0x64
 78 405 100 368 100 321 c 0
 100 309 98 300 96 290 c 1
 105 307 118 316 133 316 c 1
 151 316 166 301 175 278 c 1
 184 301 199 316 217 316 c 1
 234 316 249 302 258 280 c 1
 267 302 283 316 300 316 c 0
 317 316 333 302 342 280 c 1
 351 302 366 316 383 316 c 0
 401 316 416 301 425 278 c 1
 434 301 449 316 467 316 c 0
 484 316 499 302 508 280 c 1
 517 302 533 316 550 316 c 0
 578 316 600 280 600 233 c 0
 600 186 578 149 550 149 c 0
 533 149 517 164 508 186 c 1
 499 164 484 149 467 149 c 0
 449 149 434 165 425 188 c 1
 416 165 401 149 383 149 c 0
 366 149 351 164 342 186 c 1
 333 164 317 149 300 149 c 0
 283 149 267 164 258 186 c 1
 249 164 234 149 217 149 c 0
 199 149 184 165 175 188 c 1
 166 165 151 149 133 149 c 1xa4
 105 149 83 186 83 233 c 0
 83 245 85 255 87 265 c 1
 78 248 65 238 50 238 c 1x62
50 416 m 0
 22 416 0 453 0 500 c 0
 0 547 22 584 50 584 c 0
 78 584 100 547 100 500 c 0
 100 453 78 416 50 416 c 0
50 595 m 0x34
 22 595 0 632 0 679 c 0
 0 726 22 762 50 762 c 0x34
 65 762 78 752 87 735 c 1
 85 745 83 755 83 767 c 0
 83 814 105 851 133 851 c 0
 161 851 183 814 183 767 c 0
 183 720 161 684 133 684 c 0x2a
 118 684 105 693 96 710 c 1
 98 700 100 691 100 679 c 0
 100 632 78 595 50 595 c 0x34
EndSplineSet
EndChar

StartChar: n
Encoding: 110 110 66
Width: 667
VWidth: -334
UnlinkRmOvrlpSave: 1
Flags: HW
HStem: 149 167<16.228 83.772 183.228 250.188 265.969 334.031 349.812 416.614 433.386 500.188 515.969 583.772> 238 21G<125.5 141> 328 167<183.228 250.772> 416 168<266.228 333.772> 505 167<349.228 416.772> 684 167<16.228 84.0312 99.8125 166.614 183.386 250.188 265.969 334.031 349.812 416.772 516.228 583.772> 742 20G<459 474.5>
VStem: 0 100<163.186 264.531> 83 100<290.468 362.435> 167 100<370.564 442.531> 250 100<468.469 531.531> 333 100<557.469 629.436> 417 100<637.565 709.532> 500 100<735.469 836.814>
LayerCount: 2
Fore
SplineSet
50 149 m 0x8144
 22 149 0 186 0 233 c 0x8144
 0 280 22 316 50 316 c 0
 65 316 78 307 87 290 c 1
 85 300 83 309 83 321 c 0x8080
 83 368 105 405 133 405 c 0
 150 405 165 392 174 370 c 1
 170 382 167 396 167 411 c 0x8040
 167 458 189 495 217 495 c 0
 232 495 245 485 254 468 c 1
 252 478 250 488 250 500 c 0xa020
 250 547 272 584 300 584 c 0
 315 584 328 574 337 557 c 1
 335 567 333 577 333 589 c 0x1010
 333 636 355 672 383 672 c 0
 400 672 415 659 424 637 c 1
 420 649 417 664 417 679 c 0
 417 692 419 703 422 715 c 1
 413 697 399 684 383 684 c 1
 366 684 351 698 342 720 c 1
 333 698 317 684 300 684 c 0
 283 684 267 698 258 720 c 1
 249 698 234 684 217 684 c 1
 199 684 184 699 175 722 c 1
 166 699 151 684 133 684 c 0
 116 684 101 698 92 720 c 1
 83 698 67 684 50 684 c 1
 22 684 0 720 0 767 c 0
 0 814 22 851 50 851 c 0
 67 851 83 836 92 814 c 1
 101 836 116 851 133 851 c 1
 151 851 166 835 175 812 c 1
 184 835 199 851 217 851 c 0
 234 851 249 836 258 814 c 1
 267 836 283 851 300 851 c 1
 317 851 333 836 342 814 c 1
 351 836 366 851 383 851 c 0x0d08
 411 851 433 814 433 767 c 0
 433 754 431 742 428 730 c 1
 437 748 451 762 467 762 c 1x0310
 482 762 495 752 504 735 c 1
 502 745 500 755 500 767 c 0
 500 814 522 851 550 851 c 0
 578 851 600 814 600 767 c 0x0514
 600 720 578 684 550 684 c 0
 535 684 522 693 513 710 c 1
 515 700 517 691 517 679 c 0x0408
 517 632 495 595 467 595 c 0
 450 595 435 608 426 630 c 1
 430 618 433 604 433 589 c 0x0410
 433 542 411 505 383 505 c 0
 368 505 355 515 346 532 c 1
 348 522 350 512 350 500 c 0x0c20
 350 453 328 416 300 416 c 0
 285 416 272 426 263 443 c 1
 265 433 267 423 267 411 c 0x1040
 267 364 245 328 217 328 c 0
 200 328 185 341 176 363 c 1
 180 351 183 336 183 321 c 0
 183 308 181 297 178 285 c 1
 187 303 201 316 217 316 c 0
 234 316 249 302 258 280 c 1
 267 302 283 316 300 316 c 0
 317 316 333 302 342 280 c 1
 351 302 366 316 383 316 c 0
 401 316 416 301 425 278 c 1
 434 301 449 316 467 316 c 0
 484 316 499 302 508 280 c 1
 517 302 533 316 550 316 c 0
 578 316 600 280 600 233 c 0
 600 186 578 149 550 149 c 0
 533 149 517 164 508 186 c 1
 499 164 484 149 467 149 c 0
 449 149 434 165 425 188 c 1
 416 165 401 149 383 149 c 0
 366 149 351 164 342 186 c 1
 333 164 317 149 300 149 c 0
 283 149 267 164 258 186 c 1
 249 164 234 149 217 149 c 0xa084
 189 149 167 186 167 233 c 0
 167 246 169 258 172 270 c 1
 163 252 149 238 133 238 c 0x4044
 118 238 105 248 96 265 c 1
 98 255 100 245 100 233 c 0
 100 186 78 149 50 149 c 0x8144
EndSplineSet
EndChar

StartChar: r
Encoding: 114 114 67
Width: 667
VWidth: -334
UnlinkRmOvrlpSave: 1
Flags: HW
HStem: 149 167<16.228 83.772 349.228 416.614 433.386 500.772> 238 21G<125.5 147> 328 167<183.228 250.188 265.969 333.772 516.228 583.772> 505 167<266.228 333.772 516.228 583.772> 684 167<16.228 84.0312 99.8125 166.614 183.386 250.188 265.969 334.031 349.812 416.614 433.386 500.188 515.969 583.772>
VStem: 0 100<163.186 264.531> 83 100<290.468 362.435> 167 183<370.923 456.544> 250 100<519.186 658.131> 333 184<189.173 276.554> 500 100<341.869 480.814 519.186 658.131>
LayerCount: 2
Fore
SplineSet
50 149 m 0xbc
 22 149 0 186 0 233 c 0xbc
 0 280 22 316 50 316 c 0
 65 316 78 307 87 290 c 1
 85 300 83 309 83 321 c 0xba
 83 368 105 405 133 405 c 0
 150 405 165 392 174 370 c 1
 170 382 167 396 167 411 c 0
 167 458 189 495 217 495 c 0
 234 495 249 480 258 458 c 1
 267 480 283 495 300 495 c 0
 328 495 350 458 350 411 c 0xb9
 350 364 328 328 300 328 c 0
 283 328 267 343 258 365 c 1
 249 343 234 328 217 328 c 0
 200 328 185 341 176 363 c 1
 180 351 183 336 183 321 c 0
 183 274 161 238 133 238 c 0x7a
 118 238 105 248 96 265 c 1
 98 255 100 245 100 233 c 0
 100 186 78 149 50 149 c 0xbc
50 684 m 1
 22 684 0 720 0 767 c 0
 0 814 22 851 50 851 c 0
 67 851 83 836 92 814 c 1
 101 836 116 851 133 851 c 1
 151 851 166 835 175 812 c 1
 184 835 199 851 217 851 c 0
 234 851 249 836 258 814 c 1
 267 836 283 851 300 851 c 1
 317 851 333 836 342 814 c 1
 351 836 366 851 383 851 c 0
 401 851 416 835 425 812 c 1
 434 835 449 851 467 851 c 0
 484 851 499 836 508 814 c 1
 517 836 533 851 550 851 c 0
 578 851 600 814 600 767 c 0x3c20
 600 720 578 684 550 684 c 0
 533 684 517 698 508 720 c 1
 499 698 484 684 467 684 c 0
 449 684 434 699 425 722 c 1
 416 699 401 684 383 684 c 0
 366 684 351 698 342 720 c 1
 333 698 317 684 300 684 c 0
 283 684 267 698 258 720 c 1
 249 698 234 684 217 684 c 1
 199 684 184 699 175 722 c 1
 166 699 151 684 133 684 c 0
 116 684 101 698 92 720 c 1
 83 698 67 684 50 684 c 1
300 505 m 0
 272 505 250 542 250 589 c 0
 250 636 272 672 300 672 c 0
 328 672 350 636 350 589 c 0x3880
 350 542 328 505 300 505 c 0
383 149 m 0xb840
 355 149 333 186 333 233 c 0
 333 280 355 316 383 316 c 0
 401 316 416 301 425 278 c 1
 434 301 449 316 467 316 c 0
 495 316 517 280 517 233 c 0
 517 186 495 149 467 149 c 0
 449 149 434 165 425 188 c 1
 416 165 401 149 383 149 c 0xb840
550 328 m 0
 522 328 500 364 500 411 c 0
 500 458 522 495 550 495 c 0
 578 495 600 458 600 411 c 0x3820
 600 364 578 328 550 328 c 0
550 505 m 0
 522 505 500 542 500 589 c 0
 500 636 522 672 550 672 c 0
 578 672 600 636 600 589 c 0
 600 542 578 505 550 505 c 0
EndSplineSet
EndChar

StartChar: v
Encoding: 118 118 68
Width: 667
VWidth: -334
UnlinkRmOvrlpSave: 1
Flags: HW
HStem: 149 167<266.228 334.031 349.812 416.614 433.386 500.188 515.969 583.772> 238 167<182.726 250.772> 328 167<99.228 166.772> 416 168<16.228 84.3649> 505 167<99.228 166.772> 595 167<182.726 250.772> 684 167<266.228 334.031 349.812 416.614 433.386 500.188 515.969 583.772>
VStem: 0 100<468.469 531.531> 83 100<370.564 442.531 557.469 629.436> 167 100<290.468 362.435 637.565 709.532>
LayerCount: 2
Fore
SplineSet
50 416 m 1x1080
 22 416 0 453 0 500 c 0
 0 547 22 584 50 584 c 0x11
 65 584 78 574 87 557 c 1
 85 567 83 577 83 589 c 0
 83 636 105 672 133 672 c 0x0880
 150 672 165 659 174 637 c 1
 170 649 167 664 167 679 c 0
 167 726 189 762 217 762 c 0x0440
 232 762 245 752 254 735 c 1
 252 745 250 755 250 767 c 0
 250 814 272 851 300 851 c 0
 317 851 333 836 342 814 c 1
 351 836 366 851 383 851 c 0
 401 851 416 835 425 812 c 1
 434 835 449 851 467 851 c 0
 484 851 499 836 508 814 c 1
 517 836 533 851 550 851 c 0
 578 851 600 814 600 767 c 0
 600 720 578 684 550 684 c 0
 533 684 517 698 508 720 c 1
 499 698 484 684 467 684 c 0
 449 684 434 699 425 722 c 1
 416 699 401 684 383 684 c 0
 366 684 351 698 342 720 c 1
 333 698 317 684 300 684 c 0
 285 684 272 693 263 710 c 1
 265 700 267 691 267 679 c 0x0240
 267 632 245 595 217 595 c 0
 200 595 185 608 176 630 c 1
 180 618 183 604 183 589 c 0x0480
 183 542 161 505 133 505 c 0
 118 505 105 515 96 532 c 1
 98 522 100 512 100 500 c 0
 100 488 98 478 96 468 c 1
 105 485 118 495 133 495 c 1x29
 161 495 183 458 183 411 c 0
 183 396 180 382 176 370 c 1
 185 392 200 405 217 405 c 1x4080
 245 405 267 368 267 321 c 0
 267 309 265 300 263 290 c 1
 272 307 285 316 300 316 c 1
 317 316 333 302 342 280 c 1
 351 302 366 316 383 316 c 0
 401 316 416 301 425 278 c 1
 434 301 449 316 467 316 c 0
 484 316 499 302 508 280 c 1
 517 302 533 316 550 316 c 0
 578 316 600 280 600 233 c 0
 600 186 578 149 550 149 c 0
 533 149 517 164 508 186 c 1
 499 164 484 149 467 149 c 0
 449 149 434 165 425 188 c 1
 416 165 401 149 383 149 c 0
 366 149 351 164 342 186 c 1
 333 164 317 149 300 149 c 0x8040
 272 149 250 186 250 233 c 0
 250 245 252 255 254 265 c 1
 245 248 232 238 217 238 c 1x4040
 189 238 167 274 167 321 c 0
 167 336 170 351 174 363 c 1
 165 341 150 328 133 328 c 1x2040
 105 328 83 364 83 411 c 0
 83 423 85 433 87 443 c 1
 78 426 65 416 50 416 c 1x1080
EndSplineSet
EndChar

StartChar: z
Encoding: 122 122 69
Width: 667
VWidth: -334
UnlinkRmOvrlpSave: 1
Flags: HW
HStem: 149 167<16.228 83.772 516.228 583.772> 238 21G<453 474.5> 328 167<16.228 83.772 349.228 416.772 516.228 583.772> 505 167<16.228 83.772 183.228 250.772 516.228 583.772> 684 167<16.228 83.772 516.228 583.772> 742 20G<125.5 147>
VStem: 0 100<163.186 302.131 341.869 480.814 519.186 623.53 735.469 836.814> 83 100<644.47 709.532> 167 100<557.469 629.436> 250 100<468 532> 333 100<370.564 442.531> 417 100<290.468 355.53> 500 100<163.186 264.531 376.47 480.814 519.186 658.131 697.869 836.814>
LayerCount: 2
Fore
SplineSet
50 149 m 0xb2
 22 149 0 186 0 233 c 0
 0 280 22 316 50 316 c 0
 78 316 100 280 100 233 c 0
 100 186 78 149 50 149 c 0xb2
50 328 m 0
 22 328 0 364 0 411 c 0
 0 458 22 495 50 495 c 0
 78 495 100 458 100 411 c 0
 100 364 78 328 50 328 c 0
50 505 m 0
 22 505 0 542 0 589 c 0x7280
 0 636 22 672 50 672 c 0
 65 672 79 661 88 644 c 1
 85 654 83 666 83 679 c 0x71
 83 691 85 700 87 710 c 1
 78 693 65 684 50 684 c 0
 22 684 0 720 0 767 c 0
 0 814 22 851 50 851 c 0
 78 851 100 814 100 767 c 0x7a
 100 755 98 745 96 735 c 1
 105 752 118 762 133 762 c 0
 161 762 183 726 183 679 c 0x35
 183 664 180 649 176 637 c 1
 185 659 200 672 217 672 c 0
 245 672 267 636 267 589 c 0x3480
 267 577 265 567 263 557 c 1
 272 574 285 584 300 584 c 0
 328 584 350 547 350 500 c 0x3440
 350 488 348 478 346 468 c 1
 355 485 368 495 383 495 c 1
 411 495 433 458 433 411 c 0
 433 396 430 382 426 370 c 1
 435 392 450 405 467 405 c 1
 482 405 496 393 505 376 c 1
 502 386 500 398 500 411 c 0
 500 458 522 495 550 495 c 0
 578 495 600 458 600 411 c 0x3428
 600 364 578 328 550 328 c 0
 535 328 521 339 512 356 c 1
 515 346 517 334 517 321 c 0x3410
 517 309 515 300 513 290 c 1
 522 307 535 316 550 316 c 1
 578 316 600 280 600 233 c 0
 600 186 578 149 550 149 c 0
 522 149 500 186 500 233 c 0xb408
 500 245 502 255 504 265 c 1
 495 248 482 238 467 238 c 1
 439 238 417 274 417 321 c 0x7010
 417 336 420 351 424 363 c 1
 415 341 400 328 383 328 c 1
 355 328 333 364 333 411 c 0x7020
 333 423 335 433 337 443 c 1
 328 426 315 416 300 416 c 1
 272 416 250 453 250 500 c 0x7040
 250 512 252 522 254 532 c 1
 245 515 232 505 217 505 c 0
 189 505 167 542 167 589 c 0x7080
 167 604 170 618 174 630 c 1
 165 608 150 595 133 595 c 0
 118 595 104 607 95 624 c 1
 98 614 100 602 100 589 c 0
 100 542 78 505 50 505 c 0
550 505 m 0
 522 505 500 542 500 589 c 0
 500 636 522 672 550 672 c 0
 578 672 600 636 600 589 c 0x3008
 600 542 578 505 550 505 c 0
550 684 m 0x3808
 522 684 500 720 500 767 c 0
 500 814 522 851 550 851 c 0
 578 851 600 814 600 767 c 0
 600 720 578 684 550 684 c 0x3808
EndSplineSet
EndChar

StartChar: asciitilde
Encoding: 126 126 70
Width: 667
VWidth: -334
UnlinkRmOvrlpSave: 1
Flags: HW
HStem: 138 167<319.228 377.004> 416 168<106.228 173.772 213.228 280.772 319.228 373.718 441.281 493.772> 695 167<319.228 377.004>
VStem: 90 100<430.186 569.814> 197 100<430.186 569.814> 303 100<151.869 289.289 437.709 562.291 710.711 848.131> 357 100<294.148 422.292 577.708 705.852> 410 100<438.974 561.026>
CounterMasks: 1 e0
LayerCount: 2
Fore
SplineSet
403 221 m 1xfc
 403 174 381 138 353 138 c 0
 325 138 303 174 303 221 c 0xfc
 303 268 325 305 353 305 c 0
 362 305 371 300 378 293 c 1
 365 308 357 333 357 361 c 1xfa
 357 386 364 410 374 425 c 1
 368 420 361 416 353 416 c 0
 325 416 303 453 303 500 c 0xfc
 303 547 325 584 353 584 c 0
 361 584 368 580 374 575 c 1
 364 590 357 614 357 639 c 0xfa
 357 667 365 692 378 707 c 1
 371 700 362 695 353 695 c 0
 325 695 303 732 303 779 c 0
 303 826 325 862 353 862 c 0
 381 862 403 826 403 779 c 0xfc
 403 751 395 725 382 710 c 1
 389 717 398 722 407 722 c 0
 435 722 457 686 457 639 c 0xfa
 457 614 451 592 441 577 c 1
 447 580 453 584 460 584 c 0
 488 584 510 547 510 500 c 0xf9
 510 453 488 416 460 416 c 0
 453 416 447 420 441 423 c 1
 451 408 457 386 457 361 c 1xfa
 457 314 435 278 407 278 c 0
 398 278 389 283 382 290 c 1
 395 275 403 249 403 221 c 1xfc
297 500 m 0
 297 453 275 416 247 416 c 0
 219 416 197 453 197 500 c 0
 197 547 219 584 247 584 c 0
 275 584 297 547 297 500 c 0
190 500 m 0
 190 453 168 416 140 416 c 0
 112 416 90 453 90 500 c 0
 90 547 112 584 140 584 c 0
 168 584 190 547 190 500 c 0
426 438 m 1
 416 453 410 475 410 500 c 1xfd
 410 525 416 547 426 562 c 1
 420 559 414 555 407 555 c 0
 399 555 392 558 386 563 c 1
 396 548 403 525 403 500 c 0
 403 475 396 452 386 437 c 1
 392 442 399 445 407 445 c 0
 414 445 420 441 426 438 c 1
EndSplineSet
EndChar

StartChar: one
Encoding: 49 49 75
Width: 667
VWidth: -334
UnlinkRmOvrlpSave: 1
Flags: HW
HStem: 238 167<16.228 83.772> 416 168<16.228 84.0312 99.8125 166.614 183.386 250.188 265.969 334.031 349.812 416.614 433.386 500.188 515.969 583.772> 595 167<16.228 83.772 433.228 500.772>
VStem: 0 100<251.869 390.814 609.186 748.131> 417 100<609.186 748.131>
CounterMasks: 1 e0
LayerCount: 2
Fore
SplineSet
50 238 m 0
 22 238 0 274 0 321 c 0
 0 368 22 405 50 405 c 0
 78 405 100 368 100 321 c 0
 100 274 78 238 50 238 c 0
50 416 m 0
 22 416 0 453 0 500 c 0
 0 547 22 584 50 584 c 0
 67 584 83 569 92 547 c 1
 101 569 116 584 133 584 c 1
 151 584 166 568 175 545 c 1
 184 568 199 584 217 584 c 0
 234 584 249 569 258 547 c 1
 267 569 283 584 300 584 c 1
 317 584 333 569 342 547 c 1
 351 569 366 584 383 584 c 0
 401 584 416 568 425 545 c 1
 434 568 449 584 467 584 c 0
 484 584 499 569 508 547 c 1
 517 569 533 584 550 584 c 0
 578 584 600 547 600 500 c 0
 600 453 578 416 550 416 c 0
 533 416 517 431 508 453 c 1
 499 431 484 416 467 416 c 0
 449 416 434 432 425 455 c 1
 416 432 401 416 383 416 c 0
 366 416 351 431 342 453 c 1
 333 431 317 416 300 416 c 0
 283 416 267 431 258 453 c 1
 249 431 234 416 217 416 c 0
 199 416 184 432 175 455 c 1
 166 432 151 416 133 416 c 1
 116 416 101 431 92 453 c 1
 83 431 67 416 50 416 c 0
50 595 m 0
 22 595 0 632 0 679 c 0
 0 726 22 762 50 762 c 0
 78 762 100 726 100 679 c 0
 100 632 78 595 50 595 c 0
467 595 m 0
 439 595 417 632 417 679 c 0
 417 726 439 762 467 762 c 0
 495 762 517 726 517 679 c 0
 517 632 495 595 467 595 c 0
EndSplineSet
EndChar

StartChar: five
Encoding: 53 53 76
Width: 667
VWidth: -334
UnlinkRmOvrlpSave: 1
Flags: HW
HStem: 149 167<99.228 166.614 183.386 250.188 265.969 333.772 516.228 583.772> 238 167<16.228 83.772> 328 167<349.228 416.772 516.228 583.772> 416 168<16.228 83.772> 505 167<349.228 416.772 516.228 583.772> 595 167<16.228 83.772> 684 167<99.228 166.772 349.228 416.614 433.386 500.188 515.969 583.772>
VStem: 0 100<290.468 390.814 430.186 569.814 609.186 709.532> 83 267<189.173 263.912> 83 100<735.469 836.814> 333 100<341.869 480.814 519.186 658.131> 500 100<163.186 302.131 341.869 480.814 519.186 658.131>
LayerCount: 2
Fore
SplineSet
50 238 m 1x4090
 22 238 0 274 0 321 c 0
 0 368 22 405 50 405 c 0
 78 405 100 368 100 321 c 0x4110
 100 309 98 300 96 290 c 1
 105 307 118 316 133 316 c 1
 151 316 166 301 175 278 c 1
 184 301 199 316 217 316 c 1
 234 316 249 302 258 280 c 1
 267 302 283 316 300 316 c 0
 328 316 350 280 350 233 c 0
 350 186 328 149 300 149 c 0
 283 149 267 164 258 186 c 1
 249 164 234 149 217 149 c 0
 199 149 184 165 175 188 c 1
 166 165 151 149 133 149 c 1x8090
 105 149 83 186 83 233 c 0
 83 245 85 255 87 265 c 1
 78 248 65 238 50 238 c 1x4090
50 416 m 0x1110
 22 416 0 453 0 500 c 0
 0 547 22 584 50 584 c 0
 78 584 100 547 100 500 c 0
 100 453 78 416 50 416 c 0x1110
50 595 m 0x0510
 22 595 0 632 0 679 c 0
 0 726 22 762 50 762 c 0x0510
 65 762 78 752 87 735 c 1
 85 745 83 755 83 767 c 0
 83 814 105 851 133 851 c 0
 161 851 183 814 183 767 c 0
 183 720 161 684 133 684 c 0x0250
 118 684 105 693 96 710 c 1
 98 700 100 691 100 679 c 0
 100 632 78 595 50 595 c 0x0510
383 328 m 0x2030
 355 328 333 364 333 411 c 0
 333 458 355 495 383 495 c 0
 411 495 433 458 433 411 c 0
 433 364 411 328 383 328 c 0x2030
383 505 m 0x0830
 355 505 333 542 333 589 c 0
 333 636 355 672 383 672 c 0
 411 672 433 636 433 589 c 0
 433 542 411 505 383 505 c 0x0830
383 684 m 0x0230
 355 684 333 720 333 767 c 0
 333 814 355 851 383 851 c 0
 401 851 416 835 425 812 c 1
 434 835 449 851 467 851 c 0
 484 851 499 836 508 814 c 1
 517 836 533 851 550 851 c 0
 578 851 600 814 600 767 c 0
 600 720 578 684 550 684 c 0
 533 684 517 698 508 720 c 1
 499 698 484 684 467 684 c 0
 449 684 434 699 425 722 c 1
 416 699 401 684 383 684 c 0x0230
550 149 m 0x8010
 522 149 500 186 500 233 c 0
 500 280 522 316 550 316 c 0
 578 316 600 280 600 233 c 0
 600 186 578 149 550 149 c 0x8010
550 328 m 0x2010
 522 328 500 364 500 411 c 0
 500 458 522 495 550 495 c 0
 578 495 600 458 600 411 c 0
 600 364 578 328 550 328 c 0x2010
550 505 m 0x0810
 522 505 500 542 500 589 c 0
 500 636 522 672 550 672 c 0
 578 672 600 636 600 589 c 0
 600 542 578 505 550 505 c 0x0810
EndSplineSet
EndChar

StartChar: nine
Encoding: 57 57 77
Width: 667
VWidth: -334
UnlinkRmOvrlpSave: 1
Flags: HW
HStem: 149 167<349.228 416.614 433.386 500.772> 238 167<266.228 333.772 516.228 583.772> 416 168<99.228 165.878 266.228 333.772 516.228 583.772> 505 167<16.228 83.772> 595 167<266.228 333.772 516.228 583.772> 684 167<349.228 416.614 433.386 500.772>
VStem: 0 100<557.469 658.131> 83 100<463 532> 167 100<376 448> 250 100<290 356 468.469 569.814 609.186 709.532> 333 184<189.173 264.531 735.469 810.827> 500 100<290.468 390.814 430.186 569.814 609.186 709.532>
LayerCount: 2
Fore
SplineSet
50 505 m 0x11
 22 505 0 542 0 589 c 0
 0 636 22 672 50 672 c 0
 78 672 100 636 100 589 c 0x12
 100 577 98 567 96 557 c 1
 105 574 118 584 133 584 c 0
 161 584 183 547 183 500 c 0
 183 487 181 475 178 463 c 1
 187 481 201 495 217 495 c 0
 232 495 245 485 254 468 c 1
 252 478 250 488 250 500 c 0
 250 547 272 584 300 584 c 0
 328 584 350 547 350 500 c 0x2140
 350 453 328 416 300 416 c 0
 285 416 272 426 263 443 c 1
 265 433 267 423 267 411 c 0
 267 398 265 386 262 376 c 1
 271 393 285 405 300 405 c 0x6080
 328 405 350 368 350 321 c 0
 350 309 348 300 346 290 c 1
 355 307 368 316 383 316 c 1
 401 316 416 301 425 278 c 1
 434 301 449 316 467 316 c 0x8040
 482 316 495 307 504 290 c 1
 502 300 500 309 500 321 c 0
 500 368 522 405 550 405 c 0
 578 405 600 368 600 321 c 0
 600 274 578 238 550 238 c 0x4050
 535 238 522 248 513 265 c 1
 515 255 517 245 517 233 c 0
 517 186 495 149 467 149 c 0
 449 149 434 165 425 188 c 1
 416 165 401 149 383 149 c 0
 355 149 333 186 333 233 c 0x8020
 333 245 335 255 337 265 c 1
 328 248 315 238 300 238 c 1
 272 238 250 274 250 321 c 0x4040
 250 334 252 346 255 356 c 1
 246 339 232 328 217 328 c 0
 189 328 167 364 167 411 c 0
 167 424 169 436 172 448 c 1
 163 430 149 416 133 416 c 0x6080
 105 416 83 453 83 500 c 0
 83 512 85 522 87 532 c 1
 78 515 65 505 50 505 c 0x11
300 595 m 0x0850
 272 595 250 632 250 679 c 0
 250 726 272 762 300 762 c 0x0850
 315 762 328 752 337 735 c 1
 335 745 333 755 333 767 c 0
 333 814 355 851 383 851 c 0
 401 851 416 835 425 812 c 1
 434 835 449 851 467 851 c 0
 495 851 517 814 517 767 c 0x0420
 517 755 515 745 513 735 c 1
 522 752 535 762 550 762 c 0
 578 762 600 726 600 679 c 0
 600 632 578 595 550 595 c 0x0810
 522 595 500 632 500 679 c 0
 500 691 502 700 504 710 c 1
 495 693 482 684 467 684 c 0
 449 684 434 699 425 722 c 1
 416 699 401 684 383 684 c 0x0410
 368 684 355 693 346 710 c 1
 348 700 350 691 350 679 c 0
 350 632 328 595 300 595 c 0x0850
550 416 m 0x2010
 522 416 500 453 500 500 c 0
 500 547 522 584 550 584 c 0
 578 584 600 547 600 500 c 0
 600 453 578 416 550 416 c 0x2010
EndSplineSet
EndChar

StartChar: equal
Encoding: 61 61 78
Width: 667
VWidth: -334
UnlinkRmOvrlpSave: 1
Flags: HW
HStem: 149 167<183.228 250.772 349.228 416.772> 328 167<183.228 250.772 349.228 416.772> 505 167<183.228 250.772 349.228 416.772> 684 167<183.228 250.772 349.228 416.772>
VStem: 167 100<163.186 302.131 341.869 480.814 519.186 658.131 697.869 836.814> 333 100<163.186 302.131 341.869 480.814 519.186 658.131 697.869 836.814>
LayerCount: 2
Fore
SplineSet
217 149 m 0
 189 149 167 186 167 233 c 0
 167 280 189 316 217 316 c 0
 245 316 267 280 267 233 c 0
 267 186 245 149 217 149 c 0
217 328 m 0
 189 328 167 364 167 411 c 0
 167 458 189 495 217 495 c 0
 245 495 267 458 267 411 c 0
 267 364 245 328 217 328 c 0
217 505 m 0
 189 505 167 542 167 589 c 0
 167 636 189 672 217 672 c 0
 245 672 267 636 267 589 c 0
 267 542 245 505 217 505 c 0
217 684 m 0
 189 684 167 720 167 767 c 0
 167 814 189 851 217 851 c 0
 245 851 267 814 267 767 c 0
 267 720 245 684 217 684 c 0
383 149 m 0
 355 149 333 186 333 233 c 0
 333 280 355 316 383 316 c 0
 411 316 433 280 433 233 c 0
 433 186 411 149 383 149 c 0
383 328 m 0
 355 328 333 364 333 411 c 0
 333 458 355 495 383 495 c 0
 411 495 433 458 433 411 c 0
 433 364 411 328 383 328 c 0
383 505 m 0
 355 505 333 542 333 589 c 0
 333 636 355 672 383 672 c 0
 411 672 433 636 433 589 c 0
 433 542 411 505 383 505 c 0
383 684 m 0
 355 684 333 720 333 767 c 0
 333 814 355 851 383 851 c 0
 411 851 433 814 433 767 c 0
 433 720 411 684 383 684 c 0
EndSplineSet
EndChar

StartChar: A
Encoding: 65 65 79
Width: 667
VWidth: -334
UnlinkRmOvrlpSave: 1
Flags: HW
HStem: 149 167<16.228 84.0312 99.8125 166.614 183.386 250.188 265.969 333.772> 238 21G<375.5 397> 328 167<183.228 250.772 433.228 500.772> 416 168<515.635 583.772> 505 167<183.228 250.772 433.228 500.772> 684 167<16.228 84.0312 99.8125 166.614 183.386 250.188 265.969 333.772> 742 20G<375.5 397>
VStem: 167 100<341.869 480.814 519.186 658.131> 333 100<290.468 362.435 637.565 709.532> 417 100<370.564 442.531 557.469 629.436> 500 100<468.469 531.531>
LayerCount: 2
Fore
SplineSet
50 149 m 0x8180
 22 149 0 186 0 233 c 0
 0 280 22 316 50 316 c 0
 67 316 83 302 92 280 c 1
 101 302 116 316 133 316 c 0
 151 316 166 301 175 278 c 1
 184 301 199 316 217 316 c 1
 234 316 249 302 258 280 c 1
 267 302 283 316 300 316 c 0
 315 316 328 307 337 290 c 1
 335 300 333 309 333 321 c 0x8180
 333 368 355 405 383 405 c 0
 400 405 415 392 424 370 c 1
 420 382 417 396 417 411 c 0x8140
 417 458 439 495 467 495 c 0
 482 495 495 485 504 468 c 1
 502 478 500 488 500 500 c 0xa120
 500 512 502 522 504 532 c 1
 495 515 482 505 467 505 c 0
 439 505 417 542 417 589 c 0xa940
 417 604 420 618 424 630 c 1
 415 608 400 595 383 595 c 0
 355 595 333 632 333 679 c 0
 333 691 335 700 337 710 c 1
 328 693 315 684 300 684 c 0
 283 684 267 698 258 720 c 1
 249 698 234 684 217 684 c 1
 199 684 184 699 175 722 c 1
 166 699 151 684 133 684 c 0
 116 684 101 698 92 720 c 1
 83 698 67 684 50 684 c 1
 22 684 0 720 0 767 c 0
 0 814 22 851 50 851 c 0
 67 851 83 836 92 814 c 1
 101 836 116 851 133 851 c 1
 151 851 166 835 175 812 c 1
 184 835 199 851 217 851 c 0
 234 851 249 836 258 814 c 1
 267 836 283 851 300 851 c 1xad80
 328 851 350 814 350 767 c 0
 350 755 348 745 346 735 c 1
 355 752 368 762 383 762 c 0
 411 762 433 726 433 679 c 0x0380
 433 664 430 649 426 637 c 1
 435 659 450 672 467 672 c 0
 495 672 517 636 517 589 c 0x0b40
 517 577 515 567 513 557 c 1
 522 574 535 584 550 584 c 0
 578 584 600 547 600 500 c 0x1120
 600 453 578 416 550 416 c 0
 535 416 522 426 513 443 c 1
 515 433 517 423 517 411 c 0x1140
 517 364 495 328 467 328 c 0
 450 328 435 341 426 363 c 1
 430 351 433 336 433 321 c 0
 433 274 411 238 383 238 c 0x6180
 368 238 355 248 346 265 c 1
 348 255 350 245 350 233 c 0
 350 186 328 149 300 149 c 0
 283 149 267 164 258 186 c 1
 249 164 234 149 217 149 c 0
 199 149 184 165 175 188 c 1
 166 165 151 149 133 149 c 1
 116 149 101 164 92 186 c 1
 83 164 67 149 50 149 c 0x8180
217 328 m 0x21
 189 328 167 364 167 411 c 0
 167 458 189 495 217 495 c 0
 245 495 267 458 267 411 c 0
 267 364 245 328 217 328 c 0x21
217 505 m 0x09
 189 505 167 542 167 589 c 0
 167 636 189 672 217 672 c 0
 245 672 267 636 267 589 c 0
 267 542 245 505 217 505 c 0x09
EndSplineSet
EndChar

StartChar: E
Encoding: 69 69 80
Width: 667
VWidth: -334
UnlinkRmOvrlpSave: 1
Flags: HW
HStem: 149 167<16.228 83.772 516.228 583.772> 328 167<16.228 83.772 266.228 333.772 516.228 583.772> 505 167<16.228 83.772 266.228 333.772 516.228 583.772> 684 167<16.228 84.0312 99.8125 166.614 183.386 250.188 265.969 334.031 349.812 416.614 433.386 500.188 515.969 583.772>
VStem: 0 100<163.186 302.131 341.869 480.814 519.186 658.131> 250 100<341.869 480.814 519.186 658.131> 500 100<163.186 302.131 341.869 480.814 519.186 658.131>
CounterMasks: 1 0e
LayerCount: 2
Fore
SplineSet
50 149 m 0
 22 149 0 186 0 233 c 0
 0 280 22 316 50 316 c 0
 78 316 100 280 100 233 c 0
 100 186 78 149 50 149 c 0
50 328 m 0
 22 328 0 364 0 411 c 0
 0 458 22 495 50 495 c 0
 78 495 100 458 100 411 c 0
 100 364 78 328 50 328 c 0
50 505 m 0
 22 505 0 542 0 589 c 0
 0 636 22 672 50 672 c 0
 78 672 100 636 100 589 c 0
 100 542 78 505 50 505 c 0
50 684 m 1
 22 684 0 720 0 767 c 0
 0 814 22 851 50 851 c 0
 67 851 83 836 92 814 c 1
 101 836 116 851 133 851 c 1
 151 851 166 835 175 812 c 1
 184 835 199 851 217 851 c 0
 234 851 249 836 258 814 c 1
 267 836 283 851 300 851 c 1
 317 851 333 836 342 814 c 1
 351 836 366 851 383 851 c 0
 401 851 416 835 425 812 c 1
 434 835 449 851 467 851 c 0
 484 851 499 836 508 814 c 1
 517 836 533 851 550 851 c 0
 578 851 600 814 600 767 c 0
 600 720 578 684 550 684 c 0
 533 684 517 698 508 720 c 1
 499 698 484 684 467 684 c 0
 449 684 434 699 425 722 c 1
 416 699 401 684 383 684 c 0
 366 684 351 698 342 720 c 1
 333 698 317 684 300 684 c 0
 283 684 267 698 258 720 c 1
 249 698 234 684 217 684 c 1
 199 684 184 699 175 722 c 1
 166 699 151 684 133 684 c 0
 116 684 101 698 92 720 c 1
 83 698 67 684 50 684 c 1
300 328 m 0
 272 328 250 364 250 411 c 0
 250 458 272 495 300 495 c 0
 328 495 350 458 350 411 c 0
 350 364 328 328 300 328 c 0
300 505 m 0
 272 505 250 542 250 589 c 0
 250 636 272 672 300 672 c 0
 328 672 350 636 350 589 c 0
 350 542 328 505 300 505 c 0
550 149 m 0
 522 149 500 186 500 233 c 0
 500 280 522 316 550 316 c 0
 578 316 600 280 600 233 c 0
 600 186 578 149 550 149 c 0
550 328 m 0
 522 328 500 364 500 411 c 0
 500 458 522 495 550 495 c 0
 578 495 600 458 600 411 c 0
 600 364 578 328 550 328 c 0
550 505 m 0
 522 505 500 542 500 589 c 0
 500 636 522 672 550 672 c 0
 578 672 600 636 600 589 c 0
 600 542 578 505 550 505 c 0
EndSplineSet
EndChar

StartChar: I
Encoding: 73 73 81
Width: 667
VWidth: -334
UnlinkRmOvrlpSave: 1
Flags: HW
HStem: 238 167<16.228 83.772 516.228 583.772> 416 168<16.228 84.0312 99.8125 166.614 183.386 250.188 265.969 334.031 349.812 416.614 433.386 500.188 515.969 583.772> 595 167<16.228 83.772 516.228 583.772>
VStem: 0 100<251.869 390.814 609.186 748.131> 500 100<251.869 390.814 609.186 748.131>
CounterMasks: 1 e0
LayerCount: 2
Fore
SplineSet
50 238 m 0
 22 238 0 274 0 321 c 0
 0 368 22 405 50 405 c 0
 78 405 100 368 100 321 c 0
 100 274 78 238 50 238 c 0
50 416 m 0
 22 416 0 453 0 500 c 0
 0 547 22 584 50 584 c 0
 67 584 83 569 92 547 c 1
 101 569 116 584 133 584 c 1
 151 584 166 568 175 545 c 1
 184 568 199 584 217 584 c 0
 234 584 249 569 258 547 c 1
 267 569 283 584 300 584 c 1
 317 584 333 569 342 547 c 1
 351 569 366 584 383 584 c 0
 401 584 416 568 425 545 c 1
 434 568 449 584 467 584 c 0
 484 584 499 569 508 547 c 1
 517 569 533 584 550 584 c 0
 578 584 600 547 600 500 c 0
 600 453 578 416 550 416 c 0
 533 416 517 431 508 453 c 1
 499 431 484 416 467 416 c 0
 449 416 434 432 425 455 c 1
 416 432 401 416 383 416 c 0
 366 416 351 431 342 453 c 1
 333 431 317 416 300 416 c 0
 283 416 267 431 258 453 c 1
 249 431 234 416 217 416 c 0
 199 416 184 432 175 455 c 1
 166 432 151 416 133 416 c 1
 116 416 101 431 92 453 c 1
 83 431 67 416 50 416 c 0
50 595 m 0
 22 595 0 632 0 679 c 0
 0 726 22 762 50 762 c 0
 78 762 100 726 100 679 c 0
 100 632 78 595 50 595 c 0
550 238 m 0
 522 238 500 274 500 321 c 0
 500 368 522 405 550 405 c 0
 578 405 600 368 600 321 c 0
 600 274 578 238 550 238 c 0
550 595 m 0
 522 595 500 632 500 679 c 0
 500 726 522 762 550 762 c 0
 578 762 600 726 600 679 c 0
 600 632 578 595 550 595 c 0
EndSplineSet
EndChar

StartChar: M
Encoding: 77 77 82
Width: 667
VWidth: -334
UnlinkRmOvrlpSave: 1
Flags: HW
HStem: 149 167<16.228 84.0312 99.8125 166.614 183.386 250.188 265.969 334.031 349.812 416.772 516.228 583.772> 238 21G<459 474.5> 328 167<349.228 416.772> 416 168<266.228 334.365> 505 167<349.228 416.772> 684 167<16.228 84.0312 99.8125 166.614 183.386 250.188 265.969 334.031 349.812 416.772 516.228 583.772> 742 20G<459 474.5>
VStem: 250 100<468.469 531.531> 333 100<370.564 442.531 557.469 629.436> 417 100<290.468 362.435 637.565 709.532> 500 100<163.186 264.531 735.469 836.814>
LayerCount: 2
Fore
SplineSet
50 149 m 0x80a0
 22 149 0 186 0 233 c 0
 0 280 22 316 50 316 c 0
 67 316 83 302 92 280 c 1
 101 302 116 316 133 316 c 0
 151 316 166 301 175 278 c 1
 184 301 199 316 217 316 c 1
 234 316 249 302 258 280 c 1
 267 302 283 316 300 316 c 0
 317 316 333 302 342 280 c 1
 351 302 366 316 383 316 c 0
 399 316 413 303 422 285 c 1
 419 297 417 308 417 321 c 0x8040
 417 336 420 351 424 363 c 1
 415 341 400 328 383 328 c 1
 355 328 333 364 333 411 c 0xa080
 333 423 335 433 337 443 c 1
 328 426 315 416 300 416 c 1
 272 416 250 453 250 500 c 0x11
 250 547 272 584 300 584 c 0
 315 584 328 574 337 557 c 1
 335 567 333 577 333 589 c 0x1080
 333 636 355 672 383 672 c 0
 400 672 415 659 424 637 c 1
 420 649 417 664 417 679 c 0
 417 692 419 703 422 715 c 1
 413 697 399 684 383 684 c 1
 366 684 351 698 342 720 c 1
 333 698 317 684 300 684 c 0
 283 684 267 698 258 720 c 1
 249 698 234 684 217 684 c 1
 199 684 184 699 175 722 c 1
 166 699 151 684 133 684 c 0
 116 684 101 698 92 720 c 1
 83 698 67 684 50 684 c 1
 22 684 0 720 0 767 c 0
 0 814 22 851 50 851 c 0
 67 851 83 836 92 814 c 1
 101 836 116 851 133 851 c 1
 151 851 166 835 175 812 c 1
 184 835 199 851 217 851 c 0
 234 851 249 836 258 814 c 1
 267 836 283 851 300 851 c 1
 317 851 333 836 342 814 c 1
 351 836 366 851 383 851 c 0x0c40
 411 851 433 814 433 767 c 0
 433 754 431 742 428 730 c 1
 437 748 451 762 467 762 c 1x0280
 482 762 495 752 504 735 c 1
 502 745 500 755 500 767 c 0
 500 814 522 851 550 851 c 0
 578 851 600 814 600 767 c 0x04a0
 600 720 578 684 550 684 c 0
 535 684 522 693 513 710 c 1
 515 700 517 691 517 679 c 0x0440
 517 632 495 595 467 595 c 0
 450 595 435 608 426 630 c 1
 430 618 433 604 433 589 c 0x0480
 433 542 411 505 383 505 c 0
 368 505 355 515 346 532 c 1
 348 522 350 512 350 500 c 0x0d
 350 488 348 478 346 468 c 1
 355 485 368 495 383 495 c 1
 411 495 433 458 433 411 c 0x2c80
 433 396 430 382 426 370 c 1
 435 392 450 405 467 405 c 1
 495 405 517 368 517 321 c 0x2c40
 517 309 515 300 513 290 c 1
 522 307 535 316 550 316 c 1
 578 316 600 280 600 233 c 0
 600 186 578 149 550 149 c 0xac20
 522 149 500 186 500 233 c 0
 500 245 502 255 504 265 c 1
 495 248 482 238 467 238 c 1x4020
 451 238 437 252 428 270 c 1
 431 258 433 246 433 233 c 0
 433 186 411 149 383 149 c 0
 366 149 351 164 342 186 c 1
 333 164 317 149 300 149 c 0
 283 149 267 164 258 186 c 1
 249 164 234 149 217 149 c 0
 199 149 184 165 175 188 c 1
 166 165 151 149 133 149 c 1
 116 149 101 164 92 186 c 1
 83 164 67 149 50 149 c 0x80a0
EndSplineSet
EndChar

StartChar: Q
Encoding: 81 81 83
Width: 667
VWidth: -334
UnlinkRmOvrlpSave: 1
Flags: HW
HStem: 149 167<16.228 83.772 183.228 250.188 265.969 334.031 349.812 416.614 433.386 500.772> 238 167<99.228 166.188 516.228 583.772> 416 168<16.228 83.772 516.228 583.772> 595 167<16.228 83.772 516.228 583.772> 684 167<99.228 166.614 183.386 250.188 265.969 334.031 349.812 416.614 433.386 500.772>
VStem: 0 100<163.186 264.531 430.186 569.814 609.186 709.532> 83 100<290.468 362.435> 167 100<370.564 480.814> 500 100<290.468 390.814 430.186 569.814 609.186 709.532>
LayerCount: 2
Fore
SplineSet
50 149 m 0xa580
 22 149 0 186 0 233 c 0xa580
 0 280 22 316 50 316 c 0
 65 316 78 307 87 290 c 1
 85 300 83 309 83 321 c 0xa280
 83 368 105 405 133 405 c 0
 150 405 165 392 174 370 c 1
 170 382 167 396 167 411 c 0
 167 458 189 495 217 495 c 0
 245 495 267 458 267 411 c 0x6180
 267 364 245 328 217 328 c 0
 200 328 185 341 176 363 c 1
 180 351 183 336 183 321 c 0
 183 308 181 297 178 285 c 1
 187 303 201 316 217 316 c 0
 234 316 249 302 258 280 c 1
 267 302 283 316 300 316 c 0
 317 316 333 302 342 280 c 1
 351 302 366 316 383 316 c 0
 401 316 416 301 425 278 c 1
 434 301 449 316 467 316 c 0xa280
 482 316 495 307 504 290 c 1
 502 300 500 309 500 321 c 0
 500 368 522 405 550 405 c 0
 578 405 600 368 600 321 c 0
 600 274 578 238 550 238 c 0x6280
 535 238 522 248 513 265 c 1
 515 255 517 245 517 233 c 0
 517 186 495 149 467 149 c 0
 449 149 434 165 425 188 c 1
 416 165 401 149 383 149 c 0
 366 149 351 164 342 186 c 1
 333 164 317 149 300 149 c 0
 283 149 267 164 258 186 c 1
 249 164 234 149 217 149 c 0xa280
 189 149 167 186 167 233 c 0
 167 246 169 258 172 270 c 1
 163 252 149 238 133 238 c 0x6180
 118 238 105 248 96 265 c 1
 98 255 100 245 100 233 c 0
 100 186 78 149 50 149 c 0xa580
50 416 m 0
 22 416 0 453 0 500 c 0
 0 547 22 584 50 584 c 0
 78 584 100 547 100 500 c 0
 100 453 78 416 50 416 c 0
50 595 m 0x3480
 22 595 0 632 0 679 c 0
 0 726 22 762 50 762 c 0x3480
 65 762 78 752 87 735 c 1
 85 745 83 755 83 767 c 0
 83 814 105 851 133 851 c 0
 151 851 166 835 175 812 c 1
 184 835 199 851 217 851 c 0
 234 851 249 836 258 814 c 1
 267 836 283 851 300 851 c 1
 317 851 333 836 342 814 c 1
 351 836 366 851 383 851 c 0
 401 851 416 835 425 812 c 1
 434 835 449 851 467 851 c 0x2a80
 495 851 517 814 517 767 c 0
 517 755 515 745 513 735 c 1
 522 752 535 762 550 762 c 0
 578 762 600 726 600 679 c 0
 600 632 578 595 550 595 c 0x3280
 522 595 500 632 500 679 c 0
 500 691 502 700 504 710 c 1
 495 693 482 684 467 684 c 0
 449 684 434 699 425 722 c 1
 416 699 401 684 383 684 c 0
 366 684 351 698 342 720 c 1
 333 698 317 684 300 684 c 0
 283 684 267 698 258 720 c 1
 249 698 234 684 217 684 c 1
 199 684 184 699 175 722 c 1
 166 699 151 684 133 684 c 0x2a80
 118 684 105 693 96 710 c 1
 98 700 100 691 100 679 c 0
 100 632 78 595 50 595 c 0x3480
550 416 m 0
 522 416 500 453 500 500 c 0
 500 547 522 584 550 584 c 0
 578 584 600 547 600 500 c 0
 600 453 578 416 550 416 c 0
EndSplineSet
EndChar

StartChar: U
Encoding: 85 85 84
Width: 667
VWidth: -334
UnlinkRmOvrlpSave: 1
Flags: HW
HStem: 149 167<99.228 166.614 183.386 250.188 265.969 334.031 349.812 416.614 433.386 500.188 515.969 583.772> 238 167<16.228 83.772> 416 168<16.228 83.772> 595 167<16.228 83.772> 684 167<99.228 166.614 183.386 250.188 265.969 334.031 349.812 416.614 433.386 500.188 515.969 583.772>
VStem: 0 100<290.468 390.814 430.186 569.814 609.186 709.532>
LayerCount: 2
Fore
SplineSet
50 238 m 1x64
 22 238 0 274 0 321 c 0
 0 368 22 405 50 405 c 0x64
 78 405 100 368 100 321 c 0
 100 309 98 300 96 290 c 1
 105 307 118 316 133 316 c 1
 151 316 166 301 175 278 c 1
 184 301 199 316 217 316 c 1
 234 316 249 302 258 280 c 1
 267 302 283 316 300 316 c 0
 317 316 333 302 342 280 c 1
 351 302 366 316 383 316 c 0
 401 316 416 301 425 278 c 1
 434 301 449 316 467 316 c 0
 484 316 499 302 508 280 c 1
 517 302 533 316 550 316 c 0
 578 316 600 280 600 233 c 0
 600 186 578 149 550 149 c 0
 533 149 517 164 508 186 c 1
 499 164 484 149 467 149 c 0
 449 149 434 165 425 188 c 1
 416 165 401 149 383 149 c 0
 366 149 351 164 342 186 c 1
 333 164 317 149 300 149 c 0
 283 149 267 164 258 186 c 1
 249 164 234 149 217 149 c 0
 199 149 184 165 175 188 c 1
 166 165 151 149 133 149 c 1xa4
 105 149 83 186 83 233 c 0
 83 245 85 255 87 265 c 1
 78 248 65 238 50 238 c 1x64
50 416 m 0
 22 416 0 453 0 500 c 0
 0 547 22 584 50 584 c 0
 78 584 100 547 100 500 c 0
 100 453 78 416 50 416 c 0
50 595 m 0x34
 22 595 0 632 0 679 c 0
 0 726 22 762 50 762 c 0x34
 65 762 78 752 87 735 c 1
 85 745 83 755 83 767 c 0
 83 814 105 851 133 851 c 0
 151 851 166 835 175 812 c 1
 184 835 199 851 217 851 c 0
 234 851 249 836 258 814 c 1
 267 836 283 851 300 851 c 1
 317 851 333 836 342 814 c 1
 351 836 366 851 383 851 c 0
 401 851 416 835 425 812 c 1
 434 835 449 851 467 851 c 0
 484 851 499 836 508 814 c 1
 517 836 533 851 550 851 c 0
 578 851 600 814 600 767 c 0
 600 720 578 684 550 684 c 0
 533 684 517 698 508 720 c 1
 499 698 484 684 467 684 c 0
 449 684 434 699 425 722 c 1
 416 699 401 684 383 684 c 0
 366 684 351 698 342 720 c 1
 333 698 317 684 300 684 c 0
 283 684 267 698 258 720 c 1
 249 698 234 684 217 684 c 1
 199 684 184 699 175 722 c 1
 166 699 151 684 133 684 c 0x2c
 118 684 105 693 96 710 c 1
 98 700 100 691 100 679 c 0
 100 632 78 595 50 595 c 0x34
EndSplineSet
EndChar

StartChar: Y
Encoding: 89 89 85
Width: 667
VWidth: -334
UnlinkRmOvrlpSave: 1
Flags: HW
HStem: 149 167<516.228 583.772> 238 167<432.726 500.772> 328 167<349.228 416.772> 416 168<16.228 84.0312 99.8125 166.614 183.386 250.188 265.969 334.365> 505 167<349.228 416.772> 595 167<432.726 500.772> 684 167<516.228 583.772>
VStem: 333 100<370.564 442.531 557.469 629.436> 417 100<290.468 362.435 637.565 709.532> 500 100<163.186 264.531 735.469 836.814>
LayerCount: 2
Fore
SplineSet
50 416 m 0x11
 22 416 0 453 0 500 c 0
 0 547 22 584 50 584 c 0
 67 584 83 569 92 547 c 1
 101 569 116 584 133 584 c 1
 151 584 166 568 175 545 c 1
 184 568 199 584 217 584 c 0
 234 584 249 569 258 547 c 1
 267 569 283 584 300 584 c 1x11
 315 584 328 574 337 557 c 1
 335 567 333 577 333 589 c 0
 333 636 355 672 383 672 c 0x09
 400 672 415 659 424 637 c 1
 420 649 417 664 417 679 c 0
 417 726 439 762 467 762 c 0x0480
 482 762 495 752 504 735 c 1
 502 745 500 755 500 767 c 0
 500 814 522 851 550 851 c 0
 578 851 600 814 600 767 c 0
 600 720 578 684 550 684 c 0x0240
 535 684 522 693 513 710 c 1
 515 700 517 691 517 679 c 0
 517 632 495 595 467 595 c 0x0480
 450 595 435 608 426 630 c 1
 430 618 433 604 433 589 c 0
 433 542 411 505 383 505 c 0
 368 505 355 515 346 532 c 1
 348 522 350 512 350 500 c 0
 350 488 348 478 346 468 c 1
 355 485 368 495 383 495 c 1
 411 495 433 458 433 411 c 0x29
 433 396 430 382 426 370 c 1
 435 392 450 405 467 405 c 1
 495 405 517 368 517 321 c 0x4080
 517 309 515 300 513 290 c 1
 522 307 535 316 550 316 c 1
 578 316 600 280 600 233 c 0
 600 186 578 149 550 149 c 0x8040
 522 149 500 186 500 233 c 0
 500 245 502 255 504 265 c 1
 495 248 482 238 467 238 c 1x4040
 439 238 417 274 417 321 c 0
 417 336 420 351 424 363 c 1
 415 341 400 328 383 328 c 1x2080
 355 328 333 364 333 411 c 0
 333 423 335 433 337 443 c 1
 328 426 315 416 300 416 c 1
 283 416 267 431 258 453 c 1
 249 431 234 416 217 416 c 0
 199 416 184 432 175 455 c 1
 166 432 151 416 133 416 c 1
 116 416 101 431 92 453 c 1
 83 431 67 416 50 416 c 0x11
EndSplineSet
EndChar

StartChar: bracketright
Encoding: 93 93 86
Width: 667
VWidth: -334
UnlinkRmOvrlpSave: 1
Flags: HW
HStem: 238 167<16.228 84.0312 99.8125 166.614 183.386 250.188 265.969 334.031 349.812 416.614 433.386 500.188 515.969 583.772> 416 168<16.228 83.772 516.228 583.772> 595 167<16.228 83.772 516.228 583.772>
VStem: 0 100<430.186 569.814 609.186 748.131> 500 100<430.186 569.814 609.186 748.131>
CounterMasks: 1 e0
LayerCount: 2
Fore
SplineSet
50 238 m 0
 22 238 0 274 0 321 c 0
 0 368 22 405 50 405 c 0
 67 405 83 390 92 368 c 1
 101 390 116 405 133 405 c 0
 151 405 166 389 175 366 c 1
 184 389 199 405 217 405 c 1
 234 405 249 390 258 368 c 1
 267 390 283 405 300 405 c 0
 317 405 333 390 342 368 c 1
 351 390 366 405 383 405 c 0
 401 405 416 389 425 366 c 1
 434 389 449 405 467 405 c 0
 484 405 499 390 508 368 c 1
 517 390 533 405 550 405 c 0
 578 405 600 368 600 321 c 0
 600 274 578 238 550 238 c 0
 533 238 517 253 508 275 c 1
 499 253 484 238 467 238 c 0
 449 238 434 253 425 276 c 1
 416 253 401 238 383 238 c 0
 366 238 351 253 342 275 c 1
 333 253 317 238 300 238 c 0
 283 238 267 253 258 275 c 1
 249 253 234 238 217 238 c 0
 199 238 184 253 175 276 c 1
 166 253 151 238 133 238 c 1
 116 238 101 253 92 275 c 1
 83 253 67 238 50 238 c 0
50 416 m 0
 22 416 0 453 0 500 c 0
 0 547 22 584 50 584 c 0
 78 584 100 547 100 500 c 0
 100 453 78 416 50 416 c 0
50 595 m 0
 22 595 0 632 0 679 c 0
 0 726 22 762 50 762 c 0
 78 762 100 726 100 679 c 0
 100 632 78 595 50 595 c 0
550 416 m 0
 522 416 500 453 500 500 c 0
 500 547 522 584 550 584 c 0
 578 584 600 547 600 500 c 0
 600 453 578 416 550 416 c 0
550 595 m 0
 522 595 500 632 500 679 c 0
 500 726 522 762 550 762 c 0
 578 762 600 726 600 679 c 0
 600 632 578 595 550 595 c 0
EndSplineSet
EndChar

StartChar: a
Encoding: 97 97 87
Width: 667
VWidth: -334
UnlinkRmOvrlpSave: 1
Flags: HW
HStem: 149 167<16.228 84.0312 99.8125 166.614 183.386 250.188 265.969 333.772> 238 21G<375.5 397> 328 167<183.228 250.772 433.228 500.772> 416 168<515.635 583.772> 505 167<183.228 250.772 433.228 500.772> 684 167<16.228 84.0312 99.8125 166.614 183.386 250.188 265.969 333.772> 742 20G<375.5 397>
VStem: 167 100<341.869 480.814 519.186 658.131> 333 100<290.468 362.435 637.565 709.532> 417 100<370.564 442.531 557.469 629.436> 500 100<468.469 531.531>
LayerCount: 2
Fore
SplineSet
50 149 m 0x8180
 22 149 0 186 0 233 c 0
 0 280 22 316 50 316 c 0
 67 316 83 302 92 280 c 1
 101 302 116 316 133 316 c 0
 151 316 166 301 175 278 c 1
 184 301 199 316 217 316 c 1
 234 316 249 302 258 280 c 1
 267 302 283 316 300 316 c 0
 315 316 328 307 337 290 c 1
 335 300 333 309 333 321 c 0x8180
 333 368 355 405 383 405 c 0
 400 405 415 392 424 370 c 1
 420 382 417 396 417 411 c 0x8140
 417 458 439 495 467 495 c 0
 482 495 495 485 504 468 c 1
 502 478 500 488 500 500 c 0xa120
 500 512 502 522 504 532 c 1
 495 515 482 505 467 505 c 0
 439 505 417 542 417 589 c 0xa940
 417 604 420 618 424 630 c 1
 415 608 400 595 383 595 c 0
 355 595 333 632 333 679 c 0
 333 691 335 700 337 710 c 1
 328 693 315 684 300 684 c 0
 283 684 267 698 258 720 c 1
 249 698 234 684 217 684 c 1
 199 684 184 699 175 722 c 1
 166 699 151 684 133 684 c 0
 116 684 101 698 92 720 c 1
 83 698 67 684 50 684 c 1
 22 684 0 720 0 767 c 0
 0 814 22 851 50 851 c 0
 67 851 83 836 92 814 c 1
 101 836 116 851 133 851 c 1
 151 851 166 835 175 812 c 1
 184 835 199 851 217 851 c 0
 234 851 249 836 258 814 c 1
 267 836 283 851 300 851 c 1xad80
 328 851 350 814 350 767 c 0
 350 755 348 745 346 735 c 1
 355 752 368 762 383 762 c 0
 411 762 433 726 433 679 c 0x0380
 433 664 430 649 426 637 c 1
 435 659 450 672 467 672 c 0
 495 672 517 636 517 589 c 0x0b40
 517 577 515 567 513 557 c 1
 522 574 535 584 550 584 c 0
 578 584 600 547 600 500 c 0x1120
 600 453 578 416 550 416 c 0
 535 416 522 426 513 443 c 1
 515 433 517 423 517 411 c 0x1140
 517 364 495 328 467 328 c 0
 450 328 435 341 426 363 c 1
 430 351 433 336 433 321 c 0
 433 274 411 238 383 238 c 0x6180
 368 238 355 248 346 265 c 1
 348 255 350 245 350 233 c 0
 350 186 328 149 300 149 c 0
 283 149 267 164 258 186 c 1
 249 164 234 149 217 149 c 0
 199 149 184 165 175 188 c 1
 166 165 151 149 133 149 c 1
 116 149 101 164 92 186 c 1
 83 164 67 149 50 149 c 0x8180
217 328 m 0x21
 189 328 167 364 167 411 c 0
 167 458 189 495 217 495 c 0
 245 495 267 458 267 411 c 0
 267 364 245 328 217 328 c 0x21
217 505 m 0x09
 189 505 167 542 167 589 c 0
 167 636 189 672 217 672 c 0
 245 672 267 636 267 589 c 0
 267 542 245 505 217 505 c 0x09
EndSplineSet
EndChar

StartChar: e
Encoding: 101 101 88
Width: 667
VWidth: -334
UnlinkRmOvrlpSave: 1
Flags: HW
HStem: 149 167<16.228 83.772 516.228 583.772> 328 167<16.228 83.772 266.228 333.772 516.228 583.772> 505 167<16.228 83.772 266.228 333.772 516.228 583.772> 684 167<16.228 84.0312 99.8125 166.614 183.386 250.188 265.969 334.031 349.812 416.614 433.386 500.188 515.969 583.772>
VStem: 0 100<163.186 302.131 341.869 480.814 519.186 658.131> 250 100<341.869 480.814 519.186 658.131> 500 100<163.186 302.131 341.869 480.814 519.186 658.131>
CounterMasks: 1 0e
LayerCount: 2
Fore
SplineSet
50 149 m 0
 22 149 0 186 0 233 c 0
 0 280 22 316 50 316 c 0
 78 316 100 280 100 233 c 0
 100 186 78 149 50 149 c 0
50 328 m 0
 22 328 0 364 0 411 c 0
 0 458 22 495 50 495 c 0
 78 495 100 458 100 411 c 0
 100 364 78 328 50 328 c 0
50 505 m 0
 22 505 0 542 0 589 c 0
 0 636 22 672 50 672 c 0
 78 672 100 636 100 589 c 0
 100 542 78 505 50 505 c 0
50 684 m 1
 22 684 0 720 0 767 c 0
 0 814 22 851 50 851 c 0
 67 851 83 836 92 814 c 1
 101 836 116 851 133 851 c 1
 151 851 166 835 175 812 c 1
 184 835 199 851 217 851 c 0
 234 851 249 836 258 814 c 1
 267 836 283 851 300 851 c 1
 317 851 333 836 342 814 c 1
 351 836 366 851 383 851 c 0
 401 851 416 835 425 812 c 1
 434 835 449 851 467 851 c 0
 484 851 499 836 508 814 c 1
 517 836 533 851 550 851 c 0
 578 851 600 814 600 767 c 0
 600 720 578 684 550 684 c 0
 533 684 517 698 508 720 c 1
 499 698 484 684 467 684 c 0
 449 684 434 699 425 722 c 1
 416 699 401 684 383 684 c 0
 366 684 351 698 342 720 c 1
 333 698 317 684 300 684 c 0
 283 684 267 698 258 720 c 1
 249 698 234 684 217 684 c 1
 199 684 184 699 175 722 c 1
 166 699 151 684 133 684 c 0
 116 684 101 698 92 720 c 1
 83 698 67 684 50 684 c 1
300 328 m 0
 272 328 250 364 250 411 c 0
 250 458 272 495 300 495 c 0
 328 495 350 458 350 411 c 0
 350 364 328 328 300 328 c 0
300 505 m 0
 272 505 250 542 250 589 c 0
 250 636 272 672 300 672 c 0
 328 672 350 636 350 589 c 0
 350 542 328 505 300 505 c 0
550 149 m 0
 522 149 500 186 500 233 c 0
 500 280 522 316 550 316 c 0
 578 316 600 280 600 233 c 0
 600 186 578 149 550 149 c 0
550 328 m 0
 522 328 500 364 500 411 c 0
 500 458 522 495 550 495 c 0
 578 495 600 458 600 411 c 0
 600 364 578 328 550 328 c 0
550 505 m 0
 522 505 500 542 500 589 c 0
 500 636 522 672 550 672 c 0
 578 672 600 636 600 589 c 0
 600 542 578 505 550 505 c 0
EndSplineSet
EndChar

StartChar: i
Encoding: 105 105 89
Width: 667
VWidth: -334
UnlinkRmOvrlpSave: 1
Flags: HW
HStem: 238 167<16.228 83.772 516.228 583.772> 416 168<16.228 84.0312 99.8125 166.614 183.386 250.188 265.969 334.031 349.812 416.614 433.386 500.188 515.969 583.772> 595 167<16.228 83.772 516.228 583.772>
VStem: 0 100<251.869 390.814 609.186 748.131> 500 100<251.869 390.814 609.186 748.131>
CounterMasks: 1 e0
LayerCount: 2
Fore
SplineSet
50 238 m 0
 22 238 0 274 0 321 c 0
 0 368 22 405 50 405 c 0
 78 405 100 368 100 321 c 0
 100 274 78 238 50 238 c 0
50 416 m 0
 22 416 0 453 0 500 c 0
 0 547 22 584 50 584 c 0
 67 584 83 569 92 547 c 1
 101 569 116 584 133 584 c 1
 151 584 166 568 175 545 c 1
 184 568 199 584 217 584 c 0
 234 584 249 569 258 547 c 1
 267 569 283 584 300 584 c 1
 317 584 333 569 342 547 c 1
 351 569 366 584 383 584 c 0
 401 584 416 568 425 545 c 1
 434 568 449 584 467 584 c 0
 484 584 499 569 508 547 c 1
 517 569 533 584 550 584 c 0
 578 584 600 547 600 500 c 0
 600 453 578 416 550 416 c 0
 533 416 517 431 508 453 c 1
 499 431 484 416 467 416 c 0
 449 416 434 432 425 455 c 1
 416 432 401 416 383 416 c 0
 366 416 351 431 342 453 c 1
 333 431 317 416 300 416 c 0
 283 416 267 431 258 453 c 1
 249 431 234 416 217 416 c 0
 199 416 184 432 175 455 c 1
 166 432 151 416 133 416 c 1
 116 416 101 431 92 453 c 1
 83 431 67 416 50 416 c 0
50 595 m 0
 22 595 0 632 0 679 c 0
 0 726 22 762 50 762 c 0
 78 762 100 726 100 679 c 0
 100 632 78 595 50 595 c 0
550 238 m 0
 522 238 500 274 500 321 c 0
 500 368 522 405 550 405 c 0
 578 405 600 368 600 321 c 0
 600 274 578 238 550 238 c 0
550 595 m 0
 522 595 500 632 500 679 c 0
 500 726 522 762 550 762 c 0
 578 762 600 726 600 679 c 0
 600 632 578 595 550 595 c 0
EndSplineSet
EndChar

StartChar: m
Encoding: 109 109 90
Width: 667
VWidth: -334
UnlinkRmOvrlpSave: 1
Flags: HW
HStem: 149 167<16.228 84.0312 99.8125 166.614 183.386 250.188 265.969 334.031 349.812 416.772 516.228 583.772> 238 21G<459 474.5> 328 167<349.228 416.772> 416 168<266.228 334.365> 505 167<349.228 416.772> 684 167<16.228 84.0312 99.8125 166.614 183.386 250.188 265.969 334.031 349.812 416.772 516.228 583.772> 742 20G<459 474.5>
VStem: 250 100<468.469 531.531> 333 100<370.564 442.531 557.469 629.436> 417 100<290.468 362.435 637.565 709.532> 500 100<163.186 264.531 735.469 836.814>
LayerCount: 2
Fore
SplineSet
50 149 m 0x80a0
 22 149 0 186 0 233 c 0
 0 280 22 316 50 316 c 0
 67 316 83 302 92 280 c 1
 101 302 116 316 133 316 c 0
 151 316 166 301 175 278 c 1
 184 301 199 316 217 316 c 1
 234 316 249 302 258 280 c 1
 267 302 283 316 300 316 c 0
 317 316 333 302 342 280 c 1
 351 302 366 316 383 316 c 0
 399 316 413 303 422 285 c 1
 419 297 417 308 417 321 c 0x8040
 417 336 420 351 424 363 c 1
 415 341 400 328 383 328 c 1
 355 328 333 364 333 411 c 0xa080
 333 423 335 433 337 443 c 1
 328 426 315 416 300 416 c 1
 272 416 250 453 250 500 c 0x11
 250 547 272 584 300 584 c 0
 315 584 328 574 337 557 c 1
 335 567 333 577 333 589 c 0x1080
 333 636 355 672 383 672 c 0
 400 672 415 659 424 637 c 1
 420 649 417 664 417 679 c 0
 417 692 419 703 422 715 c 1
 413 697 399 684 383 684 c 1
 366 684 351 698 342 720 c 1
 333 698 317 684 300 684 c 0
 283 684 267 698 258 720 c 1
 249 698 234 684 217 684 c 1
 199 684 184 699 175 722 c 1
 166 699 151 684 133 684 c 0
 116 684 101 698 92 720 c 1
 83 698 67 684 50 684 c 1
 22 684 0 720 0 767 c 0
 0 814 22 851 50 851 c 0
 67 851 83 836 92 814 c 1
 101 836 116 851 133 851 c 1
 151 851 166 835 175 812 c 1
 184 835 199 851 217 851 c 0
 234 851 249 836 258 814 c 1
 267 836 283 851 300 851 c 1
 317 851 333 836 342 814 c 1
 351 836 366 851 383 851 c 0x0c40
 411 851 433 814 433 767 c 0
 433 754 431 742 428 730 c 1
 437 748 451 762 467 762 c 1x0280
 482 762 495 752 504 735 c 1
 502 745 500 755 500 767 c 0
 500 814 522 851 550 851 c 0
 578 851 600 814 600 767 c 0x04a0
 600 720 578 684 550 684 c 0
 535 684 522 693 513 710 c 1
 515 700 517 691 517 679 c 0x0440
 517 632 495 595 467 595 c 0
 450 595 435 608 426 630 c 1
 430 618 433 604 433 589 c 0x0480
 433 542 411 505 383 505 c 0
 368 505 355 515 346 532 c 1
 348 522 350 512 350 500 c 0x0d
 350 488 348 478 346 468 c 1
 355 485 368 495 383 495 c 1
 411 495 433 458 433 411 c 0x2c80
 433 396 430 382 426 370 c 1
 435 392 450 405 467 405 c 1
 495 405 517 368 517 321 c 0x2c40
 517 309 515 300 513 290 c 1
 522 307 535 316 550 316 c 1
 578 316 600 280 600 233 c 0
 600 186 578 149 550 149 c 0xac20
 522 149 500 186 500 233 c 0
 500 245 502 255 504 265 c 1
 495 248 482 238 467 238 c 1x4020
 451 238 437 252 428 270 c 1
 431 258 433 246 433 233 c 0
 433 186 411 149 383 149 c 0
 366 149 351 164 342 186 c 1
 333 164 317 149 300 149 c 0
 283 149 267 164 258 186 c 1
 249 164 234 149 217 149 c 0
 199 149 184 165 175 188 c 1
 166 165 151 149 133 149 c 1
 116 149 101 164 92 186 c 1
 83 164 67 149 50 149 c 0x80a0
EndSplineSet
EndChar

StartChar: q
Encoding: 113 113 91
Width: 667
VWidth: -334
UnlinkRmOvrlpSave: 1
Flags: HW
HStem: 149 167<16.228 83.772 183.228 250.188 265.969 334.031 349.812 416.614 433.386 500.772> 238 167<99.228 166.188 516.228 583.772> 416 168<16.228 83.772 516.228 583.772> 595 167<16.228 83.772 516.228 583.772> 684 167<99.228 166.614 183.386 250.188 265.969 334.031 349.812 416.614 433.386 500.772>
VStem: 0 100<163.186 264.531 430.186 569.814 609.186 709.532> 83 100<290.468 362.435> 167 100<370.564 480.814> 500 100<290.468 390.814 430.186 569.814 609.186 709.532>
LayerCount: 2
Fore
SplineSet
50 149 m 0xa580
 22 149 0 186 0 233 c 0xa580
 0 280 22 316 50 316 c 0
 65 316 78 307 87 290 c 1
 85 300 83 309 83 321 c 0xa280
 83 368 105 405 133 405 c 0
 150 405 165 392 174 370 c 1
 170 382 167 396 167 411 c 0
 167 458 189 495 217 495 c 0
 245 495 267 458 267 411 c 0x6180
 267 364 245 328 217 328 c 0
 200 328 185 341 176 363 c 1
 180 351 183 336 183 321 c 0
 183 308 181 297 178 285 c 1
 187 303 201 316 217 316 c 0
 234 316 249 302 258 280 c 1
 267 302 283 316 300 316 c 0
 317 316 333 302 342 280 c 1
 351 302 366 316 383 316 c 0
 401 316 416 301 425 278 c 1
 434 301 449 316 467 316 c 0xa280
 482 316 495 307 504 290 c 1
 502 300 500 309 500 321 c 0
 500 368 522 405 550 405 c 0
 578 405 600 368 600 321 c 0
 600 274 578 238 550 238 c 0x6280
 535 238 522 248 513 265 c 1
 515 255 517 245 517 233 c 0
 517 186 495 149 467 149 c 0
 449 149 434 165 425 188 c 1
 416 165 401 149 383 149 c 0
 366 149 351 164 342 186 c 1
 333 164 317 149 300 149 c 0
 283 149 267 164 258 186 c 1
 249 164 234 149 217 149 c 0xa280
 189 149 167 186 167 233 c 0
 167 246 169 258 172 270 c 1
 163 252 149 238 133 238 c 0x6180
 118 238 105 248 96 265 c 1
 98 255 100 245 100 233 c 0
 100 186 78 149 50 149 c 0xa580
50 416 m 0
 22 416 0 453 0 500 c 0
 0 547 22 584 50 584 c 0
 78 584 100 547 100 500 c 0
 100 453 78 416 50 416 c 0
50 595 m 0x3480
 22 595 0 632 0 679 c 0
 0 726 22 762 50 762 c 0x3480
 65 762 78 752 87 735 c 1
 85 745 83 755 83 767 c 0
 83 814 105 851 133 851 c 0
 151 851 166 835 175 812 c 1
 184 835 199 851 217 851 c 0
 234 851 249 836 258 814 c 1
 267 836 283 851 300 851 c 1
 317 851 333 836 342 814 c 1
 351 836 366 851 383 851 c 0
 401 851 416 835 425 812 c 1
 434 835 449 851 467 851 c 0x2a80
 495 851 517 814 517 767 c 0
 517 755 515 745 513 735 c 1
 522 752 535 762 550 762 c 0
 578 762 600 726 600 679 c 0
 600 632 578 595 550 595 c 0x3280
 522 595 500 632 500 679 c 0
 500 691 502 700 504 710 c 1
 495 693 482 684 467 684 c 0
 449 684 434 699 425 722 c 1
 416 699 401 684 383 684 c 0
 366 684 351 698 342 720 c 1
 333 698 317 684 300 684 c 0
 283 684 267 698 258 720 c 1
 249 698 234 684 217 684 c 1
 199 684 184 699 175 722 c 1
 166 699 151 684 133 684 c 0x2a80
 118 684 105 693 96 710 c 1
 98 700 100 691 100 679 c 0
 100 632 78 595 50 595 c 0x3480
550 416 m 0
 522 416 500 453 500 500 c 0
 500 547 522 584 550 584 c 0
 578 584 600 547 600 500 c 0
 600 453 578 416 550 416 c 0
EndSplineSet
EndChar

StartChar: u
Encoding: 117 117 92
Width: 667
VWidth: -334
UnlinkRmOvrlpSave: 1
Flags: HW
HStem: 149 167<99.228 166.614 183.386 250.188 265.969 334.031 349.812 416.614 433.386 500.188 515.969 583.772> 238 167<16.228 83.772> 416 168<16.228 83.772> 595 167<16.228 83.772> 684 167<99.228 166.614 183.386 250.188 265.969 334.031 349.812 416.614 433.386 500.188 515.969 583.772>
VStem: 0 100<290.468 390.814 430.186 569.814 609.186 709.532>
LayerCount: 2
Fore
SplineSet
50 238 m 1x64
 22 238 0 274 0 321 c 0
 0 368 22 405 50 405 c 0x64
 78 405 100 368 100 321 c 0
 100 309 98 300 96 290 c 1
 105 307 118 316 133 316 c 1
 151 316 166 301 175 278 c 1
 184 301 199 316 217 316 c 1
 234 316 249 302 258 280 c 1
 267 302 283 316 300 316 c 0
 317 316 333 302 342 280 c 1
 351 302 366 316 383 316 c 0
 401 316 416 301 425 278 c 1
 434 301 449 316 467 316 c 0
 484 316 499 302 508 280 c 1
 517 302 533 316 550 316 c 0
 578 316 600 280 600 233 c 0
 600 186 578 149 550 149 c 0
 533 149 517 164 508 186 c 1
 499 164 484 149 467 149 c 0
 449 149 434 165 425 188 c 1
 416 165 401 149 383 149 c 0
 366 149 351 164 342 186 c 1
 333 164 317 149 300 149 c 0
 283 149 267 164 258 186 c 1
 249 164 234 149 217 149 c 0
 199 149 184 165 175 188 c 1
 166 165 151 149 133 149 c 1xa4
 105 149 83 186 83 233 c 0
 83 245 85 255 87 265 c 1
 78 248 65 238 50 238 c 1x64
50 416 m 0
 22 416 0 453 0 500 c 0
 0 547 22 584 50 584 c 0
 78 584 100 547 100 500 c 0
 100 453 78 416 50 416 c 0
50 595 m 0x34
 22 595 0 632 0 679 c 0
 0 726 22 762 50 762 c 0x34
 65 762 78 752 87 735 c 1
 85 745 83 755 83 767 c 0
 83 814 105 851 133 851 c 0
 151 851 166 835 175 812 c 1
 184 835 199 851 217 851 c 0
 234 851 249 836 258 814 c 1
 267 836 283 851 300 851 c 1
 317 851 333 836 342 814 c 1
 351 836 366 851 383 851 c 0
 401 851 416 835 425 812 c 1
 434 835 449 851 467 851 c 0
 484 851 499 836 508 814 c 1
 517 836 533 851 550 851 c 0
 578 851 600 814 600 767 c 0
 600 720 578 684 550 684 c 0
 533 684 517 698 508 720 c 1
 499 698 484 684 467 684 c 0
 449 684 434 699 425 722 c 1
 416 699 401 684 383 684 c 0
 366 684 351 698 342 720 c 1
 333 698 317 684 300 684 c 0
 283 684 267 698 258 720 c 1
 249 698 234 684 217 684 c 1
 199 684 184 699 175 722 c 1
 166 699 151 684 133 684 c 0x2c
 118 684 105 693 96 710 c 1
 98 700 100 691 100 679 c 0
 100 632 78 595 50 595 c 0x34
EndSplineSet
EndChar

StartChar: y
Encoding: 121 121 93
Width: 667
VWidth: -334
UnlinkRmOvrlpSave: 1
Flags: HW
HStem: 149 167<516.228 583.772> 238 167<432.726 500.772> 328 167<349.228 416.772> 416 168<16.228 84.0312 99.8125 166.614 183.386 250.188 265.969 334.365> 505 167<349.228 416.772> 595 167<432.726 500.772> 684 167<516.228 583.772>
VStem: 333 100<370.564 442.531 557.469 629.436> 417 100<290.468 362.435 637.565 709.532> 500 100<163.186 264.531 735.469 836.814>
LayerCount: 2
Fore
SplineSet
50 416 m 0x11
 22 416 0 453 0 500 c 0
 0 547 22 584 50 584 c 0
 67 584 83 569 92 547 c 1
 101 569 116 584 133 584 c 1
 151 584 166 568 175 545 c 1
 184 568 199 584 217 584 c 0
 234 584 249 569 258 547 c 1
 267 569 283 584 300 584 c 1x11
 315 584 328 574 337 557 c 1
 335 567 333 577 333 589 c 0
 333 636 355 672 383 672 c 0x09
 400 672 415 659 424 637 c 1
 420 649 417 664 417 679 c 0
 417 726 439 762 467 762 c 0x0480
 482 762 495 752 504 735 c 1
 502 745 500 755 500 767 c 0
 500 814 522 851 550 851 c 0
 578 851 600 814 600 767 c 0
 600 720 578 684 550 684 c 0x0240
 535 684 522 693 513 710 c 1
 515 700 517 691 517 679 c 0
 517 632 495 595 467 595 c 0x0480
 450 595 435 608 426 630 c 1
 430 618 433 604 433 589 c 0
 433 542 411 505 383 505 c 0
 368 505 355 515 346 532 c 1
 348 522 350 512 350 500 c 0
 350 488 348 478 346 468 c 1
 355 485 368 495 383 495 c 1
 411 495 433 458 433 411 c 0x29
 433 396 430 382 426 370 c 1
 435 392 450 405 467 405 c 1
 495 405 517 368 517 321 c 0x4080
 517 309 515 300 513 290 c 1
 522 307 535 316 550 316 c 1
 578 316 600 280 600 233 c 0
 600 186 578 149 550 149 c 0x8040
 522 149 500 186 500 233 c 0
 500 245 502 255 504 265 c 1
 495 248 482 238 467 238 c 1x4040
 439 238 417 274 417 321 c 0
 417 336 420 351 424 363 c 1
 415 341 400 328 383 328 c 1x2080
 355 328 333 364 333 411 c 0
 333 423 335 433 337 443 c 1
 328 426 315 416 300 416 c 1
 283 416 267 431 258 453 c 1
 249 431 234 416 217 416 c 0
 199 416 184 432 175 455 c 1
 166 432 151 416 133 416 c 1
 116 416 101 431 92 453 c 1
 83 431 67 416 50 416 c 0x11
EndSplineSet
EndChar

StartChar: braceright
Encoding: 125 125 94
Width: 667
VWidth: -334
UnlinkRmOvrlpSave: 1
Flags: HW
HStem: 238 167<16.228 84.0312 99.8125 166.614 183.386 250.188 265.969 334.031 349.812 416.614 433.386 500.188 515.969 583.772> 416 168<16.228 83.772 516.228 583.772> 595 167<16.228 83.772 516.228 583.772>
VStem: 0 100<430.186 569.814 609.186 748.131> 500 100<430.186 569.814 609.186 748.131>
CounterMasks: 1 e0
LayerCount: 2
Fore
SplineSet
50 238 m 0
 22 238 0 274 0 321 c 0
 0 368 22 405 50 405 c 0
 67 405 83 390 92 368 c 1
 101 390 116 405 133 405 c 0
 151 405 166 389 175 366 c 1
 184 389 199 405 217 405 c 1
 234 405 249 390 258 368 c 1
 267 390 283 405 300 405 c 0
 317 405 333 390 342 368 c 1
 351 390 366 405 383 405 c 0
 401 405 416 389 425 366 c 1
 434 389 449 405 467 405 c 0
 484 405 499 390 508 368 c 1
 517 390 533 405 550 405 c 0
 578 405 600 368 600 321 c 0
 600 274 578 238 550 238 c 0
 533 238 517 253 508 275 c 1
 499 253 484 238 467 238 c 0
 449 238 434 253 425 276 c 1
 416 253 401 238 383 238 c 0
 366 238 351 253 342 275 c 1
 333 253 317 238 300 238 c 0
 283 238 267 253 258 275 c 1
 249 253 234 238 217 238 c 0
 199 238 184 253 175 276 c 1
 166 253 151 238 133 238 c 1
 116 238 101 253 92 275 c 1
 83 253 67 238 50 238 c 0
50 416 m 0
 22 416 0 453 0 500 c 0
 0 547 22 584 50 584 c 0
 78 584 100 547 100 500 c 0
 100 453 78 416 50 416 c 0
50 595 m 0
 22 595 0 632 0 679 c 0
 0 726 22 762 50 762 c 0
 78 762 100 726 100 679 c 0
 100 632 78 595 50 595 c 0
550 416 m 0
 522 416 500 453 500 500 c 0
 500 547 522 584 550 584 c 0
 578 584 600 547 600 500 c 0
 600 453 578 416 550 416 c 0
550 595 m 0
 522 595 500 632 500 679 c 0
 500 726 522 762 550 762 c 0
 578 762 600 726 600 679 c 0
 600 632 578 595 550 595 c 0
EndSplineSet
EndChar
